<svg id="图层_1" data-name="图层 1" xmlns="http://www.w3.org/2000/svg" viewBox="0 0 254.72 339.51"><defs><style>.cls-1{fill:#9aeada;}.cls-2{fill:#221c0e;}.cls-3{fill:#35d8b4;}.cls-4{fill:#555146;}.cls-5{fill:#69ddc2;}.cls-6{fill:#1ea37b;}.cls-7{fill:#3cac90;}.cls-8{fill:#636056;}.cls-9{fill:#203625;}.cls-10{fill:#12190c;}.cls-11{fill:#144832;}.cls-12{fill:#b38d1f;}.cls-13{fill:#217053;}.cls-14{fill:#1dab83;}.cls-15{fill:#1ca980;}</style></defs><path class="cls-1" d="M1129.25,500.51l-.07-2h7.5v1.1l-1.61.55h-1.36C1132,497.75,1130.79,501,1129.25,500.51Z" transform="translate(-1092.53 -498.49)"/><path class="cls-2" d="M1133.72,500.14h1.36c.66,1.43-1.68,4,.93,4.37,3,.41,2.63,2.31,3.28,4.17,1.09,3.1,1.91,6.6,5.83,7.62.21,1.77-1.51,4.31,1.93,4.76a.67.67,0,0,1,.23.5c-.12,1.31-.49,2.71,1.34,3.2l.34-.06c-.07.48-.15,1-.23,1.45-.94,1.12-.39,1.48.78,1.52l.71.74c-.85,3.53,2.55,3.1,4.13,4,1.35.76,2.19-.95,2.57-2.32a1,1,0,0,1,.66-.18c3.63.09,6.24-2.29,8.52-4.41a66.76,66.76,0,0,1,15.08-11.14c2-1,4.61-1.34,5.78-4.13.63-1.49,4,0,4.42,2.14a16.68,16.68,0,0,1,0,3.74c-.5,8.24-1.8,16.41-2,24.69-.12,4.92,1.65,9.21,3.47,13.56.4.94,1,1.94,2.22,1.5,7.11-2.55,14.4-2.8,21.8-1.84,2.08,2.21,2.77,2,3.79-1.31a122.38,122.38,0,0,0,15,.49,4.81,4.81,0,0,0,5.24,0c1,0,2.12.45,3-.51l2.11.57c.66,1.18,1.9.88,2.93,1.13-.22.56-.49,1.27.28,1.48,1.49.4,1.22-1.07,1.69-1.77,2.14,0,4.35-.75,6.37.59-.45.46-.73,1.18-.29,1.55,1.18,1,1.69-.8,2.68-.79l1.65-.13,1.94,1.61c.69,1.31,2,.64,3,.93.28.79.9,1.41,1.66,1.15,3.74-1.26,5.66,1.11,7.65,3.56s4.21,3.84,7.42,3.14l.19.92c-.3,1.73,1.07,1.34,2,1.54a8.26,8.26,0,0,1,2.77,3.89c-.46,0-.9.12-.89.72a.33.33,0,0,0,.22.24c.6.07.73-.34.81-.8l2,.59a.68.68,0,0,1,.34.62c.05.75.11,1.5.16,2.25-.4,1.68.6,2.22,2,2.46l.79,1.33c-1.33,2-3.11,4.19,1.53,3.76a3.57,3.57,0,0,0,.18.66c-.08,1.06.33,1.55,1.43,1.24l.23.22c-.35,1,.27,1.44,1.1,1.73a9.5,9.5,0,0,0,2.43,6l2.14,4.38-.33.7c-2.29.62-3.7,2-2.91,4.45s2.16,3.82,4.85,2.24c1.63,1.76,2.49,4,3.6,6-1,1.09,0,1.32.73,1.64.19,1.21.37,2.43.55,3.64-.48.13-1.07.3-.92.89.24,1,1.07,1.22,2,1.1.85,1,2,1.79,1.23,3.35l-.55.65c-.41.37-.34.65.18.81l.7.47c0,1.27-.43,2.73,1.28,3.36.08,1,.16,1.91.25,2.87-1.15-.08-2.46-.07-2.73,1.24s1,1.65,2.12,2c.82.23,1.61.58,2.41.88l1.9,6.4c-1,2.45-.35,4.25,2,5.4a5.52,5.52,0,0,0,2.28,5.23l.75,1.35-.23,0q-2,1.71.34,2.92l.23.86c-.59.25-1.07.62-.88,1.33.24.89,1.06.81,1.74,1,.21.56.27,1.22,1,1.4l.09,1.54-.1,2.92c-.29.18-.85.42-.82.53.19.88,1,.9,1.69,1h0c-.82,1.66-1.19,3.09,1.5,3a.61.61,0,0,1,.13.58c-.48,1.16.49,2.08.54,3.15-.9,1.61-.6,2.32,1.35,1.81.16.81.33,1.62.49,2.43a1.75,1.75,0,0,0-.23,1.79,1.52,1.52,0,0,0-.52,2,10.52,10.52,0,0,1,2.12,6.85,1.7,1.7,0,0,0,1.41,1.54,3.22,3.22,0,0,0,.63.15c.15,1.21-.1,2.59,1.38,3.23-.49,3.22,1.67,5.75,2.31,8.67-2.79.8-.8,4.38-3.25,5.5-1,.47-1,1.63-.36,2.61a1.83,1.83,0,0,0,2.6.63,4,4,0,0,1,3.24-.24c0,.18.08.37.13.55,0,1.62.06,3.24.1,4.86s.68,2.07,2.1,1.17l.23,1.27c0,.56-.11,1.13-.17,1.7-2.19,2,2.28,5.49-2,7,2.38,0,4.52.76,3.62,2.86-1.26,2.91.27,3.15,2.2,3.61a.54.54,0,0,1,.11.59,1.87,1.87,0,0,0,.07,1.9c0,.36,0,.72,0,1.08-.08.76-.17,1.52-.25,2.28-.59.36-1.78-.07-1.49,1.45s.43,2.62,2.2,2.67l.08,1.17c-1,.34-2.91-.21-2.62,1.14s1.06,3.55,3.42,3.5c.68.9-1,2,.28,2.87l-.17,1.42c-2.43,1.93-1.55,5.58-3.92,7.55-1.08.45-1.69,1-.24,1.75l-1,1.2c-1.29.31-1.25,1.25-1.06,2.26l-.06.06c-1,0-1.54.44-1.39,1.51l-1.24,1.38c-1.73-.47-2.53,1.3-3.93,1.63-3.27-1.88-7.3-.88-10.57-2.78-.55-.53-1.1-1.06-1.66-1.58.14-1.28.48-2.62-1.14-3.28.07-2.5,1.27-4.92.44-7.47l.26-1.33c1.53-2,.53-4.31.83-6.47,1.37-.64,1.27-1.33.06-2.05l-.27-8.7c.15-1,1.8-.76,1.6-2l-2.1-.54c-.09-.56-.17-1.13-.91-1.2a4.37,4.37,0,0,1-.11-2.94c.52-.74.25-1.52.15-2.3.8-1.17.24-1.51-.91-1.47l0,0c1-2.12-.9-4-.52-6,.33-.27,1-.58.94-.8-.11-.92-1.13-.6-1.65-1l-.12-1.29c-.28-1.48-.55-3-.83-4.43,0-1.76,0-3.52,0-5.28,3.36-2.4,3.85-4.68,1.2-9.12a7.92,7.92,0,0,1-.28-8,6.79,6.79,0,0,0-5.85-9.79c1.2-2.94,1.17-3-1.59-3.76-1.31-.34-2.67-.51-4-.76h0c.07-1-.44-1.48-1.42-1.51-1-.53-.53-2.2-1.94-2.36a3.08,3.08,0,0,1-1-2.14c2.48-1.23,1.23-3.46,1.42-5.3,0-.5.1-1.12-.15-1.47-2-2.86-4.07-5.61-3.75-9.44.09-1.09-1.22-1-2.07-1,0-.24,0-.49,0-.73.58-3.85-.3-6.91-4.41-8.25-.48-1-1.65-1.66-1.59-3-.19-4.52.61-9,0-13.55.94-.36,2.25,1.51,2.78-.21a2,2,0,0,0-1.81-2.61c-.55-.05-1.13.39-1.7.6-2.57-1-3.49-4.48-6.72-4.51-2.41-1.57-1.44-5-3.46-6.61a7,7,0,0,1-2.6-6.12c1.56-3-1-2-2.23-2.26h0c.17-1.68-.58-2.43-2.26-2.25h0c0-1.45-1-1.55-2.12-1.51l-3.12-1.51c-1.91-2-13.16-4.06-16-2.49a2.64,2.64,0,0,1-3.3-.16c-1.17-.84-.68-1.91-.4-3,.77-3.21.19-6.07-3.12-7.5a7.29,7.29,0,0,0-9.29,3.49c-1,2.32-2.2,4.62-2.41,7.31-.33,4.38-4.33,6.09-7,8.64-1.48,1.39-3-.67-4.48-.67-3.61,0-7.67-2.64-10.71,1.4-3.58,4.78-7.52,9.33-9.71,15a5.52,5.52,0,0,1-1,1.59c-2.76,3.17-3.76,7-4.47,11-.15.86,0,2-.84,2.35-2.88,1.33-3.08,4.33-4.4,6.65-1.49,2.62-2.36,5.5-4.88,7.69a9,9,0,0,0-3.53,5.59c-1.19,8.52-2.37,17-4.13,25.48-1.25,6-2,12.18-3,18.25-1.51,9.48-1.62,19.16-3.73,28.62a70.33,70.33,0,0,0-1.77,7.92c-1,9.33-2.05,18.66-3.25,28-.21,1.59-.58,2.66,1.49,2.85.76.08,1.61.52,1.38,1.42s-1.16.58-1.86.39c-1.37-.35-1.65.5-1.25,1.44,1,2.39-.21,4.18-1,6.32-.73,1.95-3.41,4.85.78,6.48-.62,1.33-3.58,1-2.58,3.4,1.18,2.83,1.82,6.06,5,7.6,0,1.16,1.1,3.13-1.59,2.55-1.23-.27-2.54-1-3,.84-.36,1.58.75,2.12,2.1,2.5s2.77,1,2.17,2.83a93.08,93.08,0,0,1-4.39,11.05c-3,6.17-7.4,11.32-13.91,14.33-2.41,1.12-7.73.18-9.35-2l.15-.22-.13.24c-1,.1-2.14.22-2.63-.88-.72-1.62,1.12-1.19,1.63-1.83a3.53,3.53,0,0,0,.52-1.2c-2.56-1.39.3-4.74-2.58-6.18,2.55.24,4.15-.26,4-3-1.16.12-1.64,1.76-3.2,1,.51-2.08,1.62-4.77.46-6.38-3.43-4.77,2-10.3-1.73-14.83-.12-.15.15-.7.33-1,1.1-2,.44-3.73-.64-5.44,4.36-.9,4.43-5.55,7-8.06,1.24-1.21,1.43-3.09,1.37-4.92,0-1.61-.39-3.59.38-4.76,2.56-3.9.69-8.17,1.2-12.19.94-7.5-.31-15.25,2.47-22.62a11,11,0,0,0,.39-3.68c0-4.45-.24-8.93.1-13.35.37-4.91,2-9.4,1.32-14.8-.89-6.73,1.47-13.86,2.24-20.84.89-8.07,2.46-16.07,2.36-24.23,0-2.12,1.32-4.15.69-6.26-1.78-6-.13-11.56,1.64-17.17,1.12-3.57-.64-9.52-3.49-11.86-1.73-1.42-3.79-2.37-5.88-1.57-3.4,1.31-7.31,1.75-8.89,6.23-.89,2.56-2.31,4.4,1.4,5.55-1,1.26-3.27.62-3.26,2.33,0,3.37-2.1,6.14-2.4,9.33a134.2,134.2,0,0,1-3.28,20.51c-2.17,8.59-1.23,17.3-1.75,25.92-.19,3.25-2.94,6.84,0,10.17a1.59,1.59,0,0,1-.64.71c-2.38.71-1.89,2.66-1.89,4.34,0,4.87.37,9.79-1.21,14.51-1.51,4.51-1.34,9.26-1.38,13.81,0,5.44.36,10.85-.17,16.34-.28,3-1.16,6-.76,8.94a42.06,42.06,0,0,1-.1,14.07,6.42,6.42,0,0,0,4.24,7.5l.33.84-.39,2.09a15,15,0,0,0-3.31,11.36c.88,6.18,0,12-1.68,17.79-.67,2.37.07,5.36-3.19,6.56-.82.3-.32,1.28-.09,2,.7,2.2,0,4-1.26,5.93a16.65,16.65,0,0,1-15.06,7.75c-3.91-.12-6.67-3.69-8.84-7.06,4.72.89,7.58-1.19,6.67-4.87-1.82.48-2.78,3.45-5.31,1.84,2.41-2,3-4.94,4-7.65.52-1.32.54-3,2.49-3.29.57-.1,1.18-1.13.78-1.45-1.66-1.31-.93-3-1.22-4.62-.63-3.43.55-5,4.12-4.77.87.07,1.83.21,2.25-.81a1.81,1.81,0,0,0,0-1.41c-.53-.86-1.46-.72-2.34-.72-1.08,0-2.25,2.33-3,.36-.66-1.66-1.25-3.72-.36-5.6a4,4,0,0,0-.55-4.37,2.3,2.3,0,0,1-.44-2.92c1-2.27,2.22-4.29,1.11-7.13-.71-1.81-.91-4.58,2.83-5.09-2.3-.62-3.64-1.65-2.83-3.73.93-2.43-.11-4.53-.68-6.74l.72-4.61c.56-1.18,2.56-2.31.13-3.6l0-8.54c1-1,2.55-2-.2-2.77l-.19-2.31c.55,0,1.37.12,1.26-.74s-.87-.54-1.42-.5a3,3,0,0,1-.06-2.38l.72-.49-.84-.37-.3-6v-1.44c.06-.79.11-1.59.17-2.38.63-.27.62-.83.63-1.37.73-.1,1.45-.29,1.42-1.2s-.8-1-1.5-1.15l0-1.38c1.88-1.52,3-3.16.81-5.29l0-3.71c4.62-1.52,1.61-5.11,2.11-7.74l0-3.48c1.54-1.3-.4-2.65,0-4,1.33-1.44-.32-2.89,0-4.33,1-.47,1.95-1.26,1.29-2.28-.91-1.4-1.88-2.45.44-3.31.33-.12.17-.55,0-.93-1.3-2.88-2.37-5.73.33-8.51a1.55,1.55,0,0,0-.35-2.05c-.7-.67-1.29-1.86-.71-2.28,2.54-1.85.67-3.95.51-5.88-.33-4.14.52-8.19.89-12.26.32-3.43,1.77-6.75,2.07-10.18s4.27-4.94,3.33-8.57a1.49,1.49,0,0,1,.88-.42c.7,0,1.65.52,1.68-.67s-1.12-1-1.94-1.14-1.55.25-2-.75c1.16-1.57,1.27-4.57,4.6-3.15.56.23,1.3-.39,1.36-1,.11-1.1-.81-1-1.55-1-2.53-.21-4.94-3-3.85-5.11,1.25-2.36,1.11-5.08,2-7.06,1.51-3.5,1-7.49,3-10.58s-.82-7,2.08-9.91c.51-.52-.55-1.51-1.38-1.91,0-1.9.75-3.63,1.22-5.42,1.14-4.28,3.21-8.63.91-13-1.35-2.56-.82-3.5,2.07-3.59-1.12-1.45-3.63-2.12-3.1-3.37,1.55-3.61-1.46-6.59-.64-10.31a74.34,74.34,0,0,0,2-10.5c.38-5,1.58-9.93,1.17-15-.25-3.12,1.54-5.7,1.64-8.67a.79.79,0,0,1,.16-.53c2.57-2.72,1.16-5.84.9-8.85l.73-3.9a3,3,0,0,0,2.31-3.8c-.35-2,1-1.44,2-1.53.32,1.89,1.56,1.48,3.18,1.73-.93-2.05-2.21-1.5-3.22-1.7-.38-1.5-2.74-3.62.24-4.29C1132.65,503.4,1133.18,502,1133.72,500.14Zm1.57,46.33c-.11-1.5-.85-2.11-2.42-2.1-3.14,0-4.6,2.06-4.88,4.63s.52,5.3,3.86,5.94c-.08.6-.21,1.2-.24,1.8a4.5,4.5,0,0,0,2.63,4.47,1.48,1.48,0,0,0,2.22-.59c.67-1.88.23-3.53-2.06-4.46,3.42-1.83,3.88,1.72,5.73,2.37-.67,2.29.15,3.12,2.4,2.32s3.11-2.86,2.78-5.09c-.29-1.94-.45-4.38-3.53-4.06-.8-1.67,2-3.23,0-5.06C1139.54,544.66,1137.5,544.66,1135.29,546.47Zm35.26,12.75c.58,2.23,1.89,1.08,2.79.46a58.12,58.12,0,0,0,5.25-4.13c1.84-1.61,3.94-3.15,3.27-6.14-.72-3.24-2.73-5.07-5.9-6-3.45-1-5.15.31-4.43,3.75.6,2.82.92,5.58-.17,8.35-.86-.41-1.53-1.33-1.38-2,.35-1.58,1.19-2.95-.29-4.5-1.89-2-3.11,1.55-4.79.39-.34-1.1,1-1.64.94-2.7-4.86-.08-8.39,2.69-11.76,5.56-2.22,1.91-3.21,4.66-1.88,7.42,1.41,2.94,4.25,3.84,7.41,3.94,2.07.07,2.59-1,2.41-2.74C1165.26,562.36,1168,561.23,1170.55,559.22Zm53.32,29.22a24.09,24.09,0,0,0,2.55,1.93,2.34,2.34,0,0,0,3-.63c.43-.44.95-1,.49-1.59-.61-.79-1.6-.52-2.42-.46C1226.34,587.79,1225,587.22,1223.87,588.44ZM1117.19,802.12c-1.11.11-2,.56-2,1.75a1.78,1.78,0,0,0,2.09,2c1.26-.08,2.11-.75,2-2.11C1119.13,802.57,1118.27,802.13,1117.19,802.12Zm222.63-65.25c-.12-.86.19-2.4-1.28-2-1.68.43-.22,2.66-1.5,3.71-.43.36.26,1.2,1,1.13C1339.68,739.51,1339.8,738.23,1339.82,736.87ZM1141.05,578a1.23,1.23,0,0,0-1.29,1.46c0,.89.44,1.43,1.38,1.28a1.56,1.56,0,0,0,1.38-1.52C1142.57,578.24,1141.89,578,1141.05,578ZM1110.53,655c1.06,0,1.3-.49,1.34-1.12s0-1.37-.76-1.24c-.34,0-.6.88-.81,1.38S1110.11,654.92,1110.53,655Zm105.54-99c-.57.43-1,.58-1,.82s.28.63.52.7c.47.14,1,0,1-.62C1216.51,556.62,1216.24,556.33,1216.07,556Z" transform="translate(-1092.53 -498.49)"/><path class="cls-3" d="M1188.32,788.83a18.93,18.93,0,0,1-5.91.27c0-.63,0-1.27,0-1.91a22.42,22.42,0,0,1,2.09-9.74c1-2.35,2.46-4.62,2.41-7.32-.11-5.5,1.58-10.76,2-16.21.53-6.53,2.35-13,2.28-19.53-.08-8.94,1.5-17.7,2.12-26.53.83-11.76,1-23.74,4.28-35.23.82-3,2.59-6.57,2.15-8.78-1-5.12,3.55-7.51,4-11.78.31-3,1.71-6.13,3-9.11,3.52-8.12,9.55-14.5,14.56-21.55,1.66-2.33,2.47-5.55,5.52-6.84,1-.41,1.71-1.84,2.94-1.12a3.1,3.1,0,0,1,1.26,3.65c-1.25,4,0,8.21-1.37,12.19-1.82,5.37.76,10.72.31,16.16-.2,2.42-2.07,4.55-1,7.1s.86,5.44.63,8.14c-1.07,12.35-.49,24.73-.67,37.09-.1,6.86.74,13.84-.26,20.55-1,6.39-.17,12.64,0,18.87.21,8.22,0,16.44.29,24.65.08,2.12-1,4-.57,6.25,1.23,7,3.79,13,10.28,16.69a2.34,2.34,0,0,1-2,.73l-24.14.78c-2.1.06-4.24.49-6.25.47-4,0-8.39,2.11-12-1.54-.45-.45-1.6-.5-1.61,0C1192.64,788.25,1189.34,787.15,1188.32,788.83Zm30.58-132.09a1.66,1.66,0,0,0-1.76-1.57c-1.25-.07-2.32.39-2.34,1.78,0,1.21,1.09,1.65,2.09,1.65S1218.58,657.74,1218.9,656.74Z" transform="translate(-1092.53 -498.49)"/><path class="cls-4" d="M1102.31,765.34c.57,2.21,1.61,4.31.68,6.74-.81,2.08.53,3.11,2.83,3.73-3.74.51-3.54,3.28-2.83,5.09,1.11,2.84-.1,4.86-1.11,7.13a2.3,2.3,0,0,0,.44,2.92,4,4,0,0,1,.55,4.37c-.89,1.88-.3,3.94.36,5.6.79,2,2-.37,3-.36.88,0,1.81-.14,2.34.72a1.81,1.81,0,0,1,0,1.41c-.42,1-1.38.88-2.25.81-3.57-.28-4.75,1.34-4.12,4.77.29,1.6-.44,3.31,1.22,4.62.4.32-.21,1.35-.78,1.45-2,.33-2,2-2.49,3.29-1,2.71-1.63,5.66-4,7.65-2,.33-1.38,1.81-1.36,3,2.17,3.37,4.93,6.94,8.84,7.06a16.65,16.65,0,0,0,15.06-7.75c1.25-1.9,2-3.73,1.26-5.93-.23-.72-.73-1.7.09-2,3.26-1.2,2.52-4.19,3.19-6.56,1.64-5.83,2.56-11.61,1.68-17.79a15,15,0,0,1,3.31-11.36l1,1.26c-2.47,3.78-2.23,8.13-1.89,12.23a33.34,33.34,0,0,1-1.67,13.44c-1.28,3.93-1.71,8.13-3.27,12.08-2.73,6.89-6.85,12.23-14.17,14.5a11.25,11.25,0,0,1-12.52-4.3c-3.12-4.18-3.5-8,0-12.3,3.06-3.75,3.1-7.88,4.08-12.19,2-8.85-1.74-17.53.34-26.21,1.28-5.37.36-10.84.62-16.26a.93.93,0,0,0,.3-.66Z" transform="translate(-1092.53 -498.49)"/><path class="cls-5" d="M1101.08,765.57a.93.93,0,0,1-.3.66c-2.58-1-3-3.64-3.77-5.68-2-5.32-2.7-10.95-3.55-16.6-.87-5.85.2-11.64-.84-17.36-.48-2.63,1.08-4.81,1.41-7.25a103.12,103.12,0,0,0,.9-19.64c-.34-5.88,1.38-11.55,2.44-17.29a13.29,13.29,0,0,0,.38-2.57c-.14-10.83,2.74-21.35,3.23-32.16.25-5.56,3.38-11,3.76-16.54.57-8.3,3.93-15.55,6.62-23.1.37-1,.67-2.18,2-2.45.31,1.93-.67,3.61-1.1,5.39-.62,2.56-1.88,5.08-2,7.65a67.25,67.25,0,0,1-1.39,11.69c-1.7.24-2.06,1.36-2.25,2.9a38.35,38.35,0,0,1-1.54,7.7,62.57,62.57,0,0,0-3.31,19.92c-.09,7.32-2.66,14.38-1.94,21.74a.94.94,0,0,1-.08.36c-2.08,5.88-2.63,12-2.81,18.18-.29,9.72.85,19.53-1.87,29.1-.18.65.27,1.45.21,2.16-.56,6.68,1.5,13.23,1,19.92-.28,3.61,2.11,6.44,5.09,6.33a1,1,0,0,0,.43.19c0,.37,0,.75,0,1.13C1098.44,761.43,1101,763.65,1101.08,765.57Z" transform="translate(-1092.53 -498.49)"/><path class="cls-5" d="M1188.32,788.83c1-1.68,4.32-.58,4.35-3.62,0-.48,1.16-.43,1.61,0,3.56,3.65,8,1.49,12,1.54,2,0,4.15-.41,6.25-.47l24.14-.78a2.34,2.34,0,0,0,2-.73c2,0,4.11.57,6-.66h1.51a1.64,1.64,0,0,0,1.8-1.45c2.91.06,6,.58,7.32-3.12a1.6,1.6,0,0,0,0-.49h1.3a2,2,0,0,0,3.11,0l2.95-.85c1.46-.19,3.3.66,4.05-1.48l.23.06.23-.07c2.79-1.12,5.54-2.28,6.88-5.29a55.93,55.93,0,0,0,8.94-11.87,8.58,8.58,0,0,0,3.08-3.86l1.41-2.16c1.12-1.08,3.22-1.77,1.59-4l.58-.64c3,0,4.38-1.69,4.66-4.5a5.15,5.15,0,0,0,2.16-2.15c3.16-2.8,4.89-6.68,7.5-9.9a.65.65,0,0,0,0-.51c4.28-6.64,6.52-14.27,10.31-21.15l.67.06c.24,1.92.49,3.84.73,5.77a5.18,5.18,0,0,0-2.86,3.22c-3.31,8.41-8.49,15.62-14,22.74-6.61,8.51-13.39,16.9-19.56,25.78-4.69,6.75-10.3,13.34-19.84,13.55a2.68,2.68,0,0,0-1.09.25c-12.43,6.21-25.91,5-39.15,5.74-7.08.39-14.17.58-21.25.84C1194.71,788.74,1191.52,789.49,1188.32,788.83Z" transform="translate(-1092.53 -498.49)"/><path class="cls-2" d="M1235.64,553.19a122.38,122.38,0,0,1-15-.49c-1.63-.64-2.83,0-3.79,1.31-7.4-1-14.69-.71-21.8,1.84-1.21.44-1.82-.56-2.22-1.5-1.82-4.35-3.59-8.64-3.47-13.56.21-8.28,1.51-16.45,2-24.69a16.68,16.68,0,0,0,0-3.74c-.37-2.11-3.79-3.63-4.42-2.14-1.17,2.79-3.79,3.11-5.78,4.13a66.76,66.76,0,0,0-15.08,11.14c-2.28,2.12-4.89,4.5-8.52,4.41,7.72-5.08,14.3-11.56,21.51-17.28,2.13-1.68,4.05-3.63,6.12-5.39,1.81-1.54,3.88-2.44,6.17-1.26s2.39,3.33,2.17,5.79c-.92,10.35-1.6,20.72-2.41,31.08-.22,2.86,1.12,5.34,1.85,7.95.56,2,2.22,2.89,4.43,2.34,10.61-2.6,21.49-1.9,32.23-2.12,4.63-.1,9.73-.88,14.2,1.69-.85,1-2,.47-3,.51A4.37,4.37,0,0,0,1235.64,553.19Z" transform="translate(-1092.53 -498.49)"/><path class="cls-4" d="M1136.61,787.1c1.08,1.71,1.74,3.47.64,5.44-.18.32-.45.87-.33,1,3.73,4.53-1.7,10.06,1.73,14.83,1.16,1.61,0,4.3-.46,6.38,1.56.72,2-.92,3.2-1,.14,2.71-1.46,3.21-4,3,2.88,1.44,0,4.79,2.58,6.18a3.53,3.53,0,0,1-.52,1.2c-.51.64-2.35.21-1.63,1.83.49,1.1,1.61,1,2.63.88l0,0c1.62,2.21,6.94,3.15,9.35,2,6.51-3,11-8.16,13.91-14.33a93.08,93.08,0,0,0,4.39-11.05c.6-1.8-.81-2.46-2.17-2.83s-2.46-.92-2.1-2.5c.43-1.87,1.74-1.11,3-.84,2.69.58,1.55-1.39,1.59-2.55,1.28-.3,1.33-1.34,1.41-2.36l1.88-.85c.35,1.09,1.29,2.51-.18,3.15-2.56,1.11-1.67,3.06-1.64,4.87a31,31,0,0,1-6.32,18.62c-3.28,4.38-5.6,9.65-11.13,12.25-4.83,2.27-13.43,1.08-16.67-3.06a5,5,0,0,1-.81-4.63c3.32-8.88.24-17.83.51-26.72.06-2,.54-3.91,0-5.93-.33-1.28-1.48-1.73-2-2.75l1.38-.46,1.24.15A5.05,5.05,0,0,0,1136.61,787.1Z" transform="translate(-1092.53 -498.49)"/><path class="cls-2" d="M1123.86,526.83c-.1,3-1.89,5.55-1.64,8.67.41,5-.79,10-1.17,15a74.34,74.34,0,0,1-2,10.5c-.82,3.72,2.19,6.7.64,10.31-.53,1.25,2,1.92,3.1,3.37-2.89.09-3.42,1-2.07,3.59,2.3,4.37.23,8.72-.91,13-.47,1.79-1.22,3.52-1.22,5.42l-1.61.87-.72-.18c.7-3,2.29-5.65,2.92-8.72.9-4.29.23-8.17-.79-12.4a38.54,38.54,0,0,1-.82-16.53c1.34-7,2.68-14.08,2.38-21.29a19.08,19.08,0,0,1,2.64-10.72Z" transform="translate(-1092.53 -498.49)"/><path class="cls-6" d="M1134.81,786.83l-1.38.46c-1.75.09-3.31-.28-4.21-2l-1-1.26.39-2.09c1.44-.29,1.6-1.66,1.67-2.62.5-6.52,2.68-12.8,2.68-19.41,0-3.68.72-7.31,3.14-10.34-.1.85-.33,1.74.64,2.31l0,1.44-.13,8.29-.15,3.73a6.65,6.65,0,0,0,0,6.05l0,2.95a2,2,0,0,0-.47,2.31c-.1.46-.21.92-.31,1.38-2.16,1.22-1.28,2.94-.75,4.59l.18,2.22A1.46,1.46,0,0,0,1134.81,786.83Z" transform="translate(-1092.53 -498.49)"/><path class="cls-7" d="M1116.3,597.34l.72.18c-1,2.65-.42,5.68-1.42,8.17-1.58,4-2.11,8.11-3,12.19-1.28,5.89-1.13,12-3.1,17.8-2.93-1.48.2-3.64-.61-5.36a67.25,67.25,0,0,0,1.39-11.69c.1-2.57,1.36-5.09,2-7.65.43-1.78,1.41-3.46,1.1-5.39C1113.56,602.56,1115,600,1116.3,597.34Z" transform="translate(-1092.53 -498.49)"/><path class="cls-5" d="M1169.83,799.51c0-1.81-.92-3.76,1.64-4.87,1.47-.64.53-2.06.18-3.15,0-.34,0-.68,0-1l1.69-2,.79.11c2.85.16,5.73.5,8.23-1.4,0,.64,0,1.28,0,1.91-1.76,1.28-3.55,2.51-5.26,3.85C1174.57,795,1171.08,796,1169.83,799.51Z" transform="translate(-1092.53 -498.49)"/><path class="cls-4" d="M1283,565.72c-3.21.7-5.52-.81-7.42-3.14s-3.91-4.82-7.65-3.56c-.76.26-1.38-.36-1.66-1.15,2-2.32,4.16-.92,6.27-.34,3.87,1.07,6.26,4.56,9.86,6.08a1.08,1.08,0,0,1,.85,1C1283.12,565,1283,565.36,1283,565.72Z" transform="translate(-1092.53 -498.49)"/><path class="cls-8" d="M1313,629.68c-.09-1-.17-1.91-.25-2.87,0-1.13,0-2.25,0-3.37,2.49.85,1.7,3.16,1.89,4.81.82,7.22,4.72,13.47,6.28,20.44.16.72.55,1.38.06,2.1a5.52,5.52,0,0,1-2.28-5.23c-.12-2-1.24-3.65-2-5.4l-1.9-6.4C1314.32,632.35,1315,630.4,1313,629.68Z" transform="translate(-1092.53 -498.49)"/><path class="cls-2" d="M1145.29,516.48c-3.91-1-4.74-4.52-5.82-7.62-.66-1.87-.32-3.76-3.29-4.17-2.61-.36-.26-2.94-.93-4.38l1.62-.54,1.7,1.22a12.9,12.9,0,0,0,2.1,4.27,3.43,3.43,0,0,0,1.68,3.24c.91,2.16.65,4.8,2.64,6.52Z" transform="translate(-1092.53 -498.49)"/><path class="cls-2" d="M1133.9,500.31c-.55,1.87-1.08,3.26-3.57,3.82-3,.68-.63,2.79-.24,4.29l0,0c-1,.1-2.34-.43-2,1.53a3,3,0,0,1-2.32,3.8c0-4.69.85-9.12,3.61-13C1131,501.14,1132.2,497.93,1133.9,500.31Z" transform="translate(-1092.53 -498.49)"/><path class="cls-8" d="M1320.19,754.63c.83,2.55-.37,5-.44,7.47,0,1.23-.75,2.71,1.14,3.28.56.52,1.11,1,1.66,1.58.62,3.18,3.18,3.94,5.78,4.66-4.13,1.2-9.2-2.27-9.8-7A15.39,15.39,0,0,1,1320.19,754.63Z" transform="translate(-1092.53 -498.49)"/><path class="cls-8" d="M1307.54,610.9c-1.11-2.07-2-4.29-3.6-6l.15-4c2.83,6.19,6.83,11.86,8.4,18.62.29,1.23.59,2.34-1.35,2,.8-1.56-.38-2.4-1.23-3.35-.11-.8.08-1.76-1.09-2-.18-1.21-.36-2.43-.55-3.64A1.45,1.45,0,0,0,1307.54,610.9Z" transform="translate(-1092.53 -498.49)"/><path class="cls-8" d="M1282.35,563.61c-3.6-1.52-6-5-9.86-6.08-2.11-.58-4.3-2-6.27.34-1-.29-2.32.38-3-.93A14.36,14.36,0,0,1,1282.35,563.61Z" transform="translate(-1092.53 -498.49)"/><path class="cls-4" d="M1338.18,709.3a4,4,0,0,0-3.24.24,1.83,1.83,0,0,1-2.6-.63c-.64-1-.66-2.14.36-2.61,2.45-1.12.46-4.7,3.25-5.5,1.34.6.38,2.42,1.64,3.06l.69,2.4C1338.25,707.27,1338.21,708.29,1338.18,709.3Z" transform="translate(-1092.53 -498.49)"/><path class="cls-8" d="M1337.59,703.86c-1.26-.64-.3-2.46-1.64-3.06-.64-2.92-2.8-5.45-2.31-8.68.28-1.39.21-2.63-1.38-3.22a3.22,3.22,0,0,1-.63-.15c-.2-2.11-.4-4.21-.59-6.32C1335.45,688.89,1336,696.53,1337.59,703.86Z" transform="translate(-1092.53 -498.49)"/><path class="cls-8" d="M1319.66,732.34c.74.07.82.64.91,1.2-.18.92-.37,1.84.5,2.54l.27,8.7-.06,2.05c-.3,2.16.7,4.48-.83,6.47Q1320,742.83,1319.66,732.34Z" transform="translate(-1092.53 -498.49)"/><path class="cls-9" d="M1304.09,600.89l-.15,4c-2.69,1.58-4.1.09-4.85-2.24s.62-3.83,2.91-4.45l1.12.91Z" transform="translate(-1092.53 -498.49)"/><path class="cls-4" d="M1344.35,732.33c-1.93-.46-3.46-.7-2.2-3.61.9-2.1-1.24-2.87-3.62-2.86,4.32-1.52-.15-5.05,2-7h.82l.15,1c0,4.3,2,8.12,3,12.19v.2Z" transform="translate(-1092.53 -498.49)"/><path class="cls-8" d="M1300.19,593.08a9.5,9.5,0,0,1-2.43-6,1.37,1.37,0,0,0-1.1-1.73l-.23-.21a1.46,1.46,0,0,0-1.43-1.25,3.57,3.57,0,0,1-.18-.66c0-1.08,0-2.17.07-3.26A17.9,17.9,0,0,1,1300.19,593.08Z" transform="translate(-1092.53 -498.49)"/><path class="cls-4" d="M1328.33,771.62c-2.6-.72-5.16-1.48-5.78-4.66,3.27,1.9,7.3.9,10.57,2.78-.85,1.52-3,.12-3.83,1.73Z" transform="translate(-1092.53 -498.49)"/><path class="cls-8" d="M1261.27,555.33l-1.65.13c-.59-.9-1.52-.73-2.39-.76-2-1.34-4.23-.6-6.38-.59l-2,.29c-1-.25-2.27.05-2.93-1.13C1251.21,552.85,1256.58,551.63,1261.27,555.33Z" transform="translate(-1092.53 -498.49)"/><path class="cls-2" d="M1156.92,530.08c-.38,1.37-1.22,3.08-2.57,2.32-1.58-.89-5-.46-4.13-4C1152.28,529.64,1154.71,529.42,1156.92,530.08Z" transform="translate(-1092.53 -498.49)"/><path class="cls-4" d="M1331,682.43c.19,2.11.39,4.21.59,6.32a1.7,1.7,0,0,1-1.41-1.54,10.52,10.52,0,0,0-2.12-6.85,1.52,1.52,0,0,1,.52-2l1.61,1.52Z" transform="translate(-1092.53 -498.49)"/><path class="cls-8" d="M1283,565.72c.08-.36.17-.72.25-1.08a21.81,21.81,0,0,1,6.82,8.18l-2-.59-.14-.16a8.26,8.26,0,0,0-2.77-3.89,2.29,2.29,0,0,0-2-1.54Z" transform="translate(-1092.53 -498.49)"/><path class="cls-8" d="M1344.53,732c-1-4.07-2.93-7.89-3-12.19C1343.06,723.79,1345.43,727.51,1344.53,732Z" transform="translate(-1092.53 -498.49)"/><path class="cls-8" d="M1342,760c2.37-2,1.49-5.62,3.92-7.55a11.53,11.53,0,0,1-3.83,9.25Z" transform="translate(-1092.53 -498.49)"/><path class="cls-2" d="M1125.09,517.63c.26,3,1.67,6.13-.89,8.84-.69-1.13.14-2.6-.82-3.67,0-.6,0-1.2,0-1.79a2,2,0,0,0,.47-2Z" transform="translate(-1092.53 -498.49)"/><path class="cls-8" d="M1345,743.47c0-.39,0-.78-.08-1.17.43-1.49-.51-2.74-.71-4.12.08-.76.17-1.52.25-2.28,1.27,3,2.29,6,1.5,9.24C1345.24,744.82,1345.13,744.15,1345,743.47Z" transform="translate(-1092.53 -498.49)"/><path class="cls-8" d="M1317.4,716.57c0,.43.08.86.11,1.29a1.42,1.42,0,0,0,.72,1.79c-.38,2.06,1.57,3.91.52,6-1.52-2.81-2.67-5.71-2.32-9Z" transform="translate(-1092.53 -498.49)"/><path class="cls-8" d="M1329.29,771.47c.81-1.61,3-.21,3.83-1.73,1.4-.33,2.2-2.1,3.93-1.63A7,7,0,0,1,1329.29,771.47Z" transform="translate(-1092.53 -498.49)"/><path class="cls-4" d="M1345,743.47c.11.68.22,1.35,1,1.67a3.83,3.83,0,0,1,.24.59c0,.09-.06.2-.09.31-.1.69-.21,1.38-.31,2.07-2.36,0-3.09-2-3.42-3.5S1344.07,743.81,1345,743.47Z" transform="translate(-1092.53 -498.49)"/><path class="cls-8" d="M1290.52,575.69c0-.75-.11-1.5-.16-2.25a13.77,13.77,0,0,1,4.1,6.08l-1.17,0-.79-1.33A3.82,3.82,0,0,0,1290.52,575.69Z" transform="translate(-1092.53 -498.49)"/><path class="cls-4" d="M1293.29,579.48l1.17,0a.8.8,0,0,1,.43.47c0,1.08,0,2.17-.07,3.25C1290.18,583.67,1292,581.48,1293.29,579.48Z" transform="translate(-1092.53 -498.49)"/><path class="cls-4" d="M1340.51,715.88c-1.42.9-2.06.4-2.1-1.17s-.07-3.24-.1-4.86l1.61,1.51.12.29c-.1,1.24-1.47,2.77.76,3.5Z" transform="translate(-1092.53 -498.49)"/><path class="cls-1" d="M1144.82,514.85c-2-1.72-1.74-4.36-2.64-6.52C1144.67,509.85,1144.61,512.41,1144.82,514.85Z" transform="translate(-1092.53 -498.49)"/><path class="cls-4" d="M1317.4,716.57l-1,.11-.76-.17c-.24-1.93-.49-3.85-.73-5.77l1.63,1.4Z" transform="translate(-1092.53 -498.49)"/><path class="cls-8" d="M1322.11,655.94l-.23-.86c-.12-1-.23-2-.34-2.92l.23,0c1.6,1.1,1.68,2.82,1.83,4.51Z" transform="translate(-1092.53 -498.49)"/><path class="cls-1" d="M1123.2,522.62c1,1.08.13,2.55.82,3.68a.79.79,0,0,0-.16.53l-1.23.85C1122.72,526,1121.89,524.18,1123.2,522.62Z" transform="translate(-1092.53 -498.49)"/><path class="cls-2" d="M1147.05,521.06c-3.44-.45-1.72-3-1.93-4.75,1,.12,1.09,1.15,1.64,1.72C1146.86,519,1147,520.05,1147.05,521.06Z" transform="translate(-1092.53 -498.49)"/><path class="cls-8" d="M1324,664.08l.1-2.92c1.55,1.38,1.65,3.29,1.85,5.15l-1.08-.68h0A1.56,1.56,0,0,0,1324,664.08Z" transform="translate(-1092.53 -498.49)"/><path class="cls-1" d="M1140.5,505.08a12.87,12.87,0,0,1-2.11-4.26C1140.66,501.47,1140.93,503.11,1140.5,505.08Z" transform="translate(-1092.53 -498.49)"/><path class="cls-8" d="M1339.92,711.36l-1.61-1.51c0-.18-.09-.37-.13-.55,0-1,.07-2,.1-3C1340.57,707.4,1339.18,709.72,1339.92,711.36Z" transform="translate(-1092.53 -498.49)"/><path class="cls-1" d="M1147.05,521.06c-.1-1-.19-2-.29-3,2.22,1.08,1.79,3.13,1.83,5l-1.31-1.48A.67.67,0,0,0,1147.05,521.06Z" transform="translate(-1092.53 -498.49)"/><path class="cls-8" d="M1345.82,748.11c.1-.69.21-1.38.31-2.07,1.23,1.65,1.74,3.3,0,4.94C1344.77,750.15,1346.5,749,1345.82,748.11Z" transform="translate(-1092.53 -498.49)"/><path class="cls-4" d="M1322.11,655.94l1.49.71c.05.51.09,1,.14,1.52l-.77.05c-.68-.14-1.5-.06-1.74-1C1321,656.56,1321.52,656.19,1322.11,655.94Z" transform="translate(-1092.53 -498.49)"/><path class="cls-4" d="M1324.84,665.63l1.08.68c.59.69,1,1.41.42,2.32C1323.65,668.72,1324,667.29,1324.84,665.63Z" transform="translate(-1092.53 -498.49)"/><path class="cls-8" d="M1340.8,715.15c-2.23-.73-.86-2.26-.76-3.5C1341.12,712.64,1341,713.88,1340.8,715.15Z" transform="translate(-1092.53 -498.49)"/><path class="cls-4" d="M1312.79,623.44c0,1.12,0,2.24,0,3.37-1.71-.63-1.24-2.09-1.28-3.36Z" transform="translate(-1092.53 -498.49)"/><path class="cls-8" d="M1330.23,679.91l-1.61-1.52a1.75,1.75,0,0,1,.23-1.79A3.31,3.31,0,0,1,1330.23,679.91Z" transform="translate(-1092.53 -498.49)"/><path class="cls-8" d="M1319.7,727.1c.1.78.37,1.56-.15,2.3a1.56,1.56,0,0,1-.89-2.36Z" transform="translate(-1092.53 -498.49)"/><path class="cls-8" d="M1339.74,765.16c-.19-1-.23-1.95,1.06-2.26C1341.08,764,1341.18,764.92,1339.74,765.16Z" transform="translate(-1092.53 -498.49)"/><path class="cls-4" d="M1328.36,674.17c-1.95.51-2.25-.2-1.35-1.81h.93A1.83,1.83,0,0,1,1328.36,674.17Z" transform="translate(-1092.53 -498.49)"/><path class="cls-8" d="M1327.94,672.36H1327c0-1.07-1-2-.54-3.15C1327.66,669.94,1327.86,671.12,1327.94,672.36Z" transform="translate(-1092.53 -498.49)"/><path class="cls-2" d="M1147.28,521.56l1.31,1.48,0,1.72C1146.79,524.27,1147.16,522.87,1147.28,521.56Z" transform="translate(-1092.53 -498.49)"/><path class="cls-1" d="M1123.64,518.79a2,2,0,0,1-.47,2C1122.22,519.9,1122.37,519.22,1123.64,518.79Z" transform="translate(-1092.53 -498.49)"/><path class="cls-4" d="M1319.7,727.1l-1-.06c0-.47.09-.94.13-1.41C1319.94,725.59,1320.5,725.93,1319.7,727.1Z" transform="translate(-1092.53 -498.49)"/><path class="cls-4" d="M1342,760l.09,1.7-.15.14-.18-.09C1340.32,760.91,1340.93,760.4,1342,760Z" transform="translate(-1092.53 -498.49)"/><path class="cls-8" d="M1338.29,766.73c-.15-1.07.34-1.55,1.39-1.51C1339.77,766.24,1339.31,766.75,1338.29,766.73Z" transform="translate(-1092.53 -498.49)"/><path class="cls-8" d="M1323,658.22l.77-.05c.53.41.92.84.24,1.45C1323.24,659.44,1323.18,658.78,1323,658.22Z" transform="translate(-1092.53 -498.49)"/><path class="cls-8" d="M1303.12,599.07l-1.12-.91.33-.7C1303.24,597.68,1303.53,598.2,1303.12,599.07Z" transform="translate(-1092.53 -498.49)"/><path class="cls-8" d="M1149.51,527.67c-1.17,0-1.72-.4-.78-1.52l.77,0Z" transform="translate(-1092.53 -498.49)"/><path class="cls-8" d="M1341.4,718.86h-.82c.05-.57.11-1.14.16-1.7C1341.83,717.38,1341.84,718,1341.4,718.86Z" transform="translate(-1092.53 -498.49)"/><path class="cls-1" d="M1149.5,526.1l-.77,0c.08-.48.16-1,.23-1.45C1149.85,524.89,1150.36,525.23,1149.5,526.1Z" transform="translate(-1092.53 -498.49)"/><path class="cls-8" d="M1344.53,734.82a1.87,1.87,0,0,1-.07-1.9C1345.43,733.52,1345.62,734.15,1344.53,734.82Z" transform="translate(-1092.53 -498.49)"/><path class="cls-8" d="M1310.77,623c-.52-.16-.59-.44-.18-.81Z" transform="translate(-1092.53 -498.49)"/><path class="cls-10" d="M1136.8,753.27l0-1.44c2-2.18,2-6.67.1-9.13l-.12-2.81c1.67-.24,2.22-1.3,2.16-2.86-.08-2,.47-3.91.55-5.81.17-3.85,1-7.79-.4-11.6q.43-2.57.89-5.13c2.2-3.73,1-8,2-12l-.67-.2,0-1.47c.71-.49.73-1,0-1.52.29-2,.57-3.9.86-5.85,1.85-1.1,1.86-2.19,0-3.26,0-1.93,0-3.86-.07-5.79,1.42-.41,1.82-1.14.72-2.34l.24-2.81c.8-.39,1.53-.8.45-1.69l.09-9.65c2.57-3.77,2.67-7.84,1.49-12.08l.18-1.33c1.58-.8,1.54-1.9.58-3.17-.13-3.26,1.26-6.4.79-9.7.61-.15,1.24-.35,1.21-1.12,0-1.23-1.09-1.11-1.88-1.33l-.06-1.36c.78-3.47.31-6.92-.19-10.36-.12-.79-.31-1.51-1.31-1.37-.77.11-.86.78-.91,1.41a49,49,0,0,0-.11,11.09l-.17,3.6c-2.06,2.15-1.34,4.52-.56,6.91l-.19,2.82c-.79.36-1.49.74-.57,1.67l.13,2.28c-.92,0-1.84.28-2,1.26-.16,1.26.87,1.58,1.89,1.75l.1,3c-.4.15-1,.21-1.14.47-.26.74.42.88,1,1.05q-.84,6.35-1.67,12.69c-1,.85-1.77,1.75-.46,3v1.5c-.71.47-.76,1-.07,1.5q-.43,6.68-.88,13.35c-.77.33-1.69.61-.64,1.64,0,1.25.07,2.5.1,3.75,0,1.77-3.69,3.08-.66,5.23v1.51c-1.21.93-1,1.94-.2,3-.17,3-.33,5.94-.5,8.9-.07.5-.13,1-.2,1.5,0,.73-.07,1.47-.11,2.2a3.58,3.58,0,0,0-.56.16c-2.41,2.54-1.58,5.38-.76,8.23l-.06,1.5c-2.65.94-1,3-1.24,4.63-.6,5.76.59,11.71-1.73,17.29-1.24,3-1.3,6.32-1.59,9.31-.55,5.62-1.48,11.16-2.25,16.73a6.42,6.42,0,0,1-4.24-7.5,42.06,42.06,0,0,0,.1-14.07c-.4-3,.48-6,.76-8.94.53-5.49.13-10.9.17-16.34,0-4.55-.13-9.3,1.38-13.81,1.58-4.72,1.18-9.64,1.21-14.51,0-1.68-.49-3.63,1.89-4.34a1.59,1.59,0,0,0,.64-.71c-3-3.33-.22-6.92,0-10.17.52-8.62-.42-17.33,1.75-25.92a134.2,134.2,0,0,0,3.28-20.51c.3-3.19,2.43-6,2.4-9.33,0-1.71,2.29-1.07,3.26-2.33-3.71-1.15-2.29-3-1.4-5.55,1.58-4.48,5.49-4.92,8.89-6.23,2.09-.8,4.15.15,5.88,1.57,2.85,2.34,4.61,8.29,3.49,11.86-1.77,5.61-3.42,11.2-1.64,17.17.63,2.11-.72,4.14-.69,6.26.1,8.16-1.47,16.16-2.36,24.23-.77,7-3.13,14.11-2.24,20.84.7,5.4-1,9.89-1.32,14.8-.34,4.42,0,8.9-.1,13.35a11,11,0,0,1-.39,3.68c-2.78,7.37-1.53,15.12-2.47,22.62-.51,4,1.36,8.29-1.2,12.19-.77,1.17-.43,3.15-.38,4.76.06,1.83-.13,3.71-1.37,4.92-2.55,2.51-2.62,7.16-7,8.06a5.05,5.05,0,0,1-.56-.12l0-2.19c.9-.85.79-1.6-.21-2.27l.17-2.17.93-.41-.91-.45-.29-1.51c.11-.46.22-.92.32-1.38,1.6-.47,1.88-1.22.47-2.31,0-1,0-2,0-2.95a5,5,0,0,0,0-6.05l.15-3.73c1.28-.1,3.73-.77,3.31-1.13C1137.64,758.46,1139.21,755,1136.8,753.27Z" transform="translate(-1092.53 -498.49)"/><path class="cls-10" d="M1169.77,792.34c-.08,1-.13,2.06-1.41,2.36-3.17-1.54-3.81-4.77-5-7.6-1-2.4,2-2.07,2.58-3.4-4.19-1.63-1.51-4.53-.78-6.48.78-2.14,2-3.93,1-6.32-.4-.94-.12-1.79,1.25-1.44.7.19,1.59.62,1.86-.39s-.62-1.34-1.38-1.42c-2.07-.19-1.7-1.26-1.49-2.85,1.2-9.31,2.24-18.64,3.25-28a70.33,70.33,0,0,1,1.77-7.92c2.11-9.46,2.22-19.14,3.73-28.62,1-6.07,1.74-12.22,3-18.25,1.76-8.44,2.94-17,4.13-25.48a9,9,0,0,1,3.53-5.59c2.52-2.19,3.39-5.07,4.88-7.69,1.32-2.32,1.52-5.32,4.4-6.65.87-.4.69-1.49.84-2.35.71-4,1.71-7.86,4.47-11a5.52,5.52,0,0,0,1-1.59c2.19-5.68,6.13-10.23,9.71-15,3-4,7.1-1.39,10.71-1.4,1.47,0,3,2.06,4.48.67,2.72-2.55,6.72-4.26,7-8.64.21-2.69,1.4-5,2.41-7.31a7.29,7.29,0,0,1,9.29-3.49c3.31,1.43,3.89,4.29,3.12,7.5-.28,1.13-.77,2.2.4,3a2.64,2.64,0,0,0,3.3.16c2.88-1.57,14.13.48,16,2.49-3.24.71-6.33-.8-9.61-.49-8,.74-15.89,1.62-23.09,5.19-4.74,2.34-9.84,3.84-14.31,6.84-10.59,7.08-17.86,16.5-21.36,28.78-6.65,4.31-5.87,12.23-8.58,18.39-2.12,4.81-3.1,10.3-3.76,15.71-.68,5.6-3.94,11-1.18,16.83-1.69.69-1.93,2.38-2,3.72-.14,9.13-2,18.1-2.43,27.2-3.66.63-2.67,2.09-.66,3.73l-.09,5.21c-.48,0-1,0-1.44,0-.66-.06-1.43-.82-2,0-.64,1,.39,1.43.92,2a2.4,2.4,0,0,0,1.79,1.06c0,.52,0,1,0,1.56a2.15,2.15,0,0,0-1.48,2.22c.31,1-1.88,2.79,1,3l-.13.8-.52.33.49.35.06.78c-1,0-1.37.65-1.68,1.6-1,2.9-.59,5.87-.76,8.82-.64.2-1.76-.18-1.74.83s1.12.6,1.78.77l.27,1.71-.11,1.27c-.93.28-1.27,1-1.66,1.85a35.13,35.13,0,0,0-3.19,19.87c.32,2.32-2,3.94-1.78,4.32,1.43,2.51-.33,4.65-.26,6.92C1169.38,791,1168.5,791.22,1169.77,792.34Z" transform="translate(-1092.53 -498.49)"/><path class="cls-3" d="M1108.89,630.32c.81,1.72-2.32,3.88.61,5.36l-.06,1.41c-1,.29-1.57.68-.44,1.56l-.37,1.42c-2.88,2.2-3.35,4.56-1.35,6.87a10.69,10.69,0,0,1,0,4.4c-.38.28-1,.5-1.1.85-.87,4-2,7.93-2.32,11.95s-1,8.09.66,12l-.33,1.42c-1.42.49-1.62,1.25-.51,2.3,0,.49-.09,1-.14,1.48-1.77.43-1.27,1.87-1.3,3-.13,4.91-.51,9.79-1,14.68-.39,4.15-.61,8.78.81,13.05,0,1-.09,1.95-.13,2.93-2.22,1.88-1.58,4-.44,6.09l-.31,2.25c-2,2.58-1.71,5.76.87,8.26,0,.48,0,1,0,1.44-2.84,3.89-1,8.16-1,12.28,0,.16.62.32,1,.47l.3,3c-1.93,3.12-.38,6.6-1,9.85-3,.11-5.37-2.72-5.09-6.33.52-6.69-1.54-13.24-1-19.92.06-.71-.39-1.51-.21-2.16,2.72-9.57,1.58-19.38,1.87-29.1.18-6.17.73-12.3,2.81-18.18a.94.94,0,0,0,.08-.36c-.72-7.36,1.85-14.42,1.94-21.74a62.57,62.57,0,0,1,3.31-19.92,38.35,38.35,0,0,0,1.54-7.7C1106.83,631.68,1107.19,630.56,1108.89,630.32Z" transform="translate(-1092.53 -498.49)"/><path class="cls-9" d="M1107.28,651.34a10.69,10.69,0,0,0,0-4.4c-.17-2.41,1.19-4.52,1.35-6.87.13-.47.25-.94.37-1.42a1,1,0,0,0,.44-1.56l.06-1.41c2-5.77,1.82-11.91,3.1-17.8.89-4.08,1.42-8.22,3-12.19,1-2.49.41-5.52,1.42-8.17l1.61-.87c.83.4,1.89,1.39,1.38,1.91-2.9,2.88-.06,6.79-2.08,9.91s-1.54,7.08-3,10.58c-.86,2-.72,4.7-2,7.06-1.09,2.08,1.32,4.9,3.85,5.11.74.06,1.66-.09,1.55,1-.06.63-.8,1.25-1.36,1-3.33-1.42-3.44,1.58-4.6,3.15.4,1,1.27.65,2,.75s2-.16,1.94,1.14-1,.7-1.68.67a1.49,1.49,0,0,0-.88.42c.94,3.63-3,5.29-3.33,8.57s-1.75,6.75-2.07,10.18c-.37,4.07-1.22,8.12-.89,12.26.16,1.93,2,4-.51,5.88-.58.42,0,1.61.71,2.28a1.55,1.55,0,0,1,.35,2.05c-2.7,2.78-1.63,5.63-.33,8.51.17.38.33.81,0,.93-2.32.86-1.35,1.91-.44,3.31.66,1-.32,1.81-1.29,2.28l-2-.72c-.35-4.52.44-9.06-.32-13.57,0-.49.1-1,.14-1.48.89-.61.77-1.44.51-2.3l.33-1.42c1.28-6,.06-12.28,2-18.25A13.3,13.3,0,0,0,1107.28,651.34Z" transform="translate(-1092.53 -498.49)"/><path class="cls-10" d="M1306.07,675.4c1.33.25,2.69.42,4,.76,2.76.71,2.79.82,1.59,3.76a6.79,6.79,0,0,1,5.85,9.79,7.92,7.92,0,0,0,.28,8c2.65,4.44,2.16,6.72-1.2,9.12-2.3.07-.26-2.68-2-3-.13-.7-.27-1.4-.4-2.1a7.47,7.47,0,0,0,.1-1.48c-.73-5.82-4.12-10.84-5.06-16.61-.06-.35-1-.56-1.55-.84C1308,680.17,1305.64,678.09,1306.07,675.4Z" transform="translate(-1092.53 -498.49)"/><path class="cls-11" d="M1199.5,640c3.5-12.28,10.77-21.7,21.36-28.78,4.47-3,9.57-4.5,14.31-6.84,7.2-3.57,15.14-4.45,23.09-5.19,3.28-.31,6.37,1.2,9.61.49l3.12,1.51c0,.25-.08.49-.13.74-5.47-.9-10.94-1.78-16.5-.78l-1.48.11a4.06,4.06,0,0,0-3.76,1.42l-1.49.05c-5.26,1-10.53,1.91-15,5.12l-1.54.61c-2.4.75-4.93,1.22-6.8,3.14a1.1,1.1,0,0,0-.61.12,16.56,16.56,0,0,0-6.83,5.16,4,4,0,0,0-2.4,2.93l-2.05,2.33h0c-2.87,1.39-4.37,3.87-5.35,6.76-.81.93-2.17,1.47-2.16,3-2.9,2-2.23,6.28-5.09,8.35Z" transform="translate(-1092.53 -498.49)"/><path class="cls-12" d="M1162,560.91c.19,1.77-.33,2.81-2.4,2.74-3.16-.1-6-1-7.41-3.94-1.33-2.76-.34-5.51,1.88-7.42,3.37-2.87,6.9-5.64,11.76-5.56,0,1.06-1.28,1.6-.94,2.7-.21.87-.43,1.75-.65,2.63a8.83,8.83,0,0,0-2.78,6.4l0,1.49a.74.74,0,0,0,.66.88Z" transform="translate(-1092.53 -498.49)"/><path class="cls-12" d="M1171.36,555.55c1.09-2.77.77-5.53.17-8.35-.72-3.44,1-4.71,4.43-3.75,3.17.89,5.18,2.72,5.9,6,.67,3-1.43,4.53-3.27,6.14a58.12,58.12,0,0,1-5.25,4.13c-.9.62-2.21,1.77-2.79-.46A5.08,5.08,0,0,0,1171.36,555.55Z" transform="translate(-1092.53 -498.49)"/><path class="cls-11" d="M1297.09,651.41c0,.24,0,.49,0,.73-1.48,1.32.3,3.1-.64,4.5-1.74-.64-2-2.13-2.56-3.69-.45-1.34.24-3.44-2-3.87l0,0c-.1-1.25.21-2.68-1.42-3.26l-.11-1.2c.06-2.08-1.67-3.44-2.15-5.31l-.85-1.44c0-1.12-.15-2.13-1.4-2.54l-.1-1.2a2.32,2.32,0,0,0-.74-2.27c.36-1.81-1.76-2.73-1.61-4.47a3.34,3.34,0,0,0-2-3.31l-.09-1.19c.06-1.7-.1-3.32-1.55-4.5a5.21,5.21,0,0,0-2-3.88,1.23,1.23,0,0,0-.17-.62c-1.27-2-.4-5.33-3.76-6h0c.06-2.11-2-3.25-2.34-5.19l1.55,0h0a4.62,4.62,0,0,0,2.26,2.25h0a4.88,4.88,0,0,0,2.23,2.26,7,7,0,0,0,2.6,6.12c2,1.61,1,5,3.46,6.61a58.69,58.69,0,0,0,7.44,20.28c-.06,1.31,1.11,2,1.59,3C1293.48,646.27,1293.24,649.93,1297.09,651.41Z" transform="translate(-1092.53 -498.49)"/><path class="cls-10" d="M1140.13,558.53c-1.85-.65-2.31-4.2-5.73-2.37,2.29.93,2.73,2.58,2.06,4.46a1.48,1.48,0,0,1-2.22.59,4.5,4.5,0,0,1-2.63-4.47c0-.6.16-1.2.24-1.8.64-1.82,1.27-3.65,1.9-5.47,1,.11,1.91.16,2.84.35s1.83.7,2.07-.48c.31-1.5-1-1.29-1.92-1.38-.6-.06-1.2-.05-1.81-.07l.36-1.42c2.21-1.81,4.25-1.81,6.47.17,2.06,1.83-.78,3.39,0,5.05A15.35,15.35,0,0,1,1140.13,558.53Z" transform="translate(-1092.53 -498.49)"/><path class="cls-13" d="M1136.75,739.89l.12,2.81c-.56,2.24.43,4.64-.73,6.82-2.42,3-3.14,6.66-3.14,10.34,0,6.61-2.18,12.89-2.68,19.41-.07,1-.23,2.33-1.67,2.62l-.33-.84c.77-5.57,1.7-11.11,2.25-16.73.29-3,.35-6.34,1.59-9.31,2.32-5.58,1.13-11.53,1.73-17.29C1135.72,737.29,1136.82,737.82,1136.75,739.89Z" transform="translate(-1092.53 -498.49)"/><path class="cls-10" d="M1171.36,555.55a5.08,5.08,0,0,1-.81,3.67c-2.56,2-5.29,3.14-8.53,1.69l.06-.08-.66-.88c0-.5,0-1,0-1.49,3.26-1.12,3.81-3.42,2.78-6.4.22-.88.44-1.76.65-2.63,1.68,1.16,2.9-2.39,4.79-.39,1.48,1.55.64,2.92.29,4.5C1169.83,554.22,1170.5,555.14,1171.36,555.55Z" transform="translate(-1092.53 -498.49)"/><path class="cls-10" d="M1291.09,640.19a58.69,58.69,0,0,1-7.44-20.28c3.23,0,4.15,3.5,6.72,4.51,0,.82-.13,1.68.73,2.22C1291.7,631.16,1290.9,635.67,1291.09,640.19Z" transform="translate(-1092.53 -498.49)"/><path class="cls-12" d="M1133.75,549.47c-.63,1.82-1.26,3.65-1.9,5.47-3.34-.64-4.16-3.23-3.86-5.94s1.74-4.6,4.88-4.63c1.57,0,2.31.6,2.42,2.1l-.36,1.42A1.9,1.9,0,0,0,1133.75,549.47Z" transform="translate(-1092.53 -498.49)"/><path class="cls-12" d="M1140.13,558.53a15.35,15.35,0,0,0,1.64-6.84c3.09-.31,3.25,2.13,3.54,4.07.33,2.23-.39,4.24-2.78,5.09S1139.46,560.82,1140.13,558.53Z" transform="translate(-1092.53 -498.49)"/><path class="cls-10" d="M1296.48,656.64c.94-1.4-.84-3.18.64-4.5.85.06,2.16,0,2.07,1-.32,3.83,1.77,6.58,3.75,9.44.25.35.11,1,.15,1.47a1.44,1.44,0,0,0-1.52,1.41c-.23,0-.46.06-.68.1l-2-.85c-.25-.49-.5-1-.74-1.47l-.06-2.19c2-2.19,0-2.5-1.47-3.06Z" transform="translate(-1092.53 -498.49)"/><path class="cls-4" d="M1102,715c0-1,.09-1.95.13-2.93,2-3.31.09-7,1.07-10.44,1.38.17,1.44,1.9,2.65,2.27l0,3.48c-2,2.23-2.1,5-2.11,7.74,0,1.24,0,2.47,0,3.71-.05.8-.37,1.38-1.27,1.44Z" transform="translate(-1092.53 -498.49)"/><path class="cls-6" d="M1298.88,664.75l2,.86.7.77c0,1,.05,2,.08,3a3.11,3.11,0,0,0,1,2.14c-.65,2.9,1.08,5.4,1.34,8.15-2.34.49-3.13-.67-3.15-2.83,0-3.74.8-7.68-2.57-10.67C1297.7,665.67,1298.3,665.08,1298.88,664.75Z" transform="translate(-1092.53 -498.49)"/><path class="cls-11" d="M1304,679.67c-.26-2.74-2-5.24-1.34-8.14,1.42.16,1,1.83,1.95,2.36a1.37,1.37,0,0,0,1.42,1.51h0c-.43,2.69,1.92,4.77,1.65,7.43l-.39.25-1.09-.3-.75-1.47c-.18-.84-.52-1.53-1.53-1.55Z" transform="translate(-1092.53 -498.49)"/><path class="cls-9" d="M1094.83,828.31c0-1.22-.61-2.7,1.36-3,2.53,1.61,3.49-1.36,5.31-1.84C1102.41,827.12,1099.55,829.2,1094.83,828.31Z" transform="translate(-1092.53 -498.49)"/><path class="cls-10" d="M1297.09,651.41c-3.85-1.48-3.61-5.14-4.41-8.25C1296.79,644.5,1297.67,647.56,1297.09,651.41Z" transform="translate(-1092.53 -498.49)"/><path class="cls-7" d="M1102.07,745.81c-.33-.15-1-.31-1-.47-.06-4.12-1.87-8.39,1-12.28l.3,6,.12.86a3,3,0,0,0,.06,2.38c0,.41.11.83.16,1.24.07.77.13,1.54.19,2.31Z" transform="translate(-1092.53 -498.49)"/><path class="cls-9" d="M1223.87,588.44c1.17-1.22,2.47-.65,3.62-.75.82-.06,1.81-.33,2.42.46.46.61-.06,1.15-.49,1.59a2.34,2.34,0,0,1-3,.63A24.09,24.09,0,0,1,1223.87,588.44Z" transform="translate(-1092.53 -498.49)"/><path class="cls-4" d="M1103.86,694.91l2,.72c-.34,1.44,1.31,2.89,0,4.33l-2.78,0C1102.58,698.18,1103.2,696.55,1103.86,694.91Z" transform="translate(-1092.53 -498.49)"/><path class="cls-8" d="M1117.19,802.12c1.08,0,1.94.45,2.06,1.61.14,1.36-.71,2-2,2.11a1.78,1.78,0,0,1-2.09-2C1115.2,802.68,1116.08,802.23,1117.19,802.12Z" transform="translate(-1092.53 -498.49)"/><path class="cls-7" d="M1101.37,758.63c.62-3.25-.93-6.73,1-9.85l.75-.19c0,2.85,0,5.69,0,8.54-.31.68-.5,1.44-1.35,1.69A1,1,0,0,1,1101.37,758.63Z" transform="translate(-1092.53 -498.49)"/><path class="cls-9" d="M1314.63,703.86c1.7.32-.34,3.07,2,3,0,1.76,0,3.52,0,5.28l-1.63-1.4-.67-.06c0-.53,0-1,.08-1.58,0-.82.15-1.68-.66-2.27,0-.49-.09-1-.13-1.48C1313.73,704.72,1313.84,704,1314.63,703.86Z" transform="translate(-1092.53 -498.49)"/><path class="cls-4" d="M1313,629.68c2,.72,1.32,2.67,1.8,4.08-.8-.3-1.59-.65-2.41-.88-1.07-.31-2.42-.51-2.12-2S1311.85,629.6,1313,629.68Z" transform="translate(-1092.53 -498.49)"/><path class="cls-9" d="M1103.67,715.14c0-2.77.1-5.51,2.11-7.74C1105.28,710,1108.29,713.62,1103.67,715.14Z" transform="translate(-1092.53 -498.49)"/><path class="cls-9" d="M1339.82,736.87c0,1.36-.14,2.64-1.8,2.81-.72.07-1.41-.77-1-1.13,1.28-1-.18-3.28,1.5-3.71C1340,734.47,1339.7,736,1339.82,736.87Z" transform="translate(-1092.53 -498.49)"/><path class="cls-7" d="M1102.08,731.62c-2.58-2.5-2.91-5.68-.87-8.26l.25,0,.24.09c0,.69-.06,1.39-.08,2.09v1.66c-.2.81-.3,1.6.63,2.06Z" transform="translate(-1092.53 -498.49)"/><path class="cls-9" d="M1102.36,720.29c.9-.06,1.22-.64,1.27-1.44,2.16,2.13,1.07,3.77-.81,5.29l-1.12-.71-.24-.09-.25,0c.1-.75.21-1.5.31-2.25Z" transform="translate(-1092.53 -498.49)"/><path class="cls-7" d="M1101.08,765.57c-.09-1.92-2.64-4.14.71-5.62l1.24.78-.72,4.61Z" transform="translate(-1092.53 -498.49)"/><path class="cls-9" d="M1291.1,626.64c-.86-.54-.72-1.4-.73-2.22.57-.21,1.15-.65,1.7-.6a2,2,0,0,1,1.81,2.61C1293.35,628.15,1292,626.28,1291.1,626.64Z" transform="translate(-1092.53 -498.49)"/><path class="cls-9" d="M1216.9,554c1-1.31,2.16-2,3.79-1.31C1219.67,556,1219,556.22,1216.9,554Z" transform="translate(-1092.53 -498.49)"/><path class="cls-9" d="M1141.06,578c.83,0,1.51.23,1.46,1.23a1.56,1.56,0,0,1-1.38,1.52c-.94.15-1.36-.39-1.38-1.28A1.25,1.25,0,0,1,1141.06,578Z" transform="translate(-1092.53 -498.49)"/><path class="cls-9" d="M1103.08,700l2.78,0c-.45,1.31,1.49,2.66,0,4-1.21-.37-1.27-2.1-2.65-2.27C1103.13,701.1,1103.11,700.55,1103.08,700Z" transform="translate(-1092.53 -498.49)"/><path class="cls-9" d="M1301.67,669.39c0-1-.05-2-.08-3,0-.29,0-.59,0-.88a1.44,1.44,0,0,1,1.52-1.41C1302.9,665.93,1304.15,668.16,1301.67,669.39Z" transform="translate(-1092.53 -498.49)"/><path class="cls-4" d="M1344.23,738.18c.2,1.38,1.14,2.63.71,4.12-1.77,0-1.94-1.27-2.2-2.67S1343.64,738.54,1344.23,738.18Z" transform="translate(-1092.53 -498.49)"/><path class="cls-4" d="M1235.64,553.19a4.37,4.37,0,0,1,5.24,0A4.81,4.81,0,0,1,1235.64,553.19Z" transform="translate(-1092.53 -498.49)"/><path class="cls-4" d="M1316.7,640.16c.8,1.75,1.92,3.39,2,5.4C1316.35,644.41,1315.66,642.61,1316.7,640.16Z" transform="translate(-1092.53 -498.49)"/><path class="cls-4" d="M1103,760.73l-1.24-.78c0-.38,0-.76,0-1.13.86-.25,1-1,1.36-1.69C1105.59,758.42,1103.59,759.55,1103,760.73Z" transform="translate(-1092.53 -498.49)"/><path class="cls-9" d="M1101.62,727.18c0-.55,0-1.11,0-1.66h1.19c.7.13,1.46.26,1.5,1.15s-.69,1.1-1.42,1.2A1.24,1.24,0,0,0,1101.62,727.18Z" transform="translate(-1092.53 -498.49)"/><path class="cls-9" d="M1103.12,748.59l-.75.19-.3-3h.85C1105.67,746.55,1104.08,747.59,1103.12,748.59Z" transform="translate(-1092.53 -498.49)"/><path class="cls-4" d="M1129.91,508.25c1,.2,2.29-.35,3.22,1.7-1.62-.25-2.86.16-3.18-1.73Z" transform="translate(-1092.53 -498.49)"/><path class="cls-9" d="M1110.53,655c-.42,0-.42-.51-.23-1s.47-1.33.81-1.38c.79-.13.79.67.76,1.24S1111.59,655,1110.53,655Z" transform="translate(-1092.53 -498.49)"/><path class="cls-4" d="M1257.23,554.7c.87,0,1.8-.14,2.39.76-1,0-1.5,1.82-2.68.79C1256.5,555.88,1256.78,555.16,1257.23,554.7Z" transform="translate(-1092.53 -498.49)"/><path class="cls-10" d="M1277.59,607.18a4.88,4.88,0,0,1-2.23-2.26C1276.62,605.17,1279.15,604.16,1277.59,607.18Z" transform="translate(-1092.53 -498.49)"/><path class="cls-4" d="M1321.07,736.08c-.87-.7-.68-1.62-.5-2.54l2.1.54C1322.87,735.32,1321.22,735.12,1321.07,736.08Z" transform="translate(-1092.53 -498.49)"/><path class="cls-4" d="M1320.89,765.38c-1.89-.57-1.16-2-1.14-3.28C1321.37,762.76,1321,764.1,1320.89,765.38Z" transform="translate(-1092.53 -498.49)"/><path class="cls-4" d="M1308.82,616.18c1.17.23,1,1.19,1.09,2-.94.12-1.77-.08-2-1.1C1307.75,616.48,1308.34,616.31,1308.82,616.18Z" transform="translate(-1092.53 -498.49)"/><path class="cls-4" d="M1248.89,554.4l2-.29c-.46.7-.19,2.17-1.68,1.77C1248.4,555.67,1248.67,555,1248.89,554.4Z" transform="translate(-1092.53 -498.49)"/><path class="cls-4" d="M1332.26,688.9c1.59.59,1.66,1.83,1.38,3.22C1332.16,691.49,1332.41,690.11,1332.26,688.9Z" transform="translate(-1092.53 -498.49)"/><path class="cls-4" d="M1290.52,575.69a3.82,3.82,0,0,1,2,2.46C1291.12,577.91,1290.12,577.37,1290.52,575.69Z" transform="translate(-1092.53 -498.49)"/><path class="cls-4" d="M1321.54,652.16c.11,1,.22,1.94.34,2.92Q1319.5,653.87,1321.54,652.16Z" transform="translate(-1092.53 -498.49)"/><path class="cls-4" d="M1318.23,719.65a1.42,1.42,0,0,1-.72-1.79c.53.39,1.55.07,1.66,1C1319.19,719.07,1318.56,719.38,1318.23,719.65Z" transform="translate(-1092.53 -498.49)"/><path class="cls-9" d="M1216.07,556c.17.32.44.61.45.9,0,.65-.49.76-1,.62-.24-.07-.57-.51-.52-.7S1215.5,556.44,1216.07,556Z" transform="translate(-1092.53 -498.49)"/><path class="cls-4" d="M1101.62,727.18a1.24,1.24,0,0,1,1.26.69c0,.54,0,1.1-.63,1.37C1101.32,728.78,1101.42,728,1101.62,727.18Z" transform="translate(-1092.53 -498.49)"/><path class="cls-10" d="M1275.36,604.93a4.62,4.62,0,0,1-2.26-2.25C1274.78,602.5,1275.53,603.25,1275.36,604.93Z" transform="translate(-1092.53 -498.49)"/><path class="cls-10" d="M1273.11,602.69l-1.55,0c-.23-.26-.46-.53-.7-.79.05-.25.09-.49.13-.74C1272.08,601.14,1273.07,601.24,1273.11,602.69Z" transform="translate(-1092.53 -498.49)"/><path class="cls-4" d="M1324,664.08a1.56,1.56,0,0,1,.87,1.55c-.71-.12-1.5-.14-1.69-1C1323.12,664.5,1323.68,664.26,1324,664.08Z" transform="translate(-1092.53 -498.49)"/><path class="cls-4" d="M1102.8,725.52h-1.19l.09-2.09,1.12.71C1102.81,724.6,1102.81,725.06,1102.8,725.52Z" transform="translate(-1092.53 -498.49)"/><path class="cls-4" d="M1283.14,566.64a2.29,2.29,0,0,1,2,1.54C1284.21,568,1282.84,568.37,1283.14,566.64Z" transform="translate(-1092.53 -498.49)"/><path class="cls-9" d="M1306,675.4a1.37,1.37,0,0,1-1.42-1.51C1305.58,673.92,1306.09,674.38,1306,675.4Z" transform="translate(-1092.53 -498.49)"/><path class="cls-4" d="M1296.66,585.36a1.37,1.37,0,0,1,1.1,1.73C1296.93,586.8,1296.31,586.39,1296.66,585.36Z" transform="translate(-1092.53 -498.49)"/><path class="cls-4" d="M1307.54,610.9a1.45,1.45,0,0,1,.73,1.64C1307.53,612.22,1306.58,612,1307.54,610.9Z" transform="translate(-1092.53 -498.49)"/><path class="cls-4" d="M1321.28,746.83l.06-2.05C1322.55,745.5,1322.65,746.19,1321.28,746.83Z" transform="translate(-1092.53 -498.49)"/><path class="cls-4" d="M1287.88,572.07l.14.16c-.08.46-.21.87-.81.8a.33.33,0,0,1-.22-.24C1287,572.19,1287.42,572.11,1287.88,572.07Z" transform="translate(-1092.53 -498.49)"/><path class="cls-4" d="M1295,583.9a1.46,1.46,0,0,1,1.43,1.25C1295.33,585.45,1294.92,585,1295,583.9Z" transform="translate(-1092.53 -498.49)"/><path class="cls-9" d="M1102.73,743.51c0-.41-.11-.83-.16-1.24.55,0,1.33-.31,1.42.5S1103.28,743.46,1102.73,743.51Z" transform="translate(-1092.53 -498.49)"/><path class="cls-9" d="M1102.51,739.89l-.12-.86.84.37Z" transform="translate(-1092.53 -498.49)"/><path class="cls-4" d="M1140.44,826.79l.13-.24-.15.22Z" transform="translate(-1092.53 -498.49)"/><path class="cls-14" d="M1231.05,608.45l1.55-.61c2.41,1.36,4.47-1,6.78-.67l1.5,2.25-.82,2.25c-2.23-.42-3.32.91-4.46,2.57s-.53,3.15-1,4.69c-1.65,5.6.18,11.38-.8,17.1a13.66,13.66,0,0,0,1.58,7.92,3.39,3.39,0,0,1-1.68,4.74c-2,1.09-3.09,2.76-2,5.27a5.58,5.58,0,0,1,0,3,14.82,14.82,0,0,0,2.73,10.84c1.28,1.91,1.17,3.24-.39,4.49-1.27,1-1.73,1.93-1,3.48,1.78,3.64-.66,7.2-.5,10.88.07,1.45-.48,3.15-.39,4.9.14,3,2.12,6.12,1,8.89-1.72,4.17-1.51,8.22-1,12.42.32,2.68,2.09,5.46-.77,7.92-.46.4-.37,1.69-.22,2.5.73,3.82-2,7.79.54,11.53.18.26-.13,1-.38,1.39-2.06,3.29-.71,4.76,2.7,5.17-.16,1.8.75,4.14-1.21,5.17-3.26,1.72-2.75,4.56-2.44,7.15.37,3.09,3.81,5.14,3.24,8.74-.09.54,1,.64,1.57.41,1.34-.49,2.66-.74,2.49,1.3-.15,1.8-1.36,2.15-3,1.57-2.36-.86-3.4.1-3.82,2.51a10.15,10.15,0,0,0,0,4c.49,2.43,1.14,3.56,3.56,1.66a6.46,6.46,0,0,1,5.39-.87c1.67.31,3.4,1.29,2.81,3.21s-1.93.4-3,0c-1.51-.66-2.27.54-3.14,1.39-.44.43-1,1-.5,1.59.76.84,1.84.47,2.81.29,4.89-.94,5.61-.34,5.69,4.77-1.88,1.23-4,.63-6,.66-6.49-3.68-9.05-9.7-10.28-16.69-.39-2.25.65-4.13.57-6.25-.33-8.21-.08-16.43-.29-24.65-.16-6.23-.94-12.48,0-18.87,1-6.71.16-13.69.26-20.55.18-12.36-.4-24.74.67-37.09.23-2.7.45-5.51-.63-8.14s.82-4.68,1-7.1c.45-5.44-2.13-10.79-.31-16.16,1.36-4,.12-8.2,1.37-12.19a3.1,3.1,0,0,0-1.26-3.65c-1.23-.72-2,.71-2.94,1.12-3,1.29-3.86,4.51-5.52,6.84-5,7.05-11,13.43-14.56,21.55-1.29,3-2.69,6.09-3,9.11-.44,4.27-5,6.66-4,11.78.44,2.21-1.33,5.83-2.15,8.78-3.23,11.49-3.45,23.47-4.28,35.23-.62,8.83-2.2,17.59-2.12,26.53.07,6.5-1.75,13-2.28,19.53-.44,5.45-2.13,10.71-2,16.21,0,2.7-1.45,5-2.41,7.32a22.42,22.42,0,0,0-2.09,9.74c-2.5,1.9-5.38,1.56-8.23,1.4.59-1.19,1.73-2.14,1.49-3.68-.57-3.75,2.89-7.47.1-11.29-.24-.32.14-1.19.37-1.75a16.08,16.08,0,0,0,.88-8.38l.19-1.92c4-2.08,2.85-5.83,2.91-9.13.07-4.39,3.35-8.3,1.85-12.93-.09-.27.54-.77.82-1.17a5.54,5.54,0,0,0,.24-6.78c0-.49,0-1,.07-1.46,3-1.54,3.36-6.82.73-10.54.08-1.23.17-2.46.26-3.69,1-.29,3,.67,2.35-1.64-.49-1.92.28-3.68.31-5.48,0-3.13,1.1-6.4-.66-9.43v-1.43c1.45-2.13,2.39-4.32.78-6.8l.16-1.47a1.45,1.45,0,0,0,1.36-1.45c.2-3.12.42-6.24.63-9.36l.09-1.19c2.69-.51,4.67-1.29,2.48-4.58-.42-.64,0-1.94.22-2.88.27-1.12.7-2.17-.44-3,.09-1.28-.43-2.68.67-3.78,2.29-1.37,2.83-3.74,3.11-6,.58-4.87,1.77-10.22,5.36-12.92,4.81-3.63,3.08-8.32,4.35-12.49,0-1.53,1.35-2.07,2.16-3,3.68-.76,3.94-4.21,5.35-6.76h0c2.8-.21,3.07-.51,2.05-2.33a4,4,0,0,1,2.4-2.93c3.22-.48,5.68-2,6.83-5.16a1.1,1.1,0,0,1,.61-.12C1226.85,611.25,1229.57,611.2,1231.05,608.45Z" transform="translate(-1092.53 -498.49)"/><path class="cls-5" d="M1218.9,656.74c-.32,1-.92,1.85-2,1.86s-2.1-.44-2.09-1.65c0-1.39,1.09-1.85,2.34-1.78A1.66,1.66,0,0,1,1218.9,656.74Z" transform="translate(-1092.53 -498.49)"/><path class="cls-15" d="M1240.88,609.42l-1.5-2.25a5.57,5.57,0,0,0,1.54-.78c1.86-1.95,5.75-.15,6.71-3.67l1.49-.05c1.64,2.09,2.32,1.83,3.76-1.42l1.48-.11c2.77,3.3,5.06,3.93,8.69,2.21,1.43-.68,2.73-1.17,4.07.07.2,1.12-.59,2.59.6,3.31.88.53,1.76-.3,2.4-1.06,1.52.3,2.15,2.11,3.78,2.23h0a6.46,6.46,0,0,0,3.76,6,1.23,1.23,0,0,1,.17.62c-.93,1.51-2.78,3-2,4.75.59,1.47,2.17-.29,3.34-.12.12,1.64.12,3.36,2.3,3.75,0,.39.06.79.08,1.19-.26,1.69,0,3.08,2,3.31-.15,1.74,2,2.66,1.61,4.47-1.29,1.26-.88,2,.74,2.27,0,.4.07.8.1,1.2-.13,1.18-.34,2.4,1.4,2.54.29.48.57,1,.85,1.44-1.41,1-.7,2.52-.88,3.81-1.48,0-3.11-.24-3,2.12.11,2,1.34,2.42,3,2.38,1,0,2,0,2.95,0a1.35,1.35,0,0,0,1.58,1.46l0,0c1.24,1.95-2.2,4.11.3,6a11.54,11.54,0,0,1,4,6.49c.28,1,.67,1.86,2,1.68.24.49.49,1,.74,1.47-.58.33-1.18.92-.61,1.43,3.37,3,2.55,6.93,2.57,10.67,0,2.16.81,3.32,3.15,2.83l0,.08c-.11,1.14.45,1.6,1.53,1.55l.75,1.47c-1,.52-.88,1.45-.89,2.33-.63.37-1.45.73-1.16,1.61s1.23.55,1.91.65h2.26c0,.88.09,1.76.13,2.63,0,2.77-.18,5.56,2.81,7.12a.74.74,0,0,1,.14.54,16,16,0,0,0,.31,4.3c.27,1.41-.77,3.28,1.81,3.4,0,.5.09,1,.13,1.48-1.53.06-1.63,1.11-1.59,2.26.24,2.84-1.74,3.67-3.89,4.62-3.7,1.64-4.06,3-2,6.39,1.35,2.25-.08,3.27-1.79,3.9-2.47.92-2.63,2.6-1.42,4.36a7.58,7.58,0,0,1,1,3.47.65.65,0,0,1,0,.51c-4.38.83-7.64,5.13-7.5,9.9a5.15,5.15,0,0,1-2.16,2.15c-2,1-4.19,1.88-4.66,4.5l-.58.64c-3.22.24-1.9,2.3-1.59,4l-1.41,2.16c-4.64-.14-4.64-.14-3.08,3.86a55.93,55.93,0,0,1-8.94,11.87c-3.86-.27-6.64.86-6.88,5.29l-.23.07-.23-.06c-1.46.2-3.48-1.17-4.05,1.48l-2.95.85c-.15-1.18.17-2.88-1.57-2.85s-1.38,1.72-1.54,2.9h-1.3c-.2-.52-.08-1.29-.89-1.34-.19,0-.58.43-.59.67,0,1,.73,1.08,1.47,1.16-1.31,3.7-4.41,3.18-7.33,3.12-1.11-.16-1.74.29-1.79,1.45h-1.51c-.08-5.11-.8-5.71-5.69-4.77-1,.18-2,.55-2.81-.29-.51-.55.06-1.16.5-1.59.87-.85,1.63-2.05,3.14-1.39,1,.45,2.34,2,3,0s-1.14-2.9-2.81-3.21a6.46,6.46,0,0,0-5.39.87c-2.42,1.9-3.07.77-3.56-1.66a10.15,10.15,0,0,1,0-4c.42-2.41,1.46-3.37,3.82-2.51,1.63.58,2.84.23,3-1.57.17-2-1.15-1.79-2.49-1.3-.62.23-1.66.13-1.57-.41.57-3.6-2.87-5.65-3.24-8.74-.31-2.59-.82-5.43,2.44-7.15,2-1,1-3.37,1.2-5.16,1.25-.15,2.21-.59,2.1-2.06a.83.83,0,0,0-1-.77c-1.56.44-.83,1.82-1.05,2.83-3.4-.42-4.75-1.89-2.69-5.18.25-.4.56-1.13.38-1.39-2.55-3.74.19-7.71-.54-11.53-.15-.81-.24-2.1.22-2.5,2.86-2.46,1.09-5.24.77-7.92-.51-4.2-.72-8.25,1-12.42,1.15-2.77-.83-5.86-1-8.89-.09-1.75.46-3.45.39-4.9-.16-3.68,2.28-7.24.5-10.88-.76-1.55-.3-2.46,1-3.48,1.56-1.25,1.67-2.58.39-4.49a14.82,14.82,0,0,1-2.73-10.84,5.58,5.58,0,0,0,0-3c-1.13-2.51-.08-4.18,2-5.27a3.39,3.39,0,0,0,1.68-4.74,13.66,13.66,0,0,1-1.58-7.92c1-5.72-.85-11.5.8-17.1.45-1.54,0-3.18,1-4.69s2.23-3,4.46-2.57c0,.51,0,1,.07,1.52.22,1.34-.49,2.83.74,4.28a7,7,0,0,0,1.51-3.53C1244.54,611.38,1244.22,610.41,1240.88,609.42Zm45.9,83.6c.92-1.4,0-2.34-1.11-3a3,3,0,0,0-3.52.15c-1.35,1.06-.53,2.29,0,3.35.84,1.53.28,2.62-.91,3.57-.77.61-2,1.14-1.78,2.19.26,1.32,1.65.82,2.55.8,1.85,0,2.85,1.06,2.22,2.51-2,4.55,1.26,8.58,1,12.93-.09,1.29.82,2.06,2.28,1.22,2.71-1.55,3.59-4,2.44-6.68C1287.68,704.61,1287.41,698.84,1286.78,693Zm-18.37-73.77c-2.77-1.52-2.45-4.46-3.5-6.72-.39-.82-.92-1.53-1.93-1.47-.71,0-1,.57-1.06,1.26C1261.61,615.12,1265,619.15,1268.41,619.25Zm14.25,59.81v.06h.37c1.62,0,3.37.14,3.5-2.21,0-.84-.45-1.66-1.27-1.34-2,.78-4.45.46-5.88,2.36-.38.5.39,1.07,1.06,1.12S1281.92,679.06,1282.66,679.06Zm-18.84-42a1.78,1.78,0,0,0,1.67-1.62,1.66,1.66,0,0,0-1.74-1.94,1.6,1.6,0,0,0-1.74,1.57C1261.9,636.29,1262.62,636.89,1263.82,637.08Zm12.79,5.43c-1.07.12-1.25.81-1.18,1.6.11,1.21,1,1.63,2,1.76a1.12,1.12,0,0,0,1.35-1.32A2.51,2.51,0,0,0,1276.61,642.51Zm-33.52,52.71c2-1.1,3.51-1.18,3.66-3a.85.85,0,0,0-.87-1C1243.94,691.38,1243.74,692.87,1243.09,695.22Zm-1-65.52c-.11-1-.84-1.41-1.74-1.49s-1.56.1-1.61,1a1.58,1.58,0,0,0,1.48,1.76A1.53,1.53,0,0,0,1242.13,629.7Zm9,2.07a1.59,1.59,0,0,0-2-1.22c-.78.14-1.41.64-1.27,1.49a1.49,1.49,0,0,0,1.91,1.22A1.44,1.44,0,0,0,1251.13,631.77Zm12.91,26.7c-.1-.79-.45-1.48-1.28-1.55-1.06-.09-1.52.68-1.53,1.63a1.42,1.42,0,0,0,1.25,1.55C1263.55,660.19,1263.92,659.4,1264,658.47ZM1238.5,706a1,1,0,0,0-.93-1.26,1.43,1.43,0,0,0-1.64,1.09,1.16,1.16,0,0,0,1.14,1.49C1237.92,707.4,1238.32,706.77,1238.5,706Zm-2.1-54.42a5.11,5.11,0,0,0-1.3-.71c-.4-.1-1.18,0-1.28.29-.36.88.29,1.33,1,1.57C1235.37,652.9,1235.81,652.74,1236.4,651.58Zm18.77-32.16a1.19,1.19,0,0,0-1.24,1.08c-.07.57.43.84.94.85s1.33.09,1.4-.75S1255.84,619.54,1255.17,619.42Zm38,98.22a.92.92,0,0,0-1-.89.89.89,0,0,0-1,.88.92.92,0,0,0,1.14,1C1293,718.6,1293.17,718.15,1293.2,717.64Zm-52.88-56.08c.77.05,1.17-.12,1.17-.74s-.21-1-.79-1-1.08.05-1,.7A3.14,3.14,0,0,0,1240.32,661.56ZM1266.84,648c-.22-.2-.5-.64-.89-.79s-.94.1-.94.72.21,1,.8,1S1266.78,648.93,1266.84,648Zm-19.22-36.37c.49.24.88.56,1,.47a1.93,1.93,0,0,0,.9-1c.16-.66-.41-.82-.88-.58S1248.05,611.19,1247.62,611.66Zm-9.11,121.44c-.4-.28-.64-.59-.89-.6s-.78.2-.83.4c-.17.6.3.83.79.79C1237.85,733.66,1238.1,733.37,1238.51,733.1Zm.79-31.69-1.07.81c.18.25.33.63.56.7.46.14,1,0,1-.61C1239.73,702,1239.47,701.73,1239.3,701.41Zm21.81-35.9c.28-.4.59-.64.6-.89s-.2-.78-.41-.84c-.59-.16-.82.31-.78.8C1260.55,664.85,1260.84,665.09,1261.11,665.51Zm-17.51,90.62c-.2-.09-.45-.29-.6-.23s-.19.38-.28.59c.2.08.45.29.6.23S1243.52,756.34,1243.6,756.13Zm24.56,13.14c.21.09.46.29.61.23s.19-.38.28-.58c-.21-.09-.46-.3-.6-.24S1268.25,769.06,1268.16,769.27Zm6.25-71.09-.27.62c.21.08.46.29.61.23s.19-.38.28-.59Zm-37-76.57c.21.09.46.3.61.24s.19-.38.28-.59c-.2-.09-.45-.29-.6-.23S1237.51,621.4,1237.42,621.61ZM1275.66,761c.2.09.45.3.6.24s.2-.38.29-.59c-.21-.09-.46-.29-.61-.24S1275.75,760.81,1275.66,761Zm-2.07-108.32c-.21-.09-.46-.29-.61-.23s-.19.38-.28.58c.21.09.46.3.61.24S1273.5,652.91,1273.59,652.7Zm-16.51,4.48c-.2-.09-.45-.29-.6-.23s-.2.38-.29.58c.21.09.46.3.61.24S1257,657.39,1257.08,657.18Z" transform="translate(-1092.53 -498.49)"/><path class="cls-14" d="M1304,731.83a7.58,7.58,0,0,0-1-3.47c-1.21-1.76-1-3.44,1.42-4.36,1.71-.63,3.14-1.65,1.79-3.9-2-3.42-1.69-4.75,2-6.39,2.15-1,4.13-1.78,3.89-4.62h2.25c0,.53,0,1-.08,1.58C1310.48,717.56,1308.24,725.19,1304,731.83Z" transform="translate(-1092.53 -498.49)"/><path class="cls-14" d="M1296.43,742.24c-.14-4.77,3.12-9.07,7.5-9.9C1301.32,735.56,1299.59,739.44,1296.43,742.24Z" transform="translate(-1092.53 -498.49)"/><path class="cls-14" d="M1267.13,776.67c.24-4.43,3-5.56,6.88-5.29C1272.67,774.39,1269.92,775.55,1267.13,776.67Z" transform="translate(-1092.53 -498.49)"/><path class="cls-14" d="M1289.61,748.89c.47-2.62,2.62-3.5,4.66-4.5C1294,747.2,1292.64,748.91,1289.61,748.89Z" transform="translate(-1092.53 -498.49)"/><path class="cls-14" d="M1283,759.51c-1.56-4-1.56-4,3.08-3.86A8.58,8.58,0,0,1,1283,759.51Z" transform="translate(-1092.53 -498.49)"/><path class="cls-14" d="M1256.56,779.06c.16-1.18-.17-2.88,1.54-2.9s1.42,1.67,1.57,2.85A2,2,0,0,1,1256.56,779.06Z" transform="translate(-1092.53 -498.49)"/><path class="cls-14" d="M1287.44,753.49c-.31-1.66-1.63-3.72,1.59-4C1290.66,751.72,1288.56,752.41,1287.44,753.49Z" transform="translate(-1092.53 -498.49)"/><path class="cls-14" d="M1262.62,778.16c.57-2.65,2.59-1.28,4.05-1.48C1265.92,778.82,1264.08,778,1262.62,778.16Z" transform="translate(-1092.53 -498.49)"/><path class="cls-14" d="M1255.25,779.55c-.74-.08-1.51-.18-1.47-1.16,0-.24.4-.68.59-.67.81,0,.69.82.89,1.34A1.6,1.6,0,0,1,1255.25,779.55Z" transform="translate(-1092.53 -498.49)"/><path class="cls-14" d="M1246.13,784.12c0-1.16.68-1.61,1.79-1.45A1.62,1.62,0,0,1,1246.13,784.12Z" transform="translate(-1092.53 -498.49)"/><path class="cls-13" d="M1136,784.79l0,2.19-1.24-.15a1.46,1.46,0,0,1,.34-2Z" transform="translate(-1092.53 -498.49)"/><path class="cls-2" d="M1169.77,792.34c-1.27-1.12-.39-1.36.63-1.55l1.29-.31c0,.33,0,.67,0,1Z" transform="translate(-1092.53 -498.49)"/><path class="cls-11" d="M1136.8,753.27c2.41,1.71.84,5.19,3.18,7.16.42.36-2,1-3.31,1.13C1136.71,758.8,1136.75,756,1136.8,753.27Z" transform="translate(-1092.53 -498.49)"/><path class="cls-11" d="M1136.14,749.52c1.16-2.18.17-4.58.73-6.82,1.9,2.46,1.85,6.95-.1,9.13C1135.81,751.26,1136,750.37,1136.14,749.52Z" transform="translate(-1092.53 -498.49)"/><path class="cls-11" d="M1136.52,765.29a5,5,0,0,1,0,6.05A6.65,6.65,0,0,1,1136.52,765.29Z" transform="translate(-1092.53 -498.49)"/><path class="cls-13" d="M1136,780.35c-.06.73-.12,1.45-.17,2.17l-.84.05c-.53-1.65-1.41-3.37.75-4.59.09.51.18,1,.28,1.51C1136,779.78,1136,780.07,1136,780.35Z" transform="translate(-1092.53 -498.49)"/><path class="cls-11" d="M1136.5,774.29c1.41,1.09,1.13,1.84-.47,2.31A2,2,0,0,1,1136.5,774.29Z" transform="translate(-1092.53 -498.49)"/><path class="cls-11" d="M1135,782.57l.84-.05c1,.67,1.11,1.42.21,2.27h-.87Z" transform="translate(-1092.53 -498.49)"/><path class="cls-11" d="M1171.69,790.48l-1.29.31c-.07-2.27,1.69-4.41.26-6.92-.21-.38,2.1-2,1.78-4.32a35.13,35.13,0,0,1,3.19-19.87c.39-.84.73-1.57,1.65-1.85,1.38,1.28-.37,2.49-.08,3.74l-.18,1.93c-1.62.68-2.06,2.12-2.17,3.64-.52,7.11-1,14.23-1.47,21.34Z" transform="translate(-1092.53 -498.49)"/><path class="cls-6" d="M1173.38,788.48c.49-7.11.95-14.23,1.47-21.34.11-1.52.55-3,2.17-3.64a16.17,16.17,0,0,1-.89,8.37c-.23.56-.61,1.43-.37,1.75,2.79,3.82-.67,7.54-.1,11.29.24,1.54-.9,2.49-1.49,3.68Z" transform="translate(-1092.53 -498.49)"/><path class="cls-13" d="M1142.4,652c.06-.94.12-1.88.19-2.82,1.53-2.2.6-4.59.56-6.91.06-1.2.11-2.4.17-3.6l2.52-.77.06,1.36c-.19.93-.33,1.85.67,2.45.47,3.3-.92,6.44-.79,9.7-1.15.88-.76,2-.58,3.17l-.18,1.33c-.71.32-1.64,1-1.41,1.53,1.38,3.56-.66,7-.08,10.55l-.09,9.65a1.2,1.2,0,0,0-.45,1.69l-.24,2.81c-1,.55-.85,1.45-.72,2.34,0,1.93,0,3.86.07,5.79l0,3.26c-.29,2-.57,3.9-.86,5.85-.85.48-.87,1,0,1.52l0,1.47c-2.9,3.78-1.4,8-1.31,12.15q-.45,2.57-.89,5.13l-2.24-.12c.17-3,.33-5.93.5-8.9,1.15-.92,1.13-1.93.2-3,0-.5,0-1,0-1.51.66-1.69,2.33-3.25.66-5.23l-.09-3.75a1.25,1.25,0,0,0,.63-1.64q.43-6.68.88-13.35c.8-.46.82-1,.07-1.5,0-.5,0-1,0-1.5-.06-1,3-1.55.46-3q.84-6.35,1.67-12.69L1142,662c0-1-.07-2-.1-3s0-2,.08-3c0-.76-.08-1.52-.13-2.28A1.23,1.23,0,0,0,1142.4,652Z" transform="translate(-1092.53 -498.49)"/><path class="cls-11" d="M1136.82,719.5l2.24.12c1.37,3.81.57,7.75.4,11.6-.08,1.9-.63,3.84-.55,5.81.06,1.56-.49,2.62-2.16,2.86.07-2.07-1-2.6-2.86-2.17.21-1.6-1.41-3.69,1.24-4.63,2.73.35,2.8-1.75,3-3.46.2-2.07.05-4.17.06-6.25.17-1.24,0-2.23-1.53-2.38Z" transform="translate(-1092.53 -498.49)"/><path class="cls-11" d="M1145.84,637.87l-2.52.77a49,49,0,0,1,.11-11.09c0-.63.14-1.3.91-1.41,1-.14,1.19.58,1.31,1.37C1146.15,631,1146.62,634.4,1145.84,637.87Z" transform="translate(-1092.53 -498.49)"/><path class="cls-11" d="M1140,714.49c-.09-4.11-1.59-8.37,1.31-12.15l.67.2C1141,706.47,1142.15,710.76,1140,714.49Z" transform="translate(-1092.53 -498.49)"/><path class="cls-6" d="M1138.15,723.38c0,2.08.14,4.18-.06,6.25-.16,1.71-.23,3.81-3,3.46l.06-1.5c1.61-2.62.39-5.5.76-8.23a3.41,3.41,0,0,1,.57-.16Z" transform="translate(-1092.53 -498.49)"/><path class="cls-11" d="M1143.53,668c-.58-3.51,1.46-7,.08-10.55-.23-.58.7-1.21,1.41-1.53C1146.2,660.12,1146.1,664.19,1143.53,668Z" transform="translate(-1092.53 -498.49)"/><path class="cls-11" d="M1136,723.36c-.37,2.73.85,5.61-.76,8.23C1134.37,728.74,1133.54,725.9,1136,723.36Z" transform="translate(-1092.53 -498.49)"/><path class="cls-11" d="M1143.15,642.24c0,2.32,1,4.71-.56,6.91C1141.81,646.76,1141.09,644.39,1143.15,642.24Z" transform="translate(-1092.53 -498.49)"/><path class="cls-11" d="M1138.19,700.86c1.67,2,0,3.54-.66,5.23C1134.5,703.94,1138.16,702.63,1138.19,700.86Z" transform="translate(-1092.53 -498.49)"/><path class="cls-11" d="M1140.13,676.16c2.59,1.41-.52,1.94-.46,3C1138.36,677.91,1139.13,677,1140.13,676.16Z" transform="translate(-1092.53 -498.49)"/><path class="cls-11" d="M1142,655.92c0,1-.06,2-.08,3-1-.17-2.05-.49-1.89-1.75C1140.12,656.2,1141,655.94,1142,655.92Z" transform="translate(-1092.53 -498.49)"/><path class="cls-11" d="M1146.57,641.68c-1-.6-.86-1.52-.67-2.45.79.22,1.84.1,1.88,1.33C1147.81,641.33,1147.18,641.53,1146.57,641.68Z" transform="translate(-1092.53 -498.49)"/><path class="cls-11" d="M1137.52,707.6c.93,1.07,1,2.08-.2,3C1136.48,709.54,1136.31,708.53,1137.52,707.6Z" transform="translate(-1092.53 -498.49)"/><path class="cls-11" d="M1142.13,693.5l0-3.26C1144,691.31,1144,692.4,1142.13,693.5Z" transform="translate(-1092.53 -498.49)"/><path class="cls-11" d="M1145.2,654.55c-.18-1.12-.57-2.29.58-3.17C1146.74,652.65,1146.78,653.75,1145.2,654.55Z" transform="translate(-1092.53 -498.49)"/><path class="cls-11" d="M1142,684.45c-.13-.89-.25-1.79.72-2.34C1143.85,683.31,1143.45,684,1142,684.45Z" transform="translate(-1092.53 -498.49)"/><path class="cls-13" d="M1138.15,723.38l-1.63-.18c0-.73.06-1.47.1-2.2C1138.13,721.15,1138.32,722.14,1138.15,723.38Z" transform="translate(-1092.53 -498.49)"/><path class="cls-11" d="M1142,662l-.18,1.52c-.54-.17-1.22-.31-1-1.05C1140.93,662.16,1141.58,662.1,1142,662Z" transform="translate(-1092.53 -498.49)"/><path class="cls-11" d="M1141.23,700.87c-.83-.53-.81-1,0-1.52C1142,699.87,1141.94,700.38,1141.23,700.87Z" transform="translate(-1092.53 -498.49)"/><path class="cls-11" d="M1138.73,695.47a1.25,1.25,0,0,1-.63,1.64C1137,696.08,1138,695.8,1138.73,695.47Z" transform="translate(-1092.53 -498.49)"/><path class="cls-11" d="M1142.4,652a1.23,1.23,0,0,1-.57,1.67C1140.91,652.71,1141.61,652.33,1142.4,652Z" transform="translate(-1092.53 -498.49)"/><path class="cls-11" d="M1139.68,680.62c.75.53.73,1-.07,1.5C1138.92,681.59,1139,681.09,1139.68,680.62Z" transform="translate(-1092.53 -498.49)"/><path class="cls-11" d="M1143,679.3a1.2,1.2,0,0,1,.45-1.69C1144.52,678.5,1143.79,678.91,1143,679.3Z" transform="translate(-1092.53 -498.49)"/><path class="cls-11" d="M1136,780.35c0-.28,0-.57,0-.86l.91.45Z" transform="translate(-1092.53 -498.49)"/><path class="cls-11" d="M1192,663.33c-1.1,1.1-.58,2.5-.67,3.78-2.39,3.15-.84,7.15-2.26,10.51l-.09,1.19c-.82.32-2.06.75-1.82,1.6.91,3.13-1.08,6.14-.17,9.21l-.15,1.47a3.82,3.82,0,0,0-.68.06l-.21-.23c-2.76-5.84.5-11.23,1.18-16.83.66-5.41,1.64-10.9,3.76-15.71,2.71-6.16,1.93-14.08,8.58-18.39l.25.24c-.39,1.15-.52,2.51-1.23,3.43C1194.06,649.48,1194.19,656.78,1192,663.33Z" transform="translate(-1092.53 -498.49)"/><path class="cls-6" d="M1177.2,761.57c-.29-1.25,1.46-2.46.08-3.74l.12-1.27a2,2,0,0,0,1.19-2.08c0-3.27-.29-6.57,1.37-9.63a1.68,1.68,0,0,0-.43-2l-.06-.78a1.56,1.56,0,0,0,0-.68c0-.26.08-.53.13-.8.81-.86.53-2,.63-3a1.6,1.6,0,0,0,.09-.53c2.26-1.18.58-4.26,2.67-5.53a5.54,5.54,0,0,1-.24,6.78c-.28.4-.91.9-.82,1.17,1.5,4.63-1.78,8.54-1.85,12.93C1180.05,755.74,1181.17,759.49,1177.2,761.57Z" transform="translate(-1092.53 -498.49)"/><path class="cls-11" d="M1184.08,715.87c-.09,1.23-.18,2.46-.26,3.69l-1.41,2.28h-.81c.44-9.1,2.29-18.07,2.43-27.2,0-1.34.26-3,2-3.72l.21.23c.48,2.25-1.33,4.47-.11,6.74v1.43Q1185.08,707.6,1184.08,715.87Z" transform="translate(-1092.53 -498.49)"/><path class="cls-11" d="M1179.53,742.83a1.68,1.68,0,0,1,.43,2c-1.66,3.06-1.38,6.36-1.37,9.63a2,2,0,0,1-1.19,2.08l-.27-1.71c0-.53,0-1.07,0-1.6.17-3-.21-5.92.76-8.82C1178.16,743.48,1178.49,742.88,1179.53,742.83Z" transform="translate(-1092.53 -498.49)"/><path class="cls-11" d="M1183,731.56c-2.09,1.27-.41,4.35-2.67,5.53-.07-.57-.13-1.15-.19-1.72s0-1,0-1.56a4.55,4.55,0,0,0,.68-3l.09-5.21,1.39-1.48c1.69,1.82-1.28,4.23.76,6Z" transform="translate(-1092.53 -498.49)"/><path class="cls-9" d="M1182.33,724.09l-1.39,1.48c-2-1.64-3-3.1.66-3.73h.81C1182.39,722.59,1182.36,723.34,1182.33,724.09Z" transform="translate(-1092.53 -498.49)"/><path class="cls-9" d="M1180.85,730.78a4.55,4.55,0,0,1-.68,3,2.4,2.4,0,0,1-1.79-1.06c-.53-.6-1.56-1-.92-2,.52-.81,1.29-.05,2,0C1179.89,730.78,1180.37,730.77,1180.85,730.78Z" transform="translate(-1092.53 -498.49)"/><path class="cls-11" d="M1180.26,737.62c-.1,1,.18,2.09-.63,3-2.83-.19-.64-2-1-3Z" transform="translate(-1092.53 -498.49)"/><path class="cls-9" d="M1177.09,753.25c0,.53,0,1.07,0,1.6-.66-.17-1.76.23-1.78-.77S1176.45,753.45,1177.09,753.25Z" transform="translate(-1092.53 -498.49)"/><path class="cls-9" d="M1180.26,737.62l-1.58,0a2.15,2.15,0,0,1,1.48-2.22c.06.57.12,1.15.19,1.72A1.6,1.6,0,0,1,1180.26,737.62Z" transform="translate(-1092.53 -498.49)"/><path class="cls-11" d="M1179.5,741.37a1.56,1.56,0,0,1,0,.68l-.49-.35Z" transform="translate(-1092.53 -498.49)"/><path class="cls-7" d="M1103.08,700c0,.56.05,1.11.08,1.66-1,3.42.95,7.13-1.07,10.44-1.42-4.27-1.2-8.9-.81-13.05.45-4.89.83-9.77,1-14.68,0-1.15-.47-2.59,1.3-3,.76,4.51,0,9,.32,13.57C1103.2,696.55,1102.58,698.18,1103.08,700Z" transform="translate(-1092.53 -498.49)"/><path class="cls-7" d="M1107.28,651.34a13.3,13.3,0,0,1-.73,6.55c-2,6-.75,12.24-2,18.25-1.68-3.91-.94-8-.66-12s1.45-8,2.32-11.95C1106.25,651.84,1106.9,651.62,1107.28,651.34Z" transform="translate(-1092.53 -498.49)"/><path class="cls-7" d="M1108.63,640.07c-.16,2.35-1.52,4.46-1.35,6.87C1105.28,644.63,1105.75,642.27,1108.63,640.07Z" transform="translate(-1092.53 -498.49)"/><path class="cls-7" d="M1102.36,720.29l-.84.82c-1.14-2.12-1.78-4.21.44-6.09C1102.09,716.78,1102.22,718.54,1102.36,720.29Z" transform="translate(-1092.53 -498.49)"/><path class="cls-7" d="M1104.19,677.56c.26.86.38,1.69-.51,2.3C1102.57,678.81,1102.77,678.05,1104.19,677.56Z" transform="translate(-1092.53 -498.49)"/><path class="cls-7" d="M1109.44,637.09a1,1,0,0,1-.44,1.56C1107.87,637.77,1108.45,637.38,1109.44,637.09Z" transform="translate(-1092.53 -498.49)"/><path class="cls-9" d="M1308.49,690c0-.87-.09-1.75-.13-2.63.19-1.55-.73-2.85-1-4.28l.39-.25c.53.28,1.49.49,1.55.84.94,5.77,4.33,10.79,5.06,16.61a7.47,7.47,0,0,1-.1,1.48c-2.29-.45-.35-3.77-2.79-4.11a.78.78,0,0,0-.13-.54A8.84,8.84,0,0,0,1308.49,690Z" transform="translate(-1092.53 -498.49)"/><path class="cls-6" d="M1311.44,697.65c2.44.34.5,3.66,2.79,4.11.13.7.27,1.4.4,2.1-.79.18-.9.86-1.07,1.49-2.58-.12-1.54-2-1.81-3.4A16,16,0,0,1,1311.44,697.65Z" transform="translate(-1092.53 -498.49)"/><path class="cls-6" d="M1192,663.33c2.16-6.55,2-13.85,6.49-19.67.71-.92.84-2.28,1.23-3.43,2.87-2.07,2.2-6.3,5.1-8.35-1.27,4.17.46,8.86-4.35,12.49-3.59,2.7-4.78,8-5.36,12.92C1194.86,659.59,1194.32,662,1192,663.33Z" transform="translate(-1092.53 -498.49)"/><path class="cls-6" d="M1273.9,607.9c-1.63-.12-2.26-1.93-3.78-2.23.23-2.38-1.39-2.31-3-2.25-1.34-1.24-2.64-.75-4.07-.07-3.63,1.72-5.92,1.09-8.69-2.21,5.56-1,11-.12,16.5.78.24.26.47.53.7.79C1271.89,604.65,1274,605.79,1273.9,607.9Z" transform="translate(-1092.53 -498.49)"/><path class="cls-6" d="M1247.63,602.72c-1,3.52-4.85,1.72-6.71,3.67a5.57,5.57,0,0,1-1.54.78c-2.31-.3-4.37,2-6.78.67C1237.1,604.63,1242.37,603.69,1247.63,602.72Z" transform="translate(-1092.53 -498.49)"/><path class="cls-6" d="M1212.36,622.12c-1.41,2.55-1.67,6-5.35,6.76C1208,626,1209.49,623.51,1212.36,622.12Z" transform="translate(-1092.53 -498.49)"/><path class="cls-6" d="M1223.64,611.71c-1.15,3.21-3.61,4.68-6.83,5.16A16.56,16.56,0,0,1,1223.64,611.71Z" transform="translate(-1092.53 -498.49)"/><path class="cls-6" d="M1231.05,608.45c-1.48,2.75-4.2,2.8-6.8,3.14C1226.12,609.67,1228.65,609.2,1231.05,608.45Z" transform="translate(-1092.53 -498.49)"/><path class="cls-6" d="M1252.88,601.25c-1.44,3.25-2.12,3.51-3.76,1.42A4.06,4.06,0,0,1,1252.88,601.25Z" transform="translate(-1092.53 -498.49)"/><path class="cls-6" d="M1214.41,619.8c1,1.82.75,2.12-2.05,2.33Z" transform="translate(-1092.53 -498.49)"/><path class="cls-2" d="M1164.25,552.06c1,3,.48,5.28-2.78,6.4A8.83,8.83,0,0,1,1164.25,552.06Z" transform="translate(-1092.53 -498.49)"/><path class="cls-2" d="M1161.42,560l.66.88A.74.74,0,0,1,1161.42,560Z" transform="translate(-1092.53 -498.49)"/><path class="cls-6" d="M1298.14,663.28c-1.3.18-1.69-.64-2-1.68a11.54,11.54,0,0,0-4-6.49c-2.5-1.92.94-4.08-.3-6,2.26.43,1.57,2.53,2,3.87.52,1.56.82,3,2.56,3.69,0,.46.09.93.13,1.39a2.69,2.69,0,0,0,1.47,3.06Z" transform="translate(-1092.53 -498.49)"/><path class="cls-14" d="M1290.35,647.64c-1,0-2,0-2.95,0-1.68,0-2.91-.39-3-2.38-.13-2.36,1.5-2.1,3-2.12l3,1.5c0,.4.07.8.11,1.21Z" transform="translate(-1092.53 -498.49)"/><path class="cls-14" d="M1279.11,619.16c-1.17-.17-2.75,1.59-3.34.12-.73-1.8,1.12-3.24,2-4.75a5.21,5.21,0,0,1,2,3.88Z" transform="translate(-1092.53 -498.49)"/><path class="cls-6" d="M1277.65,613.91a6.46,6.46,0,0,1-3.76-6C1277.25,608.58,1276.38,611.92,1277.65,613.91Z" transform="translate(-1092.53 -498.49)"/><path class="cls-6" d="M1290.39,644.64l-3-1.5c.18-1.29-.53-2.8.88-3.81C1288.72,641.2,1290.45,642.56,1290.39,644.64Z" transform="translate(-1092.53 -498.49)"/><path class="cls-6" d="M1279.11,619.16l.75-.75c1.45,1.18,1.61,2.8,1.55,4.5C1279.23,622.52,1279.23,620.8,1279.11,619.16Z" transform="translate(-1092.53 -498.49)"/><path class="cls-6" d="M1283.54,627.41c-2.09-.23-2.31-1.62-2-3.31A3.34,3.34,0,0,1,1283.54,627.41Z" transform="translate(-1092.53 -498.49)"/><path class="cls-6" d="M1290.35,647.64l.15-1.79c1.63.57,1.32,2,1.42,3.25A1.35,1.35,0,0,1,1290.35,647.64Z" transform="translate(-1092.53 -498.49)"/><path class="cls-6" d="M1287.39,637.89c-1.74-.14-1.53-1.36-1.4-2.54C1287.24,635.76,1287.41,636.77,1287.39,637.89Z" transform="translate(-1092.53 -498.49)"/><path class="cls-6" d="M1285.89,634.15c-1.62-.3-2-1-.74-2.27A2.32,2.32,0,0,1,1285.89,634.15Z" transform="translate(-1092.53 -498.49)"/><path class="cls-2" d="M1133.75,549.47a1.9,1.9,0,0,1,1.18-1.58c.61,0,1.21,0,1.81.07.91.09,2.23-.12,1.92,1.38-.24,1.18-1.26.65-2.07.48S1134.7,549.58,1133.75,549.47Z" transform="translate(-1092.53 -498.49)"/><path class="cls-11" d="M1298.08,661.09a2.69,2.69,0,0,1-1.47-3.06C1298.07,658.59,1300.05,658.9,1298.08,661.09Z" transform="translate(-1092.53 -498.49)"/><path class="cls-11" d="M1301.57,665.5c0,.29,0,.59,0,.88l-.7-.77A5.07,5.07,0,0,1,1301.57,665.5Z" transform="translate(-1092.53 -498.49)"/><path class="cls-6" d="M1307.33,683.08c.3,1.43,1.22,2.73,1,4.28h-2.26c0-.83.13-1.71-.75-2.26,0-.88-.08-1.81.89-2.33Z" transform="translate(-1092.53 -498.49)"/><path class="cls-6" d="M1305.49,681.31c-1.08.05-1.64-.41-1.53-1.55C1305,679.78,1305.31,680.47,1305.49,681.31Z" transform="translate(-1092.53 -498.49)"/><path class="cls-6" d="M1314.35,709.1h-2.25c0-1.15.06-2.2,1.59-2.26C1314.5,707.42,1314.37,708.28,1314.35,709.1Z" transform="translate(-1092.53 -498.49)"/><path class="cls-6" d="M1184.08,715.87q1-8.28,2-16.55c1.76,3,.71,6.3.66,9.43,0,1.8-.8,3.56-.31,5.48C1187,716.54,1185.05,715.58,1184.08,715.87Z" transform="translate(-1092.53 -498.49)"/><path class="cls-6" d="M1182.33,724.09c0-.75.06-1.5.08-2.25l1.41-2.28c2.63,3.72,2.27,9-.73,10.54C1181.05,728.32,1184,725.91,1182.33,724.09Z" transform="translate(-1092.53 -498.49)"/><path class="cls-6" d="M1189.1,677.62c1.42-3.36-.13-7.36,2.26-10.51,1.14.88.71,1.93.44,3-.22.94-.64,2.24-.22,2.88C1193.77,676.33,1191.79,677.11,1189.1,677.62Z" transform="translate(-1092.53 -498.49)"/><path class="cls-6" d="M1187,689.62c-.91-3.07,1.08-6.08.17-9.21-.24-.85,1-1.28,1.82-1.6-.21,3.12-.43,6.24-.63,9.36A1.45,1.45,0,0,1,1187,689.62Z" transform="translate(-1092.53 -498.49)"/><path class="cls-7" d="M1240.88,609.42c3.34,1,3.66,2,1.5,4.52l-2.25-.75c0-.51-.05-1-.07-1.52Z" transform="translate(-1092.53 -498.49)"/><path class="cls-6" d="M1186.08,697.89c-1.22-2.27.59-4.49.11-6.74a3.82,3.82,0,0,1,.68-.06C1188.47,693.57,1187.53,695.76,1186.08,697.89Z" transform="translate(-1092.53 -498.49)"/><path class="cls-14" d="M1286.78,693c.63,5.82.9,11.59,3.21,17,1.15,2.71.27,5.13-2.44,6.68-1.46.84-2.37.07-2.28-1.22.27-4.35-3-8.38-1-12.93.63-1.45-.37-2.55-2.22-2.51-.9,0-2.29.52-2.55-.8-.2-1,1-1.58,1.78-2.19,1.19-1,1.75-2,.91-3.57-.58-1.06-1.4-2.29,0-3.35a3,3,0,0,1,3.52-.15C1286.81,690.68,1287.7,691.62,1286.78,693Z" transform="translate(-1092.53 -498.49)"/><path class="cls-14" d="M1268.41,619.25c-3.41-.1-6.8-4.13-6.49-6.93.08-.69.35-1.23,1.06-1.26,1-.06,1.54.65,1.93,1.47C1266,614.79,1265.64,617.73,1268.41,619.25Z" transform="translate(-1092.53 -498.49)"/><path class="cls-14" d="M1282.66,679.06c-.74,0-1.48,0-2.22,0s-1.44-.62-1.06-1.12c1.43-1.9,3.9-1.58,5.88-2.36.82-.32,1.32.5,1.27,1.34-.13,2.35-1.88,2.19-3.5,2.21h-.37Z" transform="translate(-1092.53 -498.49)"/><path class="cls-6" d="M1308.49,690a8.84,8.84,0,0,1,2.82,7.12C1308.31,695.55,1308.44,692.76,1308.49,690Z" transform="translate(-1092.53 -498.49)"/><path class="cls-14" d="M1263.82,637.08c-1.2-.19-1.92-.79-1.81-2a1.6,1.6,0,0,1,1.74-1.57,1.66,1.66,0,0,1,1.74,1.94A1.78,1.78,0,0,1,1263.82,637.08Z" transform="translate(-1092.53 -498.49)"/><path class="cls-14" d="M1276.61,642.51a2.51,2.51,0,0,1,2.21,2,1.12,1.12,0,0,1-1.35,1.32c-1-.13-1.93-.55-2-1.76C1275.36,643.32,1275.54,642.63,1276.61,642.51Z" transform="translate(-1092.53 -498.49)"/><path class="cls-14" d="M1267.12,603.42c1.61-.06,3.23-.13,3,2.25-.64.76-1.52,1.59-2.4,1.06C1266.53,606,1267.32,604.54,1267.12,603.42Z" transform="translate(-1092.53 -498.49)"/><path class="cls-14" d="M1243.09,695.22c.65-2.35.85-3.84,2.79-4a.85.85,0,0,1,.87,1C1246.6,694,1245.05,694.12,1243.09,695.22Z" transform="translate(-1092.53 -498.49)"/><path class="cls-14" d="M1242.13,629.7a1.53,1.53,0,0,1-1.87,1.31,1.58,1.58,0,0,1-1.48-1.76c0-.94.84-1.1,1.61-1S1242,628.66,1242.13,629.7Z" transform="translate(-1092.53 -498.49)"/><path class="cls-14" d="M1251.13,631.77a1.44,1.44,0,0,1-1.31,1.49,1.49,1.49,0,0,1-1.91-1.22c-.14-.85.49-1.35,1.27-1.49A1.59,1.59,0,0,1,1251.13,631.77Z" transform="translate(-1092.53 -498.49)"/><path class="cls-14" d="M1264,658.47c-.12.93-.49,1.72-1.56,1.63a1.42,1.42,0,0,1-1.25-1.55c0-.95.47-1.72,1.53-1.63C1263.59,657,1263.94,657.68,1264,658.47Z" transform="translate(-1092.53 -498.49)"/><path class="cls-14" d="M1238.5,706c-.18.77-.58,1.4-1.43,1.32a1.16,1.16,0,0,1-1.14-1.49,1.43,1.43,0,0,1,1.64-1.09A1,1,0,0,1,1238.5,706Z" transform="translate(-1092.53 -498.49)"/><path class="cls-14" d="M1240.13,613.19l2.25.75a7,7,0,0,1-1.51,3.53C1239.64,616,1240.35,614.53,1240.13,613.19Z" transform="translate(-1092.53 -498.49)"/><path class="cls-14" d="M1234.11,741.34c.23-1-.5-2.39,1.06-2.83a.83.83,0,0,1,1,.77C1236.33,740.75,1235.37,741.19,1234.11,741.34Z" transform="translate(-1092.53 -498.49)"/><path class="cls-14" d="M1236.4,651.58c-.59,1.16-1,1.32-1.54,1.15-.75-.24-1.4-.69-1-1.57.1-.24.88-.39,1.28-.29A5.11,5.11,0,0,1,1236.4,651.58Z" transform="translate(-1092.53 -498.49)"/><path class="cls-14" d="M1255.17,619.42c.67.12,1.16.49,1.1,1.18s-.82.76-1.4.75-1-.28-.94-.85A1.19,1.19,0,0,1,1255.17,619.42Z" transform="translate(-1092.53 -498.49)"/><path class="cls-14" d="M1293.2,717.64c0,.51-.19,1-.79,1a.92.92,0,0,1-1.14-1,.89.89,0,0,1,1-.88A.92.92,0,0,1,1293.2,717.64Z" transform="translate(-1092.53 -498.49)"/><path class="cls-14" d="M1240.32,661.56a3.14,3.14,0,0,1-.61-1.06c-.09-.65.49-.75,1-.7s.79.49.79,1S1241.09,661.61,1240.32,661.56Z" transform="translate(-1092.53 -498.49)"/><path class="cls-14" d="M1305.35,685.11c.88.55.73,1.43.75,2.26-.68-.1-1.61.25-1.91-.65S1304.72,685.48,1305.35,685.11Z" transform="translate(-1092.53 -498.49)"/><path class="cls-14" d="M1266.84,648c-.06.9-.53,1-1,1s-.8-.5-.8-1,.43-.91.94-.72S1266.62,647.83,1266.84,648Z" transform="translate(-1092.53 -498.49)"/><path class="cls-14" d="M1247.62,611.66c.43-.47.67-.91,1-1.09s1-.08.88.58a1.93,1.93,0,0,1-.9,1C1248.5,612.22,1248.11,611.9,1247.62,611.66Z" transform="translate(-1092.53 -498.49)"/><path class="cls-14" d="M1238.51,733.1c-.41.27-.66.56-.93.59-.49,0-1-.19-.79-.79,0-.2.54-.41.83-.4S1238.11,732.82,1238.51,733.1Z" transform="translate(-1092.53 -498.49)"/><path class="cls-14" d="M1239.3,701.41c.17.32.43.61.44.9,0,.65-.49.75-1,.61-.23-.07-.38-.45-.56-.7Z" transform="translate(-1092.53 -498.49)"/><path class="cls-14" d="M1261.11,665.51c-.27-.42-.56-.66-.59-.93,0-.49.19-1,.78-.8.21.06.42.55.41.84S1261.39,665.11,1261.11,665.51Z" transform="translate(-1092.53 -498.49)"/><path class="cls-14" d="M1243.6,756.13c-.08.21-.13.53-.28.59s-.4-.15-.6-.23c.09-.21.13-.53.28-.59S1243.4,756,1243.6,756.13Z" transform="translate(-1092.53 -498.49)"/><path class="cls-14" d="M1268.16,769.26c.09-.2.14-.52.29-.58s.39.15.6.24c-.09.2-.14.52-.28.58S1268.37,769.36,1268.16,769.26Z" transform="translate(-1092.53 -498.49)"/><path class="cls-14" d="M1274.41,698.18l.62.26c-.09.21-.13.53-.28.59s-.4-.15-.61-.23Z" transform="translate(-1092.53 -498.49)"/><path class="cls-14" d="M1237.42,621.61c.09-.21.14-.52.29-.58s.4.14.6.23c-.09.21-.13.53-.28.59S1237.63,621.7,1237.42,621.61Z" transform="translate(-1092.53 -498.49)"/><path class="cls-14" d="M1275.65,761c.1-.21.14-.53.29-.59s.4.15.61.24c-.09.21-.14.53-.29.59S1275.86,761.11,1275.65,761Z" transform="translate(-1092.53 -498.49)"/><path class="cls-14" d="M1273.59,652.7c-.09.21-.13.53-.28.59s-.4-.15-.61-.24c.09-.2.13-.52.28-.58S1273.38,652.61,1273.59,652.7Z" transform="translate(-1092.53 -498.49)"/><path class="cls-14" d="M1257.08,657.18c-.09.21-.13.53-.28.59s-.4-.15-.61-.24c.09-.2.14-.53.29-.58S1256.88,657.09,1257.08,657.18Z" transform="translate(-1092.53 -498.49)"/></svg>