<svg id="图层_1" data-name="图层 1" xmlns="http://www.w3.org/2000/svg" viewBox="0 0 981.13 284.02"><defs><style>.cls-1{fill:#211c0f;}.cls-2{fill:#35d8b5;}.cls-3{fill:#39d7b5;}.cls-4{fill:#6fdac3;}.cls-5{fill:#6d6960;}.cls-6{fill:#97e5d4;}.cls-7{fill:#a9a8a2;}.cls-8{fill:#232729;}.cls-9{fill:#d9f5f1;}.cls-10{fill:#13160a;}.cls-11{fill:#154833;}.cls-12{fill:#b08a1f;}.cls-13{fill:#1c1e21;}.cls-14{fill:#21a67f;}</style></defs><path class="cls-1" d="M-965.58,525.61a.27.27,0,0,0,.1-.37.24.24,0,0,0-.1-.1l2.28-.11c5.6,1.38,6.54.73,6.17-4.59-.13-1.81.85-2.68,2-3.63,4.83-3.85,8.42-8.4,8.24-15,2.39-3.67,4.19-7.51,3.62-12.07.08-1.15.15-2.3.23-3.46,1.92-1.82,1.26-4.22,1.45-6.42a3.52,3.52,0,0,0,2.91-3.79,40.55,40.55,0,0,0-.17-6.33c-.85-5.34,1-10.2,3.33-14.61,1.39-2.69,2.29-5.07,2.13-8-.12-2,0-4.15,1.87-5.36,2.35-1.48,2.89-3.56,2.63-6.07h.05c2.87-.34,6.66,1.26,7.44-3.51a14.52,14.52,0,0,0,1.48-.1c9.16-.88,11.22.27,15.08,8.55.78,1.66,2.08,1.92,3.67,1.66l.18,1.75c.66,10.29.42,20.73,5.75,30.14,1.11,2,2.44,3.36,4.8,3.49,2.63.15,2.62-2.13,3.42-3.66l1.62-3.83c1.35.17,2.18-.72,3.06-1.51,2.68.06,5.42.2,5.19-3.76h0c4-.13,7.33-3.36,8.09-7.92.17-1,.61-2.37-.46-3.09s-1.76.53-2.63.91-1.82.74-2.73,1.11l-.7-.63c2.26-1.67,3.61-4.61,7.37-4,7.31,1.17,11.45,5.38,12,13a4.32,4.32,0,0,0,1.41,3.28l.15,2.62c-1,2.25-.69,4.64-.81,7-.25,4.9,1,9.93-1.37,14.68-.62,1.26,0,2.3,1.68,2.53,2.2.31,3.72,1.76,5,3.5a5.6,5.6,0,0,0,2.26,5.26c-.26,3.73-2.45,7-2.44,10.82,0,3.21,1.39,5.08,4.43,6,2.49.74,3.54-.61,3-2.59s-.44-4.2-1.14-6.17c-1.2-3.34.53-4.42,3.4-4.32a69.12,69.12,0,0,1,7,.92c1.3,3.22,2.45,5.74.59,9.89-3.65,8.15-1.6,17.21-1,25.91-2.17,0-4.77-.19-3.8,3.23,1.17,4.12,0,6.5-5.8,6.81,4.43,1.78,3.91,3.79,2.71,6.27-2,4.18-1.24,11.85,1.79,13.22,5.39,2.43,9.7,6.61,15.2,8.76.3,1.36,1.42,1.88,2.45,2.63,4.06,2.94,8.76,2.52,13.34,2.78,6.21.35,12.26,2.57,18.56,1.88,5.65-.62,11.28-2.5,16.92.07a3.9,3.9,0,0,0,1.86,0c17.49-1.59,34.91-4.23,52.55-3.68,1.67.06,3.32-.07,3.87-2.12l2.91-.35c1.65,1.44,3.48.86,5.34.58,5.12-.79,10.22-.93,15,1.55,4,2.06,4.38,4.22,1.51,7.55-2,2.25-2,4.15.51,5.94,1.37,1,2.1,2.26,1.23,3.86-1.2,2.22-1,4.58-1,6.94-.66,2.84-2.86,3.46-5.17,3-7.63-1.62-15,.28-22.44,1.23-5.44.69-10.3,3.76-15.92,3.34.77-2.22,2.31-4.12,2.61-6.56.18-1.42.36-2.95-.84-3.79-1.47-1-2.48.46-3.5,1.28-3.79,3-4.93,2.9-7.78-1-.6-.81-1.09-1.76-2.29-1.58a2.57,2.57,0,0,0-2.08,2.37c-.45,2.31-.73,4.66-1.08,7-1.45.75-3,1.67-4.6.81-7.3-3.82-15.24-2.14-22.77-1.95-7.78.2-15.42-.67-23-1.39-14.77-1.41-29.61-1.32-44.35-2.78-10.11-1-20.15.2-30.22,0-9.42-.13-18.84,1.16-28.27.07a14.08,14.08,0,0,0-9,2,12.84,12.84,0,0,1-7.14,1.68c-9.7,0-19.42-.32-29.11.1-5.74.25-11.53.52-17.08-.56-9.94-1.94-19.74-2.4-29.68-.42-6.93,1.38-13.81,3.47-21,1.68-1.58-.39-3.2.35-4.72.94-2.67,1-4,2.54-2,5.35a5.41,5.41,0,0,1,.81,3.21,8.34,8.34,0,0,1-4.53.84v-2.23c-.49-5.46-1.88-6.45-7.12-5a4.33,4.33,0,0,1-3.26-.08c-3.6-1.85-7.46-1.66-11.32-1.6-1.72-1.46-3.56-2.6-6-2.24-3-3.88-5.16-8.72-10.31-10.38-3.91-1.26-8-2.11-11.94-3.14-10.67-2.74-21.56-2.27-32.42-2.22a57.07,57.07,0,0,1-10.76-1.08c-6.73-1.27-13.52-2.92-20.38-2.45a243,243,0,0,1-42.22-.74c-7.19-.75-14.37-1.68-21.55-2.48-11.14-1.23-22.43-1.25-33.38-4.1a9.54,9.54,0,0,0-8.23,1.26,6.38,6.38,0,0,1-7.68.12c-3.84-2.56-4.65-2.36-7.06,1.55-.74,1.19-1.52,1.93-3,1.82a2.44,2.44,0,0,1-2.5-2.33c-.2-2.58-1.92-2.63-3.94-2.88-8.47-1-17-.55-25.44-.74.43-1.66,1.19-3.47-.82-4.6-2.43-1.38-5.27-2.26-7.7-.7s.3,3.5.34,5.32c-5.94.19-11.76,2.61-17.79.77-2.53-.77-5.2-.54-7.79-.81-4.36-.46-8.39,1-12.55,1.65-7.44,1.07-14.93.55-22.39,1.19-8.41.73-16.92,1.65-25.39.86-5.26-.5-10.44-1.07-15.58.4-3.72,1.05-7.25,1.82-10.52-1.22-.92-.85-2.39-.63-3.63-.55-4.34.28-8.42-.85-12.41-2.35-5.08-1.91-6.46-4.91-4.68-10,.41-1.17,1-2.28,1.49-3.43,6.11-.75,12.22-1.52,18.33-2.24,2-.24,4-.39,5-2.57l2.15-.23c1,2.56,3.15,2,5.12,2,2.39.44,2.39,2.55,3,4.25,1.92,5.77,7.11,9.61,12.5,9a17.81,17.81,0,0,0,11-5.66c6.66-1.72,13.27-3.41,20.11-.51,2.32,1,3.13-.77,3-2.84-.12-2.82-3.94-6.23-6.54-5.3-4,1.43-8.16.82-12.12,1.91a24.42,24.42,0,0,0-1.5-8.25c2-4.28,1.37-5.45-3.12-6.4-3-.64-5.63.63-8.38,1.36-4.24,1.12-5.57.21-5.72-4.08-.08-2.24-.07-4.49-.1-6.73,0-3,1.63-4.2,4.38-4.37,3.06-.19,5.81-1,7.78-3.6l1.23-.3,1.67.17c.73,4.88,3.13,6.06,7.84,4.36,5.66-2.05,11.63-5.44,16.27,2,.54.87,1.73,1.82,2.87,1.14s.16-1.81.14-2.75c0-1.11-.08-2.23-.13-3.35l3,.06c-.23,2.36,1,3.7,3,4.57,3.56,1.49,7.16,2.22,10.86.65a2.74,2.74,0,0,1,3.13.31c1.36,1.16,2.86,1.17,4.56.94,5-.69,10.1-2.66,14.6,1.5a2,2,0,0,0,1.3.09c.68-3.56,5.29-4.73,5.28-8.68,2.53.43,5.37.08,7.21,2.38,1.23,1.53,1.79,4.14,4.54,1.73.42-.37,1.22.24,1.43.86,1.11,3.21,3.31,2.23,5.46,1.46.17,1,0,2.21,1.15,2.53s1.52-1,2-1.76a4.79,4.79,0,0,1,3-2.12l1.38.12h.81c4.34.14,8.41.74,11.29,4.65,1.35,1.84,2.77,1.24,3.6-.78.24-.58.48-1.23,1.3-1a1,1,0,0,1,.68,1.18c-1,4.26,1.8,2.75,3.66,2.3,5.16-1.25,10.25-2.46,15.07,1.12a3.14,3.14,0,0,0,3.85-.24,10.55,10.55,0,0,1,9.26-1.35c3.5.92,7.08,2,10.7,1.36,4.66-.86,9.19-.24,13.75.48a34.87,34.87,0,0,0,9.68,0c5.42-.64,10.72-2.78,16.28-1.78,12.77,2.31,25.79,2.08,38.61,4.18,10.41,1.71,21.09,1.74,31.65,2.51,2.28-.34,4.89,2.06,6.86-.83h8.93c.15.79.08,1.95,1.19,1.83s.94-1.44,1.11-2.33h2.93a3.38,3.38,0,0,0,2.25,2.26c5.33,2.25,10.74,1.15,16.12.41,1.5-.2,1.8-1.52,1.89-2.83,1.84-3,4.84-2,7.5-2.22.19.47.42.92.57,1.39.9,2.72,1.93,4.94,5,1.84,1.06-1.07,2.26-.73,3.37.13.9.7,1.94,1.49,3,.38s0-2.07-.47-3c-.33-.67-.6-1.36-.9-2a13.72,13.72,0,0,0,6.8-1.51,3.57,3.57,0,0,1,3.53-.34c5.73,2.86,10.69-1.46,16.08-1.75,1.41-.07,2-1.67,2-3.16l3-.28c3.28,1.74,6.8.94,10.16.66,2.86-.23,5.58-1.08,8,1.25a2,2,0,0,0,2.75-.12c2.8-2.78,6.35-2.32,9.78-2.45,1.43,5,2,5.12,6.14,2.29,2.45-1.69,3.53-4.1,4.28-6.79v-2.07l.86-2.16,4.76-2.37c3-.46,3-2.25,2-4.5C-965.57,527.13-965.57,526.37-965.58,525.61Zm77.35,7.73c-.48-4.13-1.35-7.83-1.23-11.49.12-3.49-.16-4.51-3.63-4.29a23.7,23.7,0,0,0-11,3.23c-4.22,2.57-4.46,6.68-.65,9.76,3.44,2.78,7.49,4.42,11.55,6,3.71,1.43,5.1.33,5-3.21Zm16.39-3.67v1.87c0,3.7.83,4.12,4.15,2.29,4.81-2.64,6.38-7.36,7.8-12.15a3.11,3.11,0,0,0-1.54-3.52,13.63,13.63,0,0,0-6.14-2.59c-1.88-.22-4.19-.47-5.08,1.35s-2.07,4.14-.54,6.31C-871.78,525.19-871.75,527.41-871.84,529.67Zm-49.67-34.8a15.93,15.93,0,0,0,.29,2.57c.61,2.27,2,4,4.5,3.4,2.75-.62,1.35-2.94,1.25-4.59a7.1,7.1,0,0,0-.79-2.46c-.75-1.62-1.84-3.38-3.75-3-2.12.4-1.12,2.63-1.5,4.08Zm215.3,96.45c-.08-1.71-.85-2.77-2.55-2.54-2.06.28-4.37,1.45-4.54,3.26s2.39,2.24,4.08,2.31c1.92.08,2.81-1.29,3-3Zm-449-14.78c0,1.2-.14,2.61,1.33,2.7,2.39.14,2.51-2,2.87-3.58.27-1.18-.12-2.45-1.52-2.45-2.12,0-2.26,1.88-2.67,3.33Zm132.48,16.71a4.1,4.1,0,0,0-3.4,3.37c-.33,1.32,1,1.55,2,1.51,1.8-.09,3.49-.65,3.6-2.85.06-1.32-.85-1.94-2.19-2Zm176.63-49.63c0,1.19.51,1.92,1.55,1.74a3.66,3.66,0,0,0,3.08-3.31c.15-1-.36-1.93-1.42-1.64a4.81,4.81,0,0,0-3.2,3.21Z" transform="translate(1625.52 -395.78)"/><path class="cls-2" d="M-1607.23,571.38l3.29-1.06c1.53,2.38,3.67,3.73,6.49,3.06,2.14-.5,1.81-2.61,2.06-4.26,6.32-2.5,11.5-7.5,18.54-8.43a2.34,2.34,0,0,0,.93-.59c6.32-5.11,13.61-8.37,21.09-11.32,3-1.19,6.41-1,9.27-2.62,5.2-3,10.56-5.52,16.53-6.41a3.57,3.57,0,0,0,3.39-2.84l3.21-.45c3.49.46,6.77-.93,10.17-1.25,3.56.55,6.89-.57,10.28-1.39,7-1.67,13.72-4.33,21.11-3.86a6.72,6.72,0,0,0,6.86-3.65c1.45-.72,3-.41,4.55-.55,1.07,1.85,2.73,1.4,4.28,1,4.44-1.2,8.89-2.36,13.25-3.77,2.07-.67,4.42-1,5.85-3l4.34-.41c5.42,2.1,10.61,2.51,15.09-2.12l6.61-.94c5-.25,10.1-.45,15.14-.79,1.45-.1,3-.38,3.68-2l4.42-.22c.84.19,1.86.79,2.5.17,2.7-2.66,4.73-1.16,7.06.67,4,3.12,8.17,1.59,10.15-3.47,2.74-.72,5.82,1.28,8.19-.34a9.12,9.12,0,0,1,5.09-1.38c2.57,3.9,5.54,4.11,9,.65l14.16-.22c3.24,1.22,6.49,2.41,9.14-1.13,2.34-.14,4.45-.07,3.38,3.32a1.57,1.57,0,0,0,.8,1.91c1,.55,1.69,0,2.19-.78.8-1.18,1.7-2.19,3.23-2.24,6.36-.24,12.84.43,18.84-2.5,2.1,3.84,3,4.09,6,1.57l2.31.14a5.26,5.26,0,0,0,4.48,2.22c6.8.46,13.6,1.14,20.41,1.38,4.43.16,8.92.66,13.33-.45l4.49.8c1.17,2.48,3.49,2,5.54,2.09l30.22,2.08c8.46.59,16.82,2,25.3,2.58,9.21.61,18.41,1.23,27.63,1.62,13.82.59,27.5,3.33,41.4,2.81,2.48-.1,5,.28,7.47.32,9.73.15,19.45,1.72,29.16.84,5.82-.52,11.43.11,17.12.78,9.76,1.15,19.41,3.4,29.36,2.59a7.27,7.27,0,0,1,7.09,3.35c1.15,1.74,2.88,2.52,4.25.58,2.27-3.23,5.36-2.88,8.43-2.36a207.34,207.34,0,0,0,21.5,2.84c2,.12,3.7.72,4.31,2.91-6,2.89-12.68,2-19,3-2.42.39-4.69.72-5.84,3.25-1.81-.52-3.52.06-5.23.5-7.93-2.74-15.24-1.71-21.87,3.53l-3.63.18c-4.6-1.26-9-1.37-12.73,2.25l-2.18.18c-4.17,0-8.36-.29-12.51,0-2.66.2-5.72-.37-7.83,2.11-5.34.31-10.79,1.45-16,.74a181.53,181.53,0,0,0-29.1-1.49c-2,0-4.36.19-5.92-1.59s-3.31-1.93-5.29-2.42c-4-1-8.31.45-12.23-1.14-2.88-1.17-5.4-.78-8.27.32A20.21,20.21,0,0,1-1175,546c-1.6-.57-2.74-.91-4.07.18a4.49,4.49,0,0,1-2.74,1c-4.47.22-9,.58-13.41.36-9.16-.47-18.47.52-27.51-1.9-4.31-3.66-9.54-2.62-14.52-2.82-1.34,0-2.79-.07-3.51,1.49l-3.64-.14c-7-5.83-15-5.79-23.36-4.25l-3.68-.16c-2.18-3.66-3.49-4.09-7.15-2.32l-4.16-.66c-2.71-3.23-3.44-3.27-6-.39l-9.71-1c-2.84-2.93-4.89-3.07-9.82-.65l-2.9.25c-2.33-2.5-4.6-2.56-6.8.16-2.3-.16-4.61-.29-6.91-.49-1.43-.12-2.36.33-2.52,1.87h-2c-1.75-3-3.74-2.06-5.78-.35-2-.87-4-.27-6,0-2.42-2-4.52.68-6.82.47l-5.16-1.27c-3.54-3.21-8-3.26-11.28-.11l-5.14-1c-4.79-4-12.09-2.28-16,3.72l-2.74.42c-5.41-.1-8.35,1.44-8.72,6-.8,9.7-4.47,17.38-13.25,22.16a15.13,15.13,0,0,0-5.8-.4c-1.76-1.44-3.32-1.52-4.56.65-2.57.26-5.19.33-7.71.84-5.16,1-10.69.15-15.49,3-1.22-.33-2.51-.77-3.65-.07-3.92,2.41-8.44,3.91-11.85,7-3.1,2.85-4.61,6.55-3.47,10.84,2.48,9.3,8.72,15.31,17.42,18.68a93.39,93.39,0,0,0,28.45,6c15.68.87,31.33,2.09,47,3,3.22.19,6.5.62,9.64-.61,2.42-1,4.82-.71,7.35-.35,11.56,1.66,23,4.45,34.84,3.78a15.4,15.4,0,0,1,7.7,1.15c.41,4-.31,7.43-4.27,9.47-.5.25-.75,1-1.12,1.46l-2.79-.16c-.52-2.57-2.44-3.22-4.68-3.29-3-.08-5.91,0-8.86,0h-3c-2.12-2.55-5-3.1-8.09-3a27.24,27.24,0,0,1-15.43-3.48,11.26,11.26,0,0,0-7.54-1.27c-6.15.86-12.49,1.64-18.32-1.2a12,12,0,0,0-11.41.11c-4.09,2.05-8.21,3.59-12.85,1.6-.82-.35-2,0-2.94.15a25.84,25.84,0,0,1-9.28-.12c-4.42-.9-8.85-1.62-13.17.48-5,0-5,0-4.53,4.73a14.43,14.43,0,0,1,0,1.86l-.71.82-3,0c-1.46-3.09-4.22-2.16-6.68-2.17-4.11-2.36-5.46-2.05-6.74,1.52-3.11,1.4-6.5,1.46-9.78,2a.27.27,0,0,1-.11-.37l0,0c1.45-2.22-.06-3.65-1.39-5.09a3.4,3.4,0,0,0-3.74-.74c-2.06.68-1.26,2.64-1.57,4.09-1.42.08-2.84.16-3.7,1.56l-9.62.23c-5.31-.41-10.66-2-15.86.6l-5.19,0c-4.9-1.2-9.8-2.38-14.89-.95a3.7,3.7,0,0,1-2.52-.05c-2.59-1.48-2.86.18-3.08,2.05l-3.53.17c-3.07-.31-6.13-.71-9.21-.93-9.73-.7-19.36-2.64-29.17-2.34l-1.44-.07c-2.58-1.68-5.72-2.5-7.67-5.13-.91-1.23-1.91-.58-3-.08-1.67.79-2.92.4-4.69-.63-3.39-2-6.88-4.69-11.37-3.32-.25-.53-.5-1-.74-1.57,1-1.72-.21-2.54-1.41-3.24-1-.56-2.11-.8-2.64-1.93.14-3.74-2.22-7.67-4.46-8.55-5.1-2-8.76-5.58-12.87-8.71v-3.06c3.65-3.17,3.91-7.85,5.32-12,.73-1.05,1.46-2.1,2.2-3.14,2.29.31,4.44.38,4.64-2.79Z" transform="translate(1625.52 -395.78)"/><path class="cls-3" d="M-675.26,646.36c-4.13,2.38-8.18,4.83-9.94,9.64a23,23,0,0,0-6.66.74,69.28,69.28,0,0,1-20,2.39A22.45,22.45,0,0,0-722,661.3c-2.58,1.22-5.27,1.14-7.94,1.58-9.1,1.5-18.51-1.54-27.55,3.08-4.63,2.36-10.67,1.92-16.06,2.88-4.44.79-9.33.16-13,3.77h-2.29c-1-1.58-1.9-2-2.87,0l-2,.29a13.8,13.8,0,0,0-6.21-1.09c-9-.09-18,.24-26.92.7-10.31.53-20.65-1.76-31,.07a8.51,8.51,0,0,1-3.68-.43,30.15,30.15,0,0,0-15.55-.24,29.34,29.34,0,0,1-11.54.52c-10.56-1.78-21-4-31.84-4-4.75,0-9.43-.77-14,1.24a8.72,8.72,0,0,1-6.6.23,23.15,23.15,0,0,0-13.94-.78c-3.89,1-5.81-.72-6.21-4.81-.14-1.49,0-3-.83-4.37s-1.52-3-3.3-2.36c-1.53.57-1.6,2.4-1.7,3.89a3.2,3.2,0,0,0,1.12,2.3c.81.91,2,1.77,1.2,3.21s-2.1,1.09-3.34,1.14c-4.11.19-8.12-.74-12.3-.43a350.93,350.93,0,0,1-38.92.21c-6.66-.25-13.46,1.52-20-1.22-1-.42-2.46.1-3.68.34-3,.62-6.09,1.34-9.14,2a4.62,4.62,0,0,0-3.23.58c-.37-.22-.74-.44-1.12-.65-.25-1.93-1.74-2.13-3.25-2.46-4.4-1-8.9-1.06-13.32-1.76-14.58-2.34-29-5.53-43.91-5.86-5.11-.11-10.6-.14-15.35-2.52a21.32,21.32,0,0,0-11.47-2.52,12.2,12.2,0,0,1-4.81-.37c-8.54-3.07-17.52-3.59-26.37-4.87-1.32-.19-2.73-.82-3.72.72l-2.24-.1c-.58-2.76-2.73-4.39-4.58-6.19-2.73-2.64-4.13-2.52-6.08.82-1.14,2-2.37,2.47-4.55,2-1.85-.44-3.8-1.49-5.77-.25l-4.29-.37c-1.08-1.63-2.69-2.1-4.5-2.76-4-1.45-7.71,0-11.54.28l-2.12-.26a22.39,22.39,0,0,0-.87-2.78,3.62,3.62,0,0,0-4.22-2.19c-2,.4-1.62,2.14-1.73,3.55a15,15,0,0,0-7.48,1.76l-3.43-.54a30.8,30.8,0,0,0-10-5c-.2-.31-.33-.76-.61-.91-7.93-4.11-16.37-3.32-24.81-2.52a2.59,2.59,0,0,0-2.48,1.93c-2.47.22-4.94.53-7.24-.79-2.51-3.82-4.34-3.83-7-.06l.13.3-6.75-.8c-3.11-1.86-6.86-.3-10.22-2-1.09-.55-3.54.65-4.92-1.27.37-.5.62-1.21,1.12-1.46,4-2,4.68-5.49,4.27-9.47,6.35-.05,12.8-1.26,19,.27,11.78,2.87,23.73,4.76,35.65,6.86,18.31,3.23,36.38,6.77,55.27,5.95,12-.52,24.14,1.06,36.23,1.77,13.7.81,27.25,3.15,41,3.62,7.55.26,15.15,3.5,22.61.73,11.4-4.23,22.94-2.55,34.48-1.78,14.69,1,29.33,2.66,44.08,2.8,4.74,0,9.61-.55,14.21.28,17.32,3.12,34.85,2.31,52.28,3.38,7.88.49,15.67-1.35,23.57-.54s15.65,1.84,23.49,2c19.23.26,38.42,1.39,57.62,1.95,19.66.58,39.35,2.54,59.09,1.25,16.83-1.1,33.65,2,50.5.64a65.54,65.54,0,0,1,18.23.64,8.64,8.64,0,0,0,5.85-.9c2.8-1.6,5.28-3,8,0,.37.41,1.43.25,2.18.27,6.25.1,12.45-.61,18.67-1.11C-684,647.8-679.82,645.67-675.26,646.36Z" transform="translate(1625.52 -395.78)"/><path class="cls-4" d="M-993.23,536.79c-.61-2.19-2.32-2.79-4.31-2.91A207.34,207.34,0,0,1-1019,531c-3.07-.52-6.16-.87-8.43,2.36-1.37,1.94-3.1,1.16-4.25-.58a7.27,7.27,0,0,0-7.09-3.35c-10,.81-19.6-1.44-29.36-2.59-5.69-.67-11.3-1.3-17.12-.78-9.71.88-19.43-.69-29.16-.84-2.49,0-5-.42-7.47-.32-13.9.52-27.58-2.22-41.4-2.81-9.22-.39-18.42-1-27.63-1.62-8.48-.55-16.84-2-25.3-2.58l-30.22-2.08c-2-.14-4.37.39-5.54-2.1a14.8,14.8,0,0,1,.07-1.76l7.34.8c2,2.3,4.4,1.84,6.84.83,18.3-.84,36.35,2.32,54.54,3.3,9.23.49,18.46.72,27.69,1.15a65.43,65.43,0,0,1,16.92,3,18.23,18.23,0,0,0,7,.78c18.1-1.35,36.16.41,54.25.5,9.51,0,18.86,1.8,28.22,3.31,9.16,1.48,18.46.34,27.67,1.39,10.79,1.23,21.64,2,32.1,5.16,3.89,1.16,8,.25,11.79,1.74,0,.62-.06,1.24-.1,1.86l-2.82.65a2.85,2.85,0,0,0-3.8,1.34l-.06.14-3.44.34C-989.25,536.44-991.34,537-993.23,536.79Z" transform="translate(1625.52 -395.78)"/><path class="cls-4" d="M-1052,669c3-.67,6.09-1.39,9.14-2,1.22-.24,2.67-.76,3.68-.34,6.56,2.74,13.36,1,20,1.22a350.93,350.93,0,0,0,38.92-.21c4.18-.31,8.19.62,12.3.43,1.24-.05,2.62.16,3.34-1.14s-.39-2.3-1.2-3.21a3.2,3.2,0,0,1-1.12-2.3c.1-1.49.17-3.32,1.7-3.89,1.78-.66,2.53,1.15,3.3,2.36s.69,2.88.83,4.37c.4,4.09,2.32,5.78,6.21,4.81a23.15,23.15,0,0,1,13.94.78,8.72,8.72,0,0,0,6.6-.23c4.53-2,9.21-1.27,14-1.24,10.82,0,21.28,2.24,31.84,4a29.34,29.34,0,0,0,11.54-.52,30.15,30.15,0,0,1,15.55.24,8.51,8.51,0,0,0,3.68.43c10.34-1.83,20.68.46,31-.07,9-.46,17.94-.79,26.92-.7a13.8,13.8,0,0,1,6.21,1.09c-.62,1.15-1.37,2.19-2.87,1.89-5.12-1-9.86.86-14.7,1.91-2,.43-4.16.92-5.9.09-4.38-2.09-8.6-1.37-13-.38a34.67,34.67,0,0,1-14.13-.12c-5.83-1.13-11.66-.82-17.51-.45-12.36.78-24.66-.29-37-1.25-11.81-.91-23.63-1.43-35.48-1.28-3.83,0-7.57-1.45-11.46-.82l-2.47-.06c-2-1.22-3.88-1.08-5.45.81h-6C-961,671-963,671.6-965,671.94l-2.13-.14c-1.8-1.92-3.6-2.09-5.39,0l-7.41.06c-4.74-.17-9.5-.7-14.22.39l-2.66-.55c-1.7-2-3.36-1.86-5,.07l-3.58.55a46.59,46.59,0,0,0-18,0h-2.3c-3.9-1.12-7.83-2.08-12-1.43h-2.25c-1.6-.55-3.1.18-4.62.45C-1047.41,671.89-1050,671.54-1052,669Z" transform="translate(1625.52 -395.78)"/><path class="cls-5" d="M-788.18,428.5a9.06,9.06,0,0,0,4.35-2.09c4.38-4.21,10-5.37,15.63-6.63,4-.9,7.56-.53,10.08,2.91a8.88,8.88,0,0,1-.91,11.76c-5.71,5.66-11.2,11.75-19.1,14.74-6.65,2.51-9.37,1.84-13.34-4-3.67-5.37-4.74-5.42-9.07-.38a12.72,12.72,0,0,1-13.93,3.7c-4.92-1.9-7.61-5.66-7-11.5,1.17-12.1,5.93-22.86,13.38-32.44,1-1.28,2-2.52,3.08-3.76a13.5,13.5,0,0,1,15.89-3.92c3.63,1.52,5.75,4.11,5.84,8.31a32.72,32.72,0,0,1-2.55,14.62,29.85,29.85,0,0,0-2.34,8.64c-2.11-.07-2.86,1.14-2.87,3a1.1,1.1,0,0,0,.92,1.25,1.11,1.11,0,0,0,.54,0c2.15-.57,2-2.2,1.59-3.87A1.81,1.81,0,0,0-788.18,428.5Zm-10.32-25.31c-2.45.64-5.59-.41-7,2.87-2.37,1-1.47,3.91-3.06,5.27-6.83,5.81-8.29,13.77-9,22-1.87,3-.92,5.92.28,8.81,1.92,4.62,5.39,5.22,9.1,1.59a5.78,5.78,0,0,0,4.72-1.91c7.52-8.69,15-17.31,16.78-29.43.74-5.11-.41-8.67-4.84-11.4S-796.38,398.34-798.5,403.19Zm30.44,22.52c.22-2.74-1.35-3.78-4.22-2.31-4.11,2.1-7.41,5.1-8.2,10-.52,3.22-1.86,5.13-5.55,4-2.28-.7-3.17.51-3.38,2.66a6.32,6.32,0,0,0,5.33,7.19A6.37,6.37,0,0,0-781,447c9.25-3,14.07-11.21,20.56-17.44,1.5-1.44-.52-2.91-1.24-4.26-.41-.77-.85-1.64-2-1.32a2.7,2.7,0,0,0-2.06,2.41c-.08,1.09.63,2.49-1.34,2.11-1.55-.33-1.2-1.63-1-2.75Z" transform="translate(1625.52 -395.78)"/><path class="cls-3" d="M-1434.27,620.83c4.32-2.1,8.75-1.38,13.17-.48a25.84,25.84,0,0,0,9.28.12c1-.15,2.12-.5,2.94-.15,4.64,2,8.76.45,12.85-1.6a12,12,0,0,1,11.41-.11c5.83,2.84,12.17,2.06,18.32,1.2a11.26,11.26,0,0,1,7.54,1.27,27.24,27.24,0,0,0,15.43,3.48c3.1-.14,6,.41,8.09,3v3.79l-2.28,2.28-2.21-.17c-.54-1.71-1.34-3.47-3.39-3.23-2.38.28-4.9-.06-7.15,1.12-3-.94-5.94.47-8.9-.13-2.72-4.71-6.82-2.58-10.58-2.15a2.44,2.44,0,0,0-2.29,1c-5.08-1-10.21.47-15.3-.27a3.21,3.21,0,0,0-2.74.85l-.81-.43c-2-4.78-3.93-5.29-7.36-1.94l-3-.28c-3.29-3.63-3.29-3.63-6-.32l-4.49-.34c-.12-1.54-.5-3.14-2.37-3-1.56.12-1.37,1.71-1.43,2.91l-8.94.3a.28.28,0,0,0,.15-.32c-1-3.75-4-2.5-6.44-2.59S-1435.31,624.19-1434.27,620.83Z" transform="translate(1625.52 -395.78)"/><path class="cls-4" d="M-1178.52,649.26c1-1.54,2.4-.91,3.72-.72,8.85,1.28,17.83,1.8,26.37,4.87a12.2,12.2,0,0,0,4.81.37,21.32,21.32,0,0,1,11.47,2.52c4.75,2.38,10.24,2.41,15.35,2.52,14.89.33,29.33,3.52,43.91,5.86,4.42.7,8.92.8,13.32,1.76,1.51.33,3,.53,3.25,2.46l-5,.77c-5.57-.63-11-2.64-16.75-1.51l-5.08-1.17c-3-3.42-6.56-1.73-10-1.15l-2.85-.23c-6.1-2.38-12.45-2.63-18.88-2.29h-3.59a6.45,6.45,0,0,0-3.65-1.72c-7-1.6-14-3.12-21-4.67l-7.33-.15c-1.35-2.21-3.43-1.58-5.39-1.39l-3.64-.12a5,5,0,0,0-3.27-2.18,36.07,36.07,0,0,0-11.3-.71h.07l-1-.61-2-.31Z" transform="translate(1625.52 -395.78)"/><path class="cls-4" d="M-786.51,672.61c3.64-3.61,8.53-3,13-3.77,5.39-1,11.43-.52,16.06-2.88,9-4.62,18.45-1.58,27.55-3.08,2.67-.44,5.36-.36,7.94-1.58a22.45,22.45,0,0,1,10.17-2.17,69.28,69.28,0,0,0,20-2.39,23,23,0,0,1,6.66-.74l-.69,3c-.75.05-1.65-.16-2.21.19-6.25,4-13.53,3.42-20.37,4.8a5.79,5.79,0,0,1-2.58.19c-8-2.39-14.77,1.8-21.95,3.88a9.58,9.58,0,0,1-4.87-.34,24.56,24.56,0,0,0-15.76,1,20.46,20.46,0,0,1-8.3,1.78c-6.66-.28-12.66,3.83-19.42,2.78C-783.06,673.06-784.84,673.24-786.51,672.61Z" transform="translate(1625.52 -395.78)"/><path class="cls-6" d="M-1525.65,536.91a3.57,3.57,0,0,1-3.39,2.84c-6,.89-11.33,3.45-16.53,6.41-2.86,1.63-6.25,1.43-9.27,2.62-7.48,3-14.77,6.21-21.09,11.32a2.34,2.34,0,0,1-.93.59c-7,.93-12.22,5.93-18.54,8.43l-3.86-.12,2.31-2.81c2.77,0,5-1.33,7.22-2.78,18.33-12,38.7-19.45,59.15-26.73C-1528.86,536.07-1527.22,535.59-1525.65,536.91Z" transform="translate(1625.52 -395.78)"/><path class="cls-4" d="M-767,541.54a12.75,12.75,0,0,1,3.32,3.43c-7.18.44-14.39.67-21.56,1.36-15.17,1.48-30.25,4.68-45.62,2.38l-.51-1.29.32-.17,2.74-1.55C-807.82,545.19-787.43,543.1-767,541.54Z" transform="translate(1625.52 -395.78)"/><path class="cls-6" d="M-1340.6,509.52l-14.15.22-6-1.43c1-1.93,2.93-1.74,4.6-1.83,16.44-.91,32.89-1.47,49.37-1.24a3.78,3.78,0,0,1,3.86,2.26,2,2,0,0,0-.06.6c-6,2.93-12.48,2.26-18.84,2.5-1.53,0-2.43,1.06-3.23,2.24-.5.74-1.19,1.33-2.19.78a1.57,1.57,0,0,1-.8-1.91c1.07-3.39-1-3.46-3.38-3.32C-1334.6,508.06-1337.92,506.19-1340.6,509.52Z" transform="translate(1625.52 -395.78)"/><path class="cls-7" d="M-850.07,497.86c-1.27-1.74-2.79-3.19-5-3.5-1.67-.23-2.3-1.27-1.68-2.53,2.34-4.75,1.12-9.78,1.37-14.68.12-2.36-.17-4.75.81-7,3,3.14,2.25,7,1.74,10.6a16.22,16.22,0,0,0,5.34,15.16,9.71,9.71,0,0,0,6.34,2.86c6,.12,9.32,3.48,10.81,9l-2.43-.36c-1.44-2.18-3.26-3.8-6-3.59a9.7,9.7,0,0,1-6.81-2.39C-847.14,500.29-847.15,497.27-850.07,497.86Z" transform="translate(1625.52 -395.78)"/><path class="cls-6" d="M-1337.48,633.6l2.28-2.28h3a18.32,18.32,0,0,0,13.54-.38l2.79.16c1.38,1.92,3.83.72,4.92,1.27,3.36,1.69,7.11.13,10.22,2-.3,1.19-.6,2.39-.91,3.59h-5.71c-1-2.54-2.76-2.47-4.78-1.24-4.58-.43-9.25.62-13.75-1.46-2.15-1-4.58.06-6.8.85a10.64,10.64,0,0,1-4.75.45C-1337.45,635.53-1337.47,634.57-1337.48,633.6Z" transform="translate(1625.52 -395.78)"/><path class="cls-5" d="M-832.76,507.42l2.43.36c3,1.83,3.13,4.4,2,7.33-.88,2.73-2.9,5.16-2.27,8.31v3.27c.6,6.87-1.39,13.68-.45,20.56l-.32.17c-2-.5-2-2.41-2.6-3.85-.57-8.7-2.62-17.76,1-25.91,1.86-4.15.71-6.67-.59-9.89Z" transform="translate(1625.52 -395.78)"/><path class="cls-8" d="M-928.82,435.7c.26,2.51-.28,4.59-2.63,6.07-1.92,1.21-2,3.33-1.87,5.36.16,2.92-.74,5.3-2.13,8-2.29,4.41-4.18,9.27-3.33,14.61a40.55,40.55,0,0,1,.17,6.33,3.52,3.52,0,0,1-2.91,3.79l-2.3-.08a13.47,13.47,0,0,0,0-5.14,4.79,4.79,0,0,0,.74-1.18c1.8-7.33,3.42-14.71,5.4-22C-936.07,445.51-935.06,439.09-928.82,435.7Z" transform="translate(1625.52 -395.78)"/><path class="cls-4" d="M-1256.5,513c-4.41,1.11-8.9.61-13.33.45-6.81-.24-13.61-.92-20.41-1.38a5.26,5.26,0,0,1-4.48-2.22l2.23-1.4c5.44-2.06,11.07,2.13,16.49-.52,4.68,3.19,9.86,1.68,14.92,1.72,1.48,0,2.6,2.22,4.58,1.79Z" transform="translate(1625.52 -395.78)"/><path class="cls-6" d="M-1612,576.39c-.74,1-1.47,2.09-2.2,3.14-4.85,2.56-6.66,6.65-5.32,12v3.06c-.42,6.33,3.55,9.64,8.46,12.36,2.23,1.23,5,1.77,6,4.65-3.06.11-5.56-2.23-8.66-2l-4.94-3.82c-.17-2.52-.84-4.69-3.69-5.36-.08-1.13-.15-2.27-.22-3.4l.87-13.86v.13l.63-1c1.67-4.37,3.76-8.3,9.14-8.84l.06.07Z" transform="translate(1625.52 -395.78)"/><path class="cls-9" d="M-1206,645.13l4.29.37a6.55,6.55,0,0,0,5,2.9,6.2,6.2,0,0,1,4.2,2.17c-1.82.51-3.72,1-5.53.31-8.84-3.15-18.29-1.76-27.27-3.83-2.36-.55-5.08-.28-6.56-2.85l.93-1.66,6.81-.15,2.12.26c.29,1.14.84,2.4,2.06,2.3,4.19-.35,8.31-.43,12.36,1C-1207.25,646.06-1206.58,645.41-1206,645.13Z" transform="translate(1625.52 -395.78)"/><path class="cls-7" d="M-854.71,467.53a4.32,4.32,0,0,1-1.41-3.28c-.58-7.6-4.72-11.81-12-13-3.76-.61-5.11,2.33-7.37,4-1.47.71-1.78,2.21-2.34,3.52-.71,1.68-1.71,2.92-3.71,2.93,2.78-9,8.09-13.15,16.2-12.8,7.77.33,14.17,9,12.16,16.54A3.67,3.67,0,0,1-854.71,467.53Z" transform="translate(1625.52 -395.78)"/><path class="cls-7" d="M-928.82,435.7c-6.24,3.39-7.25,9.81-8.86,15.76-2,7.28-3.6,14.66-5.4,22a4.79,4.79,0,0,1-.74,1.18c.16-5.35-.87-10.69-.09-16.06a24,24,0,0,1,2.29-7.85c2.5-4.78,5.1-9.51,7.65-14.26,1.11-2.08,2.93-2.54,5.08-2.26l.12,1.44Z" transform="translate(1625.52 -395.78)"/><path class="cls-7" d="M-886.95,474c-.8,1.53-.79,3.81-3.42,3.66-2.36-.13-3.69-1.54-4.8-3.49-5.33-9.41-5.09-19.85-5.75-30.14,3.08,1.53,3.19,4.5,3.44,7.32.47,5.3.8,10.61,2.28,15.75S-892.38,473.4-886.95,474Z" transform="translate(1625.52 -395.78)"/><path class="cls-4" d="M-1474,526.31a6.73,6.73,0,0,1-6.86,3.65c-7.39-.47-14.15,2.19-21.11,3.86-3.39.82-6.72,1.94-10.28,1.39.7-1.59,2.14-1.87,3.64-2.16,1.94-.37,3.94-.66,5.4-2.21a30.75,30.75,0,0,1,16.37-3.33c2.06.09,4.15-.64,6.23-1C-1478.38,527.72-1476.23,526-1474,526.31Z" transform="translate(1625.52 -395.78)"/><path class="cls-8" d="M-946.82,501.8c.18,6.61-3.41,11.16-8.24,15-1.2,1-2.18,1.82-2.05,3.63.37,5.32-.57,6-6.17,4.59,1.73-4,4.32-7.51,6.63-11.19,1.37-2.17,3-4.24,3.1-7,1.67-1.85,2.86-4.19,5.29-5.28Z" transform="translate(1625.52 -395.78)"/><path class="cls-6" d="M-1597.43,618.6c4.49-1.37,8,1.34,11.37,3.32,1.77,1,3,1.42,4.69.63,1-.5,2-1.15,3,.08,2,2.63,5.09,3.45,7.67,5.13-3.34,1.15-6.66.21-10-.1-2.83-.77-5.68-1.53-8.5-2.33C-1592.93,624.28-1596,622.42-1597.43,618.6Z" transform="translate(1625.52 -395.78)"/><path class="cls-4" d="M-1192.57,650.57a6.2,6.2,0,0,0-4.2-2.17,6.55,6.55,0,0,1-5-2.9c2-1.24,3.92-.19,5.77.25,2.18.51,3.41,0,4.55-2,2-3.34,3.35-3.46,6.08-.82,1.85,1.8,4,3.43,4.58,6.19-1.75,1.41-3.65.82-5.56.47-1.36-.26-2.92-1-3.67,1Z" transform="translate(1625.52 -395.78)"/><path class="cls-7" d="M-901.1,442.25c-1.59.26-2.89,0-3.67-1.66-3.88-8.28-5.88-9.4-15.08-8.55-.49,0-1,.07-1.48.1-2.34-1.73-4.4,1.18-6.68.4,4.33-5,9.91-5.28,15.65-3.64,5.44,1.56,9.28,5.08,10.57,10.87C-901.6,440.61-901.33,441.43-901.1,442.25Z" transform="translate(1625.52 -395.78)"/><path class="cls-6" d="M-1569.3,627.83c9.81-.3,19.44,1.64,29.17,2.34,3.08.22,6.14.62,9.21.93a11.19,11.19,0,0,1-.08,1.64l-5.14.12c-4.65-1.52-9.57-.43-14.27-1.47l-13.58-.21C-1565.34,629.39-1568,629.71-1569.3,627.83Z" transform="translate(1625.52 -395.78)"/><path class="cls-9" d="M-1143.16,656.89c7,1.55,14,3.07,21,4.67a6.45,6.45,0,0,1,3.65,1.72c-.72,1-1.33,1.79-3,1.28-4.51-1.4-9.26-1.34-13.93-1.74C-1139.25,662.48-1142.46,661.34-1143.16,656.89Z" transform="translate(1625.52 -395.78)"/><path class="cls-4" d="M-1279.86,635.66a2.59,2.59,0,0,1,2.48-1.93c8.44-.8,16.88-1.59,24.81,2.52.28.15.41.6.61.91l-.83.28c-1.47.29-2.89,1-4.45.61-1.54-2-3.34-1.91-5.28-.68h-6.72C-1272.47,634.86-1276.33,636.29-1279.86,635.66Z" transform="translate(1625.52 -395.78)"/><path class="cls-6" d="M-1279.86,635.66c3.53.63,7.39-.8,10.62,1.71v1.49c-8.32.66-16.56-.28-24.8-1.21,0-.85,0-1.69,0-2.54l-.13-.3,7,.06C-1284.8,636.19-1282.33,635.88-1279.86,635.66Z" transform="translate(1625.52 -395.78)"/><path class="cls-4" d="M-1377.09,510.81c-2,5.06-6.18,6.59-10.15,3.47-2.33-1.83-4.36-3.33-7.06-.67-.64.62-1.66,0-2.5-.16l.3-2.3c.25,0,.57.19.73.09,5.45-3.25,11.38-.57,17-1.42Z" transform="translate(1625.52 -395.78)"/><path class="cls-4" d="M-1401.22,513.66c-.68,1.65-2.23,1.93-3.68,2-5,.34-10.09.54-15.14.79V514c6.08-2.39,12.51-1.65,18.81-2.06Z" transform="translate(1625.52 -395.78)"/><path class="cls-9" d="M-1390,630.61a3.21,3.21,0,0,1,2.74-.85c5.09.74,10.22-.69,15.3.27v2.69c-2.38,1.2-4.85,1.92-7.49.94-2.34-.87-4.44-1.43-7-.06S-1389.35,632.19-1390,630.61Z" transform="translate(1625.52 -395.78)"/><path class="cls-4" d="M-1446.08,520c-1.43,2-3.78,2.34-5.85,3-4.36,1.41-8.81,2.57-13.25,3.77-1.55.43-3.21.88-4.28-1v-1.53l4.22-.21c2.72.64,4.06-1.35,5.59-3h-.1c3.2,0,6.52.59,9.08-2.13l3.5-.24Z" transform="translate(1625.52 -395.78)"/><path class="cls-7" d="M-953.55,506.82c0,2.78-1.73,4.85-3.1,7-2.31,3.68-4.9,7.17-6.63,11.19l-2.28.11C-964.51,517.1-959.83,511.43-953.55,506.82Z" transform="translate(1625.52 -395.78)"/><path class="cls-6" d="M-1527.39,630.93c.22-1.87.49-3.53,3.08-2a3.7,3.7,0,0,0,2.52,0c5.09-1.43,10-.25,14.89,1a9.45,9.45,0,0,1-.07,1.4c-5.56-.4-11,.65-16.46,1.38C-1524.24,630.92-1525.95,631.19-1527.39,630.93Z" transform="translate(1625.52 -395.78)"/><path class="cls-7" d="M-831.06,547.25c-.94-6.88,1-13.69.45-20.56,3.62,3.38,3.26,7.74,2.78,12a32.18,32.18,0,0,0-.49,7Z" transform="translate(1625.52 -395.78)"/><path class="cls-9" d="M-1465.74,629.58c3.28-.58,6.67-.64,9.78-2,1.76,1.64,3.91.8,5.9.94l.32.74c-3.82,3.16-8.27,3.52-12.88,2.67A3.66,3.66,0,0,1-1465.74,629.58Z" transform="translate(1625.52 -395.78)"/><path class="cls-9" d="M-1613.75,609.66c3.1-.28,5.6,2.06,8.66,2l2.87.25c.53,1.13,1.69,1.37,2.64,1.93,1.2.7,2.43,1.52,1.41,3.24-2.85-1.87-6.11-2.37-9.37-2.84A7.31,7.31,0,0,1-1613.75,609.66Z" transform="translate(1625.52 -395.78)"/><path class="cls-6" d="M-1503.22,530.84c-1.46,1.55-3.46,1.84-5.4,2.21-1.5.29-2.94.57-3.64,2.16-3.4.32-6.68,1.71-10.17,1.25,2.23-1.31,4.44-2.65,6.7-3.9A17.16,17.16,0,0,1-1503.22,530.84Z" transform="translate(1625.52 -395.78)"/><path class="cls-6" d="M-1359.13,631.19c3,.6,6-.81,8.9.13l3.07,3c-1.54,1.11-2.77,1-4.8.43-3.45-1-7.33-.59-11-.77V632.8C-1362,631.34-1360.57,631.31-1359.13,631.19Z" transform="translate(1625.52 -395.78)"/><path class="cls-9" d="M-1114.9,663.32c6.43-.34,12.78-.09,18.88,2.29C-1102.65,667.68-1109,667.58-1114.9,663.32Z" transform="translate(1625.52 -395.78)"/><path class="cls-9" d="M-1052,669c2,2.57,4.56,2.92,7.52,2.38,1.52-.27,3-1,4.62-.45-5.24,5.75-10.13,5.31-15.37-1.35A4.62,4.62,0,0,1-1052,669Z" transform="translate(1625.52 -395.78)"/><path class="cls-9" d="M-864.08,679.42c5.93-1.84,12-3.09,18.1,0Z" transform="translate(1625.52 -395.78)"/><path class="cls-9" d="M-1023.33,672.32a46.59,46.59,0,0,1,18,0C-1011.36,675.78-1017.35,675.65-1023.33,672.32Z" transform="translate(1625.52 -395.78)"/><path class="cls-7" d="M-977.65,535.77c0-.62.07-1.24.1-1.86,2.94-.63,5-2.64,6.94-4.67,1.47-1.49,2.94-3,5-3.63v2.28c-1.94.94-1.76,2.82-2,4.51l-4.76,2.37c-2-.66-3.38,1.17-5.16,1.43Z" transform="translate(1625.52 -395.78)"/><path class="cls-9" d="M-1078.09,668.19c5.73-1.13,11.18.88,16.75,1.51-.41.92-.83,1.91-2,2C-1068.59,671.88-1073.87,672.26-1078.09,668.19Z" transform="translate(1625.52 -395.78)"/><path class="cls-9" d="M-1252.79,637.44l.83-.28c3.57,1.23,7.08,2.57,10,5C-1248.08,645.4-1251.57,643.87-1252.79,637.44Z" transform="translate(1625.52 -395.78)"/><path class="cls-4" d="M-1426.65,517.42c-4.48,4.63-9.67,4.22-15.09,2.12v-1.79l9.75-.49C-1430.23,518.19-1428.42,517-1426.65,517.42Z" transform="translate(1625.52 -395.78)"/><path class="cls-9" d="M-1569.3,627.83c1.29,1.88,4,1.56,5.31,3.35-3.12.09-6.24.31-9.35.25a9,9,0,0,1-7.39-3.77c3.33.31,6.65,1.25,10,.1Z" transform="translate(1625.52 -395.78)"/><path class="cls-6" d="M-1501.71,629.83c5.2-2.56,10.55-1,15.86-.6l-.21,2.08h-15.55C-1501.65,630.85-1501.65,630.34-1501.71,629.83Z" transform="translate(1625.52 -395.78)"/><path class="cls-9" d="M-1174.09,652.34a36.07,36.07,0,0,1,11.3.71,5,5,0,0,1,3.27,2.18c-3.9.86-7.83,1.56-11.64-.26C-1172.34,654.41-1173.65,653.86-1174.09,652.34Z" transform="translate(1625.52 -395.78)"/><path class="cls-9" d="M-1550.41,631.39c4.7,1,9.62,0,14.27,1.47C-1541.13,636.63-1545.3,636.19-1550.41,631.39Z" transform="translate(1625.52 -395.78)"/><path class="cls-6" d="M-1377.09,510.81l-1.66-1c1.59-2.34,3.66-2.59,6.15-1.55,1.74.74,3.38,1.12,5-.71s2.79-.29,3.81,1a2.09,2.09,0,0,0,0,.5,9.12,9.12,0,0,0-5.09,1.38C-1371.27,512.09-1374.35,510.09-1377.09,510.81Z" transform="translate(1625.52 -395.78)"/><path class="cls-4" d="M-1472.53,627.44c.31-1.45-.49-3.41,1.57-4.09a3.4,3.4,0,0,1,3.74.74c1.33,1.44,2.84,2.87,1.39,5.09l-5.12-.12Z" transform="translate(1625.52 -395.78)"/><path class="cls-9" d="M-1190,650.63c.75-2,2.31-1.26,3.67-1,1.91.35,3.81.94,5.56-.47l2.24.1,1.5,2.19C-1181.5,653.67-1185.87,654.26-1190,650.63Z" transform="translate(1625.52 -395.78)"/><path class="cls-6" d="M-1439.54,628.24l.71-.82c4.85,0,9.7.55,14.54-.22a.28.28,0,0,1-.15.32c-.3.82-.6,1.64-.89,2.46-2.57.1-5.13.24-7.7.28A9.23,9.23,0,0,1-1439.54,628.24Z" transform="translate(1625.52 -395.78)"/><path class="cls-9" d="M-1486.06,631.31l.21-2.08,9.62-.23,1.53,1.34C-1478.21,633.94-1482.08,633.28-1486.06,631.31Z" transform="translate(1625.52 -395.78)"/><path class="cls-6" d="M-1426.65,517.42c-1.77-.39-3.58.78-5.33-.16,3.4-3.26,7.48-4,12-3.27v2.49Z" transform="translate(1625.52 -395.78)"/><path class="cls-9" d="M-1425.33,630c.29-.82.59-1.64.89-2.46l8.94-.3.27,2C-1418.35,633-1421.83,631.74-1425.33,630Z" transform="translate(1625.52 -395.78)"/><path class="cls-4" d="M-1347.16,634.27l-3.07-3c2.25-1.18,4.77-.84,7.15-1.12,2-.24,2.85,1.52,3.39,3.23l-2.29,1.13Z" transform="translate(1625.52 -395.78)"/><path class="cls-7" d="M-946.82,501.8l-1.44-.26c.72-4.35,1.55-8.65,5.06-11.81C-942.65,494.29-944.43,498.13-946.82,501.8Z" transform="translate(1625.52 -395.78)"/><path class="cls-9" d="M-1037.58,670.85c4.12-.65,8,.31,12,1.43C-1031,675.92-1032.65,675.73-1037.58,670.85Z" transform="translate(1625.52 -395.78)"/><path class="cls-9" d="M-1621.73,583.19l-.87,13.86C-1626.77,592.31-1626.47,587.56-1621.73,583.19Z" transform="translate(1625.52 -395.78)"/><path class="cls-9" d="M-994.13,672.29c4.72-1.09,9.48-.56,14.22-.39C-984.65,675.74-988.42,675.84-994.13,672.29Z" transform="translate(1625.52 -395.78)"/><path class="cls-9" d="M-945.65,672.45c3.89-.63,7.63.77,11.46.82C-938.73,677.3-941.79,677.08-945.65,672.45Z" transform="translate(1625.52 -395.78)"/><path class="cls-4" d="M-1599.25,569l3.86.12c-.25,1.65.08,3.76-2.06,4.26-2.82.67-5-.68-6.49-3.06l1.65-1.59Z" transform="translate(1625.52 -395.78)"/><path class="cls-1" d="M-881.57,461.72c2,0,3-1.25,3.71-2.93.56-1.31.87-2.81,2.34-3.52l.7.63c.52,3.32-2.1,5.84-2.27,9h0l-4.45.75-.47-2C-881.86,463-881.71,462.35-881.57,461.72Z" transform="translate(1625.52 -395.78)"/><path class="cls-9" d="M-1294,635.11c0,.85,0,1.69,0,2.54-2.48,1.56-5,2-7.6.25l.9-3.59Z" transform="translate(1625.52 -395.78)"/><path class="cls-9" d="M-1093.17,665.84c3.44-.58,7-2.27,10,1.15C-1086.72,668.49-1090.27,670-1093.17,665.84Z" transform="translate(1625.52 -395.78)"/><path class="cls-6" d="M-1469.5,524.19v1.53c-1.52.15-3.1-.16-4.55.56-2.22-.34-4.37,1.41-6.61.21C-1477.42,523.3-1473.75,522.38-1469.5,524.19Z" transform="translate(1625.52 -395.78)"/><path class="cls-8" d="M-928,432.54c2.28.78,4.34-2.13,6.68-.4-.78,4.77-4.57,3.17-7.44,3.51l-.12-1.45Z" transform="translate(1625.52 -395.78)"/><path class="cls-4" d="M-1363.81,509.09a2.09,2.09,0,0,1,0-.5l3-.28,6,1.43C-1358.27,513.19-1361.24,513-1363.81,509.09Z" transform="translate(1625.52 -395.78)"/><path class="cls-6" d="M-1407.21,627.64c2.72-3.31,2.72-3.31,6,.32a19.38,19.38,0,0,1-.07,2l-5.9-.06C-1407.18,629.13-1407.2,628.39-1407.21,627.64Z" transform="translate(1625.52 -395.78)"/><path class="cls-4" d="M-1398.21,628.24c3.43-3.35,5.37-2.84,7.36,1.94l-2.56.39C-1394.75,629.26-1397.06,629.94-1398.21,628.24Z" transform="translate(1625.52 -395.78)"/><path class="cls-7" d="M-830.65,523.42c-.63-3.15,1.39-5.58,2.27-8.31C-824.82,518.6-825.31,520.41-830.65,523.42Z" transform="translate(1625.52 -395.78)"/><path class="cls-7" d="M-882,463.61l.47,2a3.8,3.8,0,0,0-.74,3c-.88.79-1.71,1.68-3.06,1.51C-885.87,467.12-886.2,464.19-882,463.61Z" transform="translate(1625.52 -395.78)"/><path class="cls-6" d="M-1450.71,518.93c-2.56,2.72-5.88,2.18-9.08,2.13C-1457.45,517.42-1454.3,517.27-1450.71,518.93Z" transform="translate(1625.52 -395.78)"/><path class="cls-9" d="M-1398.21,628.24c1.15,1.7,3.46,1,4.8,2.33-3,3.92-5.33.71-7.86-.64a19.38,19.38,0,0,1,.07-2Z" transform="translate(1625.52 -395.78)"/><path class="cls-9" d="M-1527.39,630.93c1.44.29,3.15,0,4,1.73-2.5,2-5,1.67-7.57.08a11.33,11.33,0,0,1,.08-1.64Z" transform="translate(1625.52 -395.78)"/><path class="cls-6" d="M-1292.49,508.41l-2.23,1.4-2.31-.14c-1.15-.65-2.51-1-3.21-2.28C-1297.42,505.93-1294.81,506-1292.49,508.41Z" transform="translate(1625.52 -395.78)"/><path class="cls-9" d="M-1269.24,638.86v-1.49h6.72V639C-1264.82,641-1267,640.57-1269.24,638.86Z" transform="translate(1625.52 -395.78)"/><path class="cls-6" d="M-1231,642.54l-.93,1.66c-2.22-.36-4.71.5-6.56-1.47A15,15,0,0,1-1231,641C-1231,641.49-1231,642-1231,642.54Z" transform="translate(1625.52 -395.78)"/><path class="cls-6" d="M-1449.74,629.19c-.1-.25-.21-.5-.32-.74a3.92,3.92,0,0,0,.84-2.46c2.46,0,5.22-.92,6.68,2.17Z" transform="translate(1625.52 -395.78)"/><path class="cls-6" d="M-1415.23,629.27l-.27-2c.06-1.2-.13-2.79,1.43-2.91,1.87-.15,2.25,1.45,2.37,3a13.55,13.55,0,0,1-.08,1.8Z" transform="translate(1625.52 -395.78)"/><path class="cls-6" d="M-1237.76,513.62c-2.44,1-4.8,1.47-6.84-.83C-1242.06,510.9-1239.75,511-1237.76,513.62Z" transform="translate(1625.52 -395.78)"/><path class="cls-9" d="M-1342,634.56l2.29-1.13,2.21.17v2.9C-1340.22,638.83-1341.14,636.79-1342,634.56Z" transform="translate(1625.52 -395.78)"/><path class="cls-7" d="M-943.82,479.77l2.3.08c-.19,2.2.47,4.6-1.45,6.42C-945.31,484.37-944.65,482.08-943.82,479.77Z" transform="translate(1625.52 -395.78)"/><path class="cls-9" d="M-898.39,679.8c-1.06-.43-2.78.56-2.62-1.32.1-1.19,1.3-1.65,2.53-1.63s2.4.6,2.44,1.78C-896,680.56-897.8,679.1-898.39,679.8Z" transform="translate(1625.52 -395.78)"/><path class="cls-9" d="M-1363,632.75v1.18c-2.56,1.68-4.93,2.22-6.66-1.11a.43.43,0,0,0,0-.44A21,21,0,0,1-1363,632.75Z" transform="translate(1625.52 -395.78)"/><path class="cls-4" d="M-1300.24,507.39c.7,1.27,2.06,1.63,3.21,2.28-3,2.52-3.89,2.27-6-1.57a2,2,0,0,1,.06-.6Z" transform="translate(1625.52 -395.78)"/><path class="cls-9" d="M-1622.38,600.48c2.85.67,3.52,2.84,3.69,5.36C-1622.27,605.67-1622.93,603.49-1622.38,600.48Z" transform="translate(1625.52 -395.78)"/><path class="cls-9" d="M-1411.78,629.1c0-.6.06-1.2.08-1.8l4.49.34v2.23C-1409,631.69-1410.65,631.66-1411.78,629.1Z" transform="translate(1625.52 -395.78)"/><path class="cls-6" d="M-1441.73,517.75v1.79l-4.34.41-1.13-1.26C-1445.82,515.87-1443.85,516.39-1441.73,517.75Z" transform="translate(1625.52 -395.78)"/><path class="cls-9" d="M-1501.71,629.83c0,.51.06,1,.1,1.53-1.82,1.87-3.6,1.7-5.36-.08a9.32,9.32,0,0,1,.07-1.4Z" transform="translate(1625.52 -395.78)"/><path class="cls-9" d="M-1312.14,636.66c2-1.23,3.74-1.3,4.78,1.24C-1309.49,639.55-1311.21,639.63-1312.14,636.66Z" transform="translate(1625.52 -395.78)"/><path class="cls-6" d="M-1262.54,639v-1.65c1.94-1.23,3.74-1.27,5.28.68C-1258.81,639.46-1260.76,638.76-1262.54,639Z" transform="translate(1625.52 -395.78)"/><path class="cls-9" d="M-1155.88,655.35c2-.19,4-.82,5.39,1.39C-1152.95,658.86-1154.8,658.61-1155.88,655.35Z" transform="translate(1625.52 -395.78)"/><path class="cls-9" d="M-972.5,671.84c1.79-2.1,3.59-1.93,5.39,0C-968.9,673.7-970.65,673.92-972.5,671.84Z" transform="translate(1625.52 -395.78)"/><path class="cls-6" d="M-1401.22,513.66v-1.73c1.52-.55,2.88-2,4.69-.78l-.3,2.3Z" transform="translate(1625.52 -395.78)"/><path class="cls-9" d="M-965,672c2-.34,4-1,5.44,1.25C-961.81,674.77-963.87,675.45-965,672Z" transform="translate(1625.52 -395.78)"/><path class="cls-9" d="M-953.58,673.19c1.57-1.89,3.41-2,5.45-.81C-949.52,675.49-951.48,674.83-953.58,673.19Z" transform="translate(1625.52 -395.78)"/><path class="cls-9" d="M-1599.25,569l-3-.27c.53-3.51,3.15-2.57,5.35-2.54Z" transform="translate(1625.52 -395.78)"/><path class="cls-6" d="M-1474.65,630.34l-1.53-1.34c.86-1.4,2.28-1.48,3.7-1.56l1.58,1.62C-1472,630.19-1473.42,630-1474.65,630.34Z" transform="translate(1625.52 -395.78)"/><path class="cls-9" d="M-1001.79,671.81c1.64-1.93,3.3-2.06,5-.07C-998.42,674.19-1000.1,673.61-1001.79,671.81Z" transform="translate(1625.52 -395.78)"/><path class="cls-6" d="M-1256.5,513V511.4c1.74-1.56,3.12-.28,4.56.59a14.8,14.8,0,0,1-.07,1.76Z" transform="translate(1625.52 -395.78)"/><path class="cls-6" d="M-1459.65,521.05c-1.53,1.61-2.87,3.6-5.59,3C-1464.31,521.33-1461.65,521.79-1459.65,521.05Z" transform="translate(1625.52 -395.78)"/><path class="cls-6" d="M-1607.23,571.38c-.06.74-.12,1.48-.17,2.22h-4.49l-.06-.07A4,4,0,0,1-1607.23,571.38Z" transform="translate(1625.52 -395.78)"/><path class="cls-6" d="M-1369.65,632.38a.43.43,0,0,1,0,.44l-2.36-.1V630a2.44,2.44,0,0,1,2.29-1C-1369.71,630.19-1369.65,631.26-1369.65,632.38Z" transform="translate(1625.52 -395.78)"/><path class="cls-4" d="M-791.65,672.57c1-2,1.92-1.55,2.87,0A4.17,4.17,0,0,1-791.65,672.57Z" transform="translate(1625.52 -395.78)"/><path class="cls-9" d="M-1175,651.76l1,.61Z" transform="translate(1625.52 -395.78)"/><path class="cls-9" d="M-1621.09,582.38l-.63,1Z" transform="translate(1625.52 -395.78)"/><path class="cls-10" d="M-1431.95,572c-.5,1.15-1.08,2.26-1.49,3.43-1.78,5.12-.4,8.12,4.68,10,4,1.5,8.07,2.63,12.41,2.35,1.24-.08,2.71-.3,3.63.55,3.27,3,6.8,2.27,10.52,1.22,5.14-1.47,10.32-.9,15.58-.4,8.47.79,17-.13,25.39-.86,7.46-.64,15-.12,22.39-1.19,4.16-.6,8.19-2.11,12.55-1.65,2.59.27,5.26,0,7.79.81,6,1.84,11.85-.58,17.79-.77a13.29,13.29,0,0,1,8.18,0c8.48.19,17-.29,25.44.74,2,.25,3.74.3,3.94,2.88a2.44,2.44,0,0,0,2.5,2.33c1.43.11,2.21-.63,3-1.82,2.41-3.91,3.22-4.11,7.06-1.55a6.38,6.38,0,0,0,7.68-.12,9.54,9.54,0,0,1,8.23-1.26c11,2.85,22.24,2.87,33.38,4.1,7.18.8,14.36,1.73,21.55,2.48a243,243,0,0,0,42.22.74c6.86-.47,13.65,1.18,20.38,2.45a57.07,57.07,0,0,0,10.76,1.08c10.86,0,21.75-.52,32.42,2.22,4,1,8,1.88,11.94,3.14,5.15,1.66,7.29,6.5,10.31,10.38-1,2.89-2.93,5.55-2.3,8.87l-2.17-.79c0-1.62,0-3.23-.15-4.84a2.06,2.06,0,0,0-1.32-2.06,1.69,1.69,0,0,0-2.17,1c-1.15,2.34-3.38,4-4,6.69h-1.4c-.36-1.87-.73-3.73-1.09-5.59.79-1.33,2.19-2.44,1.11-4.32-.91-1.59-2.4-1.31-3.63-1.11-3.63.57-2.15,3-1.61,5a3.49,3.49,0,0,1-3.17,1.59,42.7,42.7,0,0,0-11.75,1.37c-1.54.36-3.46.61-4.66-.56-3.44-3.36-5.89-1.74-8.23,1.27-3.46-1.21-6.93-.14-10.39-.09-.29-1.6-1.4-1.82-2.76-1.72-3.43.25-6.87.46-10.3.69-2.89-.21-5.75-1.15-8.69-.43-2.42-2.18-5.23-1-7.92-1l-1.93.14c-.76-2.07-2.26-3-4.39-2.47-4,1.1-7.9.41-11.77-.81-2.89-.91-5.94-1.56-8.77,0-3.26,1.78-6.45,1.45-9.78.42a23.9,23.9,0,0,0-5.07-1.23c-14.79-1.26-29.65-1.47-44.41-3.09-12.65-1.39-25.46-.49-38-2.81-2.56-.48-5.53-.79-7.51,1.89l-5.23-.48a7.12,7.12,0,0,0-5-2.27,43.51,43.51,0,0,1-12.14-2c-1.56-.48-3.5-1-4.62,1.08-2.73-.23-5.49-.3-8.19-.7-4-.61-7.93,1.49-11.88.55s-7.91-.54-11.86,0c-4.66-3-9.4-2.72-13.12.78l-4.21-.33c-5-1.72-10.28-1.84-15.53-1.71-9.53.23-18.83-.61-28-3.79-4.16-1.45-9.07-2.16-13.09,1.4a20,20,0,0,0-5.86-.66c-1.45-2.5-4.14-2.59-6.48-3.22-9.72-2.63-19.13-6.52-29.3-7.33-.09-.18-.19-.37-.29-.54a17.67,17.67,0,0,0-.08-3C-1447,576.32-1441,572.53-1431.95,572Z" transform="translate(1625.52 -395.78)"/><path class="cls-10" d="M-1019.54,623.63a5.41,5.41,0,0,0-.81-3.21c-2-2.81-.67-4.32,2-5.35,1.52-.59,3.14-1.33,4.72-.94,7.22,1.79,14.1-.3,21-1.68,9.94-2,19.74-1.52,29.68.42,5.55,1.08,11.34.81,17.08.56,9.69-.42,19.41-.15,29.11-.1a12.84,12.84,0,0,0,7.14-1.68,14.08,14.08,0,0,1,9-2c9.43,1.09,18.85-.2,28.27-.07,10.07.15,20.11-1,30.22,0,14.74,1.46,29.58,1.37,44.35,2.78,7.61.72,15.25,1.59,23,1.39,7.53-.19,15.47-1.87,22.77,2,1.65.86,3.15-.06,4.6-.81,1.93.14,4.08-.5,5.68,1,2.85,2.68,6,2.4,9.28,1.25,5.62.42,10.48-2.65,15.92-3.34,7.47-.95,14.81-2.85,22.44-1.23,2.31.49,4.51-.13,5.17-3,6.87-.24,13.51-1.9,20.21-3.21,7.29-1.43,11.13,1.73,11.41,9.17.12,3.37-1.23,6.62-.67,10v.05c-3.9-.35-6.51,2-9.17,4.31-1-.18-1.93-.38-2.9-.54-4.09-.69-5.14,0-6.16,4.16-2.86.18-5.67.52-7-3.08a1.83,1.83,0,0,0-2.41-.95,1.85,1.85,0,0,0-.74.59c-2,2.46-4.58,2.09-7.16,2.1l-21.6.05c-.81-4-3.45-5.37-7.3-5.38-4.17,0-7,2-9.22,5.3-2.8.08-5.73-.22-7.58,2.61-2.18-.73-4.44-.22-6.65-.42-.91-2.64-2.74-3.58-5.24-2.41-2.71,1.27-5.25.91-7.94,0-6.79-2.17-13.6-3.84-20.84-2.12s-14.85.63-22.29.8a5.35,5.35,0,0,1-3.61-1.72c-.16-1.69.11-3.66-2.22-4.15a4.29,4.29,0,0,0-4.33,1.53,5.28,5.28,0,0,0-1.06,3.47c-2,.31-4.29-.53-6.05,1.18l-9.58-.54c-.73-2.19-2.6-2-4.34-2-5.62-.15-11.15,1.13-16.81.83-9-.47-17.94-.61-26.92-.88-2.07-3.22-5.56-2.61-8.61-3.26-2.14-.45-2.61.69-2.68,2.41h-2.25c-2.68-2.33-3.41,1.52-5.3,1.68l-6.58-.22c-.14-.93.15-2.39-1.26-2.28-3.8.3-7.29-1.57-11.1-1.31a67,67,0,0,1-16.78-1.15c-2.52-.45-5-.22-7,1.76l-7.52.06c-2.51-2.3-5-1.61-7.48,0l-4.51.3c-3.11-1.51-6.49-1.47-9.82-1.72-7.26-.54-14.39.88-21.58,1.46C-999.6,626.84-1009.6,625.56-1019.54,623.63Z" transform="translate(1625.52 -395.78)"/><path class="cls-11" d="M-1282.75,536.76l4.16.66c2,2.11,4.43,2.58,7.15,2.32l3.68.16c7.49,3,15.56,2.93,23.36,4.25l3.64.14c4.38,1.28,8.94,1.29,13.41,2,1.55.25,3.21.44,4.62-.67,9,2.42,18.35,1.43,27.51,1.9,4.37.22,8.94-.14,13.41-.36a4.49,4.49,0,0,0,2.74-1c1.33-1.09,2.47-.75,4.07-.18a20.21,20.21,0,0,0,14.15.29c2.87-1.1,5.39-1.49,8.27-.32,3.92,1.59,8.18.14,12.23,1.14,2,.49,3.84.79,5.29,2.42s3.88,1.64,5.92,1.59a181.53,181.53,0,0,1,29.1,1.49c5.19.71,10.64-.43,16-.74,7,1.23,13.92,2,20.34-2.14l2.18-.18c4.38,0,9,1.24,12.73-2.25l3.63-.18c7.34-.84,14.69-1.66,21.87-3.53,1.71-.44,3.42-1,5.23-.5.26.47.52.94.79,1.41,0,1.49-.64,3.09-2,3.16-5.39.29-10.35,4.61-16.08,1.75a3.57,3.57,0,0,0-3.53.34,13.72,13.72,0,0,1-6.8,1.51c-3.56.18-7.32-1.24-10.56,1.35-2.66.2-5.66-.73-7.5,2.23L-1084,555h-2.93l-2.3.5h-8.93c-2.45-1.05-4.79-1.26-6.86.83-10.56-.77-21.24-.8-31.65-2.51-12.82-2.1-25.84-1.87-38.61-4.18-5.56-1-10.86,1.14-16.28,1.78a34.87,34.87,0,0,1-9.68,0c-4.56-.72-9.09-1.34-13.75-.48-3.62.67-7.2-.44-10.7-1.36-3.33-.88-6.41-.68-9.26,1.35a3.14,3.14,0,0,1-3.85.24c-4.82-3.58-9.91-2.37-15.07-1.12-1.86.45-4.63,2-3.66-2.3a1,1,0,0,0-.68-1.18c-.82-.25-1.06.4-1.3,1-.83,2-2.25,2.62-3.6.78-2.88-3.91-7-4.51-11.29-4.65h-.81l-1.39-.12c-.53-1.47-.81-3.37-2.81-3.32s-2.49,1.73-3,3.24a7.07,7.07,0,0,0-.27,1.43c-2.15.77-4.35,1.75-5.46-1.46-.21-.62-1-1.23-1.43-.86-2.75,2.41-3.31-.2-4.54-1.73-1.84-2.3-4.68-2-7.21-2.38-5.57.25-11.14-1.84-16.71.08-3.47,1.2-6.65.72-9.28-2.06.16-1.54,1.09-2,2.52-1.87,2.3.2,4.61.33,6.91.49a5.46,5.46,0,0,0,6.8-.16l2.9-.25c3.14,2.32,6.46,1.73,9.82.65l9.71,1C-1286.87,538.19-1284.82,537.6-1282.75,536.76Z" transform="translate(1625.52 -395.78)"/><path class="cls-11" d="M-714.33,583.43c-.55,2-2.2,2.18-3.87,2.12-17.64-.55-35.06,2.09-52.55,3.68a3.9,3.9,0,0,1-1.86,0c-5.64-2.57-11.27-.69-16.92-.07-6.3.69-12.35-1.53-18.56-1.88-4.58-.26-9.28.16-13.34-2.78-1-.75-2.15-1.27-2.45-2.63l.63-.67c2.75.4,4.45,3.61,7.77,2.68a32,32,0,0,1,14.31-.73,46,46,0,0,0,16.13-.33c5.62-1,11.57-.19,17.37-.16,2.07,2.14,4.39,1.89,6.81.7h3c1.88,1.22,3.67,1.34,5.29-.46l14.19-.46c1.79,1.31,3.58,1,5.35,0a76,76,0,0,0,16.37-.39Z" transform="translate(1625.52 -395.78)"/><path class="cls-11" d="M-657.91,625.47c-.56-3.38.79-6.63.67-10-.28-7.44-4.12-10.6-11.41-9.17-6.7,1.31-13.34,3-20.21,3.21,0-2.37-.18-4.73,1-7,.87-1.6.14-2.9-1.23-3.86-2.56-1.79-2.46-3.69-.51-5.94,2.87-3.33,2.44-5.49-1.51-7.55-4.77-2.48-9.87-2.34-15-1.55-1.86.28-3.69.86-5.34-.58l.86-2.69,7.3-1.83c2.5.66,4.84,2.63,7.63.92a20.59,20.59,0,0,1,8.29,2.32c-.1,2.53,1.38,3.57,3.66,3.83a20.05,20.05,0,0,1,2.19,10.51c-.2,2-1.67,3.77-.57,5.88,1.31,3,2.78,3.19,5.94.87,5.7-.73,11.39-1.31,17,.23.37,1.54,1.66,2.46,2.51,3.67C-652.85,612.13-653.46,620.84-657.91,625.47Z" transform="translate(1625.52 -395.78)"/><path class="cls-10" d="M-1372,561.58a24.42,24.42,0,0,1,1.5,8.25,13.56,13.56,0,0,1-2.5-1.45c-1.71-1.5-3.37-2.1-5.08-.13s-1.51,3.81.14,5.6c.91,1,2,1.82,3,2.72a17.81,17.81,0,0,1-11,5.66c-5.39.64-10.58-3.2-12.5-9-.57-1.7-.57-3.81-3-4.25a6.7,6.7,0,0,1,3.83-1.31c3.21,0,6.42.27,9.64.43,3.11.56,6,.28,7.81-2.7C-1378.22,562.25-1375.43,561.29-1372,561.58Z" transform="translate(1625.52 -395.78)"/><path class="cls-8" d="M-1327.43,536.46c2.63,2.78,5.81,3.26,9.28,2.06,5.57-1.92,11.14.17,16.71-.08,0,3.95-4.6,5.12-5.28,8.68a2,2,0,0,1-1.3-.09c-4.5-4.16-9.63-2.19-14.6-1.5-1.7.23-3.2.22-4.56-.94a2.74,2.74,0,0,0-3.13-.31c-3.7,1.57-7.3.84-10.86-.65-2.06-.87-3.27-2.21-3-4.57,1.31-.64,2.69-1.21,3-2.9,2-.3,4-.9,6,0,1.83,1.69,3.77,1.56,5.78.35Z" transform="translate(1625.52 -395.78)"/><path class="cls-11" d="M-1019.54,623.63c9.94,1.93,19.94,3.21,30.07,2.4,7.19-.58,14.32-2,21.58-1.46,3.33.25,6.71.21,9.82,1.72-2.35,2.2-5.23,2.08-8.08,1.69a29.37,29.37,0,0,0-7.07-.23,220.05,220.05,0,0,1-48.81,0c-6.64-.76-13.32-1.9-20.06-.33a6.35,6.35,0,0,1-6-1.41,4.57,4.57,0,0,1,4.07-1.16c2.1.35,3.58-.38,4.24-2.49,1.87,0,3.81-.37,5.51.61,3.21,1.87,6.64,1.91,10.16,1.52A8.4,8.4,0,0,0-1019.54,623.63Z" transform="translate(1625.52 -395.78)"/><path class="cls-12" d="M-888.23,533.34c.14,3.54-1.25,4.64-5,3.2-4.06-1.57-8.11-3.21-11.55-6-3.81-3.08-3.57-7.19.65-9.76a23.67,23.67,0,0,1,11-3.23c3.47-.22,3.75.8,3.63,4.29C-889.58,525.51-888.71,529.19-888.23,533.34Z" transform="translate(1625.52 -395.78)"/><path class="cls-11" d="M-834,543.57c.64,1.44.58,3.35,2.6,3.85l.51,1.29c-2.92,5.17-3.44,11.47-7.64,16a1.72,1.72,0,0,0,.36,2.41,1.57,1.57,0,0,0,.31.18c4.65,2.77,7.88,7.2,12.21,10.32a5.41,5.41,0,0,1,2.38,3.52l-.63.67c-5.5-2.15-9.81-6.33-15.2-8.76-3-1.37-3.81-9-1.79-13.22,1.2-2.48,1.72-4.49-2.71-6.27,5.78-.31,7-2.69,5.8-6.81C-838.75,543.38-836.15,543.61-834,543.57Z" transform="translate(1625.52 -395.78)"/><path class="cls-11" d="M-1431.95,572c-9.07.5-15,4.29-12.92,15.18a17.67,17.67,0,0,1,.08,3c-3.26-.46-4-2.85-4.4-5.61-.72-5.59,2.65-9.63,5.28-14,4.8-2.82,10.33-1.94,15.49-3,2.52-.51,5.14-.58,7.71-.84,1.72,1.19,3.26,1.08,4.56-.65a15.13,15.13,0,0,1,5.8.4l1.68.66c-1,2.18-3,2.33-5,2.57C-1419.73,570.51-1425.84,571.28-1431.95,572Z" transform="translate(1625.52 -395.78)"/><path class="cls-12" d="M-871.84,529.67c.09-2.26.06-4.45-1.35-6.44-1.53-2.17-.36-4.47.54-6.31s3.2-1.57,5.08-1.35a13.63,13.63,0,0,1,6.14,2.59,3.11,3.11,0,0,1,1.54,3.52c-1.42,4.79-3,9.51-7.8,12.15-3.32,1.83-4.11,1.41-4.15-2.29C-871.85,530.92-871.84,530.29-871.84,529.67Z" transform="translate(1625.52 -395.78)"/><path class="cls-11" d="M-1387.93,568.13c-3.22-.16-6.43-.39-9.64-.43a6.7,6.7,0,0,0-3.83,1.31c-2,0-4.16.54-5.12-2,3-1.15,6-2.53,9.23-3,4-.61,4.45-1.19,2.86-5.13a15.13,15.13,0,0,1,2.15-15.87c1.2-1.58,2.59-3,3.9-4.53l2.74-.42c2.84.09,5.65-.8,8.5-.25-2,2.55-4.72,3.41-7.78,3.6-2.75.17-4.43,1.4-4.38,4.37-2.72,1.15-4.79,2.94-4.32,6.12.39,2.7-.23,6.35,4.28,6.5.82,0,1.08.9,1.5,1.5C-1385.89,562.64-1386.21,565.39-1387.93,568.13Z" transform="translate(1625.52 -395.78)"/><path class="cls-13" d="M-1387.93,568.13c1.72-2.74,2-5.49.09-8.28-.42-.6-.68-1.47-1.5-1.5-4.51-.15-3.89-3.8-4.28-6.5-.47-3.18,1.6-5,4.32-6.12,0,2.24,0,4.49.1,6.73.15,4.29,1.48,5.2,5.72,4.08,2.75-.73,5.38-2,8.38-1.36,4.49,1,5.09,2.12,3.12,6.4-3.45-.29-6.24.67-8.14,3.85C-1381.91,568.41-1384.82,568.69-1387.93,568.13Z" transform="translate(1625.52 -395.78)"/><path class="cls-13" d="M-1375,576.57c-1-.9-2-1.74-3-2.72-1.65-1.79-1.78-3.73-.14-5.6s3.37-1.37,5.08.13a13.56,13.56,0,0,0,2.5,1.45c4-1.09,8.14-.48,12.12-1.91,2.6-.93,6.42,2.48,6.54,5.3.1,2.07-.71,3.82-3,2.84C-1361.65,573.19-1368.3,574.85-1375,576.57Z" transform="translate(1625.52 -395.78)"/><path class="cls-14" d="M-1388.38,538.43c-1.31,1.51-2.7,3-3.9,4.53a15.13,15.13,0,0,0-2.15,15.87c1.59,3.94,1.16,4.52-2.86,5.13-3.25.5-6.2,1.88-9.23,3l-2.13.23-1.68-.66c8.78-4.78,12.45-12.46,13.25-22.16C-1396.73,539.87-1393.79,538.33-1388.38,538.43Z" transform="translate(1625.52 -395.78)"/><path class="cls-13" d="M-732.39,617c-3.3,1.15-6.43,1.43-9.28-1.25-1.6-1.49-3.75-.85-5.68-1,.35-2.34.63-4.69,1.08-7a2.57,2.57,0,0,1,2.08-2.37c1.2-.18,1.69.77,2.29,1.58,2.85,3.86,4,4,7.78,1,1-.82,2-2.32,3.5-1.28,1.2.84,1,2.37.84,3.79C-730.08,612.92-731.65,614.82-732.39,617Z" transform="translate(1625.52 -395.78)"/><path class="cls-11" d="M-980.48,536.42l2.82-.65.18.43c1.33.85,2.85.58,4.3.73V539c-4,.18-8.53-.66-10.42,4.5-3.43.13-7-.33-9.78,2.45a2,2,0,0,1-2.75.12c-2.45-2.33-5.17-1.48-8-1.25-3.36.28-6.88,1.08-10.16-.66,2.58-2.62,6-1.47,9.07-2,5.87-1.08,12.13-.35,17.46-3.88l3.45-.34C-982.48,538.87-981.37,537.94-980.48,536.42Z" transform="translate(1625.52 -395.78)"/><path class="cls-10" d="M-1024.07,624.47c-3.52.39-7,.35-10.16-1.52-1.7-1-3.64-.63-5.51-.61-4.9-.56-5.8-1.56-6.06-6.78,3.86-.06,7.72-.25,11.32,1.6a4.33,4.33,0,0,0,3.26.08c5.24-1.45,6.63-.46,7.12,5C-1024,623-1024.07,623.73-1024.07,624.47Z" transform="translate(1625.52 -395.78)"/><path class="cls-12" d="M-832.76,507.42l-.78.35a69.12,69.12,0,0,0-7-.92c-2.87-.1-4.6,1-3.4,4.32.7,2,.62,4.11,1.14,6.17s-.55,3.33-3,2.59c-3-.91-4.42-2.78-4.43-6,0-3.82,2.18-7.09,2.44-10.82l2.19-1.68a9.7,9.7,0,0,0,6.81,2.39C-836,503.62-834.2,505.24-832.76,507.42Z" transform="translate(1625.52 -395.78)"/><path class="cls-8" d="M-1353.21,535.36l5.16,1.27c.27.79.54,1.58.8,2.37,0,1.12.11,2.24.13,3.35,0,.94.92,2.13-.14,2.75s-2.33-.27-2.87-1.14c-4.64-7.41-10.61-4-16.27-2-4.71,1.7-7.11.52-7.84-4.36,1.81-1.37,3.46-.05,5.19.27,2.22.42,4.6,1.38,6.1-1.41a14,14,0,0,1,5.91.12C-1355.6,537-1354,537.19-1353.21,535.36Z" transform="translate(1625.52 -395.78)"/><path class="cls-13" d="M-1045.8,615.56c.26,5.22,1.16,6.22,6.06,6.78-.66,2.11-2.14,2.84-4.24,2.49A4.57,4.57,0,0,0-1048,626h-5.22c-.09-1.29,0-2.63-.8-3.77-.63-3.32,1.27-6,2.3-8.87C-1049.36,613-1047.52,614.1-1045.8,615.56Z" transform="translate(1625.52 -395.78)"/><path class="cls-14" d="M-987.78,538.24c-5.33,3.53-11.59,2.8-17.46,3.88-3,.57-6.49-.58-9.07,2l-3,.28c-.27-.47-.53-.94-.79-1.41,1.15-2.53,3.42-2.86,5.84-3.25,6.33-1,13-.1,19-3C-991.34,537-989.25,536.44-987.78,538.24Z" transform="translate(1625.52 -395.78)"/><path class="cls-13" d="M-1084.07,554.93l20.26-.15c-.09,1.3-.39,2.62-1.89,2.82-5.38.74-10.79,1.84-16.12-.41A3.38,3.38,0,0,1-1084.07,554.93Z" transform="translate(1625.52 -395.78)"/><path class="cls-8" d="M-983.59,543.5c1.89-5.16,6.38-4.32,10.42-4.5-.75,2.69-1.83,5.1-4.28,6.79C-981.55,548.62-982.16,548.45-983.59,543.5Z" transform="translate(1625.52 -395.78)"/><path class="cls-13" d="M-1056.31,552.55c3.24-2.59,7-1.17,10.56-1.35.3.68.57,1.37.9,2,.49,1,1.46,2,.47,3s-2.07.32-3-.38c-1.11-.86-2.31-1.2-3.37-.13-3.09,3.1-4.12.88-5-1.84C-1055.89,553.47-1056.12,553-1056.31,552.55Z" transform="translate(1625.52 -395.78)"/><path class="cls-8" d="M-877.09,464.89c.17-3.15,2.79-5.67,2.27-9,.91-.37,1.83-.72,2.73-1.11s1.64-1.56,2.63-.91.63,2,.46,3.09C-869.76,461.53-873.11,464.76-877.09,464.89Z" transform="translate(1625.52 -395.78)"/><path class="cls-5" d="M-921.51,494.87c.38-1.45-.62-3.69,1.5-4.1,1.91-.36,3,1.4,3.75,3a7.1,7.1,0,0,1,.79,2.46c.1,1.65,1.5,4-1.25,4.59-2.48.56-3.89-1.13-4.5-3.4A16.73,16.73,0,0,1-921.51,494.87Z" transform="translate(1625.52 -395.78)"/><path class="cls-14" d="M-1377.14,537.76c-2.85-.55-5.66.34-8.5.25,3.92-6,11.22-7.7,16-3.72-2.24.75-5.33-.16-6.28,3.17Z" transform="translate(1625.52 -395.78)"/><path class="cls-8" d="M-1292.53,585.53a13.29,13.29,0,0,0-8.18,0c0-1.82-2.66-3.84-.34-5.32s5.27-.68,7.7.7C-1291.34,582.06-1292.1,583.87-1292.53,585.53Z" transform="translate(1625.52 -395.78)"/><path class="cls-11" d="M-1375.91,537.46c1-3.33,4-2.42,6.28-3.17l5.14,1c.24.75.93,1,1.54,1.24-1.5,2.79-3.88,1.83-6.1,1.41-1.73-.32-3.38-1.64-5.19-.27Z" transform="translate(1625.52 -395.78)"/><path class="cls-8" d="M-706.21,591.32c-.2,1.74-1.09,3.11-3,3-1.69-.07-4.24-.59-4.08-2.31s2.48-3,4.54-3.26C-707.06,588.55-706.29,589.61-706.21,591.32Z" transform="translate(1625.52 -395.78)"/><path class="cls-8" d="M-1282.8,544.87a7.84,7.84,0,0,1,.27-1.43c.56-1.51,1.2-3.2,3-3.24s2.28,1.85,2.81,3.32a4.82,4.82,0,0,0-2.94,2.12c-.52.76-.75,2.11-2,1.76S-1282.65,545.82-1282.8,544.87Z" transform="translate(1625.52 -395.78)"/><path class="cls-8" d="M-1155.2,576.54c.41-1.45.58-3.31,2.68-3.33,1.4,0,1.79,1.27,1.52,2.45-.36,1.62-.48,3.72-2.87,3.58C-1155.34,579.19-1155.19,577.74-1155.2,576.54Z" transform="translate(1625.52 -395.78)"/><path class="cls-8" d="M-1022.72,593.25c1.34.09,2.25.71,2.18,2-.11,2.2-1.8,2.76-3.6,2.85-.94,0-2.31-.19-2-1.51A4.11,4.11,0,0,1-1022.72,593.25Z" transform="translate(1625.52 -395.78)"/><path class="cls-11" d="M-1347.25,539c-.26-.79-.53-1.58-.8-2.37,2.3.21,4.4-2.51,6.82-.47-.29,1.69-1.67,2.26-3,2.9Z" transform="translate(1625.52 -395.78)"/><path class="cls-11" d="M-846.09,543.62a4.82,4.82,0,0,1,3.21-3.21c1.06-.29,1.57.63,1.42,1.64a3.66,3.66,0,0,1-3.08,3.31C-845.58,545.54-846.1,544.81-846.09,543.62Z" transform="translate(1625.52 -395.78)"/><path class="cls-8" d="M-882.27,468.63a3.8,3.8,0,0,1,.74-3l4.45-.75C-876.85,468.83-879.59,468.69-882.27,468.63Z" transform="translate(1625.52 -395.78)"/><path class="cls-14" d="M-710.56,580.39l-.86,2.69-2.91.35-2.33-1.47C-715.13,579.47-712.65,580.56-710.56,580.39Z" transform="translate(1625.52 -395.78)"/><path class="cls-8" d="M-845.65,501.44l-2.19,1.68a5.6,5.6,0,0,1-2.26-5.26C-847.15,497.27-847.14,500.29-845.65,501.44Z" transform="translate(1625.52 -395.78)"/><path class="cls-13" d="M-1105.09,556.3c2.07-2.09,4.41-1.88,6.86-.83C-1100.2,558.36-1102.81,556-1105.09,556.3Z" transform="translate(1625.52 -395.78)"/><path class="cls-8" d="M-967.56,532.4c.23-1.69,0-3.57,2-4.51C-964.53,530.19-964.55,531.94-967.56,532.4Z" transform="translate(1625.52 -395.78)"/><path class="cls-8" d="M-973.18,536.93c-1.45-.15-3,.12-4.3-.73,1.78-.26,3.12-2.09,5.16-1.43Z" transform="translate(1625.52 -395.78)"/><path class="cls-13" d="M-1089.3,555.44l2.3-.5c-.17.89.14,2.19-1.11,2.33S-1089.15,556.19-1089.3,555.44Z" transform="translate(1625.52 -395.78)"/><path class="cls-8" d="M-1275.28,543.64Z" transform="translate(1625.52 -395.78)"/><path class="cls-14" d="M-1053.27,626h5.22a6.35,6.35,0,0,0,6,1.41c6.74-1.57,13.42-.43,20.06.33a220.05,220.05,0,0,0,48.81,0,29.37,29.37,0,0,1,7.07.23c2.85.39,5.73.51,8.08-1.69l4.51-.3c2.5,1.8,5,2.7,7.48,0l7.52-.06a5.15,5.15,0,0,0,4,1.66c10.67.75,21.31,2.11,32,1.35l6.58.22c1.49,2.66,3.64-.18,5.35.64,1.57,1.52,3.54,1.59,5.56,1.65,3.72.11,7.44-.4,11.17.19a113.66,113.66,0,0,0,26.77.92c6-.48,12.18-.28,18.06-2.18l9.58.54a2.66,2.66,0,0,0,2.73,1.59c10.94.3,21.82,2.59,32.78,1.54,6.41-.62,12.64,0,19,.71s12.81,2.19,19.12-.46c2.21.2,4.47-.31,6.65.42.94,2.33,3,1.82,4.81,1.85,13.59.19,27.14-1.5,40.75-.9a194.24,194.24,0,0,0,20.19.09c6.91-.42,12.87-3,15.52-10.21v0c4.45-4.63,5.06-13.34,1.35-18.68-.85-1.21-2.14-2.13-2.51-3.67,3.85-1.43,6.64-.08,7.63,3.83.61,2.42.83,5,1.59,7.31a13.29,13.29,0,0,1-.72,10.18q-3,6.44-6.07,12.88l-18.62,9c-4.56-.69-8.72,1.44-13.16,1.8-6.22.5-12.42,1.21-18.67,1.11-.75,0-1.81.14-2.18-.27-2.75-3-5.23-1.61-8,0a8.64,8.64,0,0,1-5.85.9,65.54,65.54,0,0,0-18.23-.64c-16.85,1.37-33.67-1.74-50.5-.64-19.74,1.29-39.43-.67-59.09-1.25-19.2-.56-38.39-1.69-57.62-1.95-7.84-.11-15.68-1.15-23.49-2s-15.69,1-23.57.54c-17.43-1.07-35-.26-52.28-3.38-4.6-.83-9.47-.24-14.21-.28-14.75-.14-29.39-1.82-44.08-2.8-11.54-.77-23.08-2.45-34.48,1.78-7.46,2.77-15.06-.47-22.61-.73-13.74-.47-27.29-2.81-41-3.62-12.09-.71-24.28-2.29-36.23-1.77-18.89.82-37-2.72-55.27-6-11.92-2.1-23.87-4-35.65-6.86-6.24-1.53-12.69-.32-19-.27a15.4,15.4,0,0,0-7.7-1.15c-11.85.67-23.28-2.12-34.84-3.78-2.53-.36-4.93-.6-7.35.35-3.14,1.23-6.42.8-9.64.61-15.66-.94-31.31-2.16-47-3a93.39,93.39,0,0,1-28.45-6c-8.7-3.37-14.94-9.38-17.42-18.68-1.14-4.29.37-8,3.47-10.84,3.41-3.14,7.93-4.64,11.85-7,1.14-.7,2.43-.26,3.65.07-2.63,4.32-6,8.36-5.28,13.95.35,2.76,1.14,5.15,4.4,5.61.1.17.2.36.29.54a3.29,3.29,0,0,0,2.9,3.65h.1c8,.94,15.11,4.91,22.92,6.41,3.23.63,6.5,1.82,9.85.48a20,20,0,0,1,5.86.66c1.77,1.8,4.09,1.67,6.3,1.61a28.22,28.22,0,0,1,12.41,2.18,27.53,27.53,0,0,0,6.51,1.65c8,1.33,16.21.69,24.23,1.79,3.34.46,5.6-.17,7.15-3.13l4.21.33c4.48,1.52,8.88,1.68,13.12-.78,4-.58,7.86-1,11.86,0s7.85-1.16,11.88-.55c2.7.4,5.46.47,8.19.7,3.35,2,7.18,2.48,10.89,3.28s7.26,1.36,10.87-.07l5.23.48a5.61,5.61,0,0,0,3.15,1c11.46,1.88,23.07,2.14,34.62,3.1,24.34,2,48.71,3.69,73,6.38,6.38.7,13,1.07,19-2.38l1.93-.14c2.59,3.45,4.36,3.66,7.92,1,2.94-.72,5.8.22,8.69.43,4,4.34,8.54,2.78,13.06,1,3.46,0,6.93-1.12,10.39.09.84.66,1.46,1.86,2.74,1.61,5.32-1,10.33,1.5,15.57,1.29.7.89,1.41,1.85,2.66,1.82C-1069.25,624.38-1061.36,626.9-1053.27,626Z" transform="translate(1625.52 -395.78)"/><path class="cls-4" d="M-1602.22,611.86l-2.87-.25c-1-2.88-3.77-3.42-6-4.65-4.91-2.72-8.88-6-8.46-12.36,4.11,3.13,7.77,6.68,12.87,8.71C-1604.44,604.19-1602.08,608.12-1602.22,611.86Z" transform="translate(1625.52 -395.78)"/><path class="cls-4" d="M-1424.29,627.19c-4.84.77-9.69.24-14.54.22a14.43,14.43,0,0,0,0-1.86c-.43-4.73-.44-4.73,4.53-4.73-1,3.35,1,3.68,3.54,3.78C-1428.34,624.7-1425.26,623.45-1424.29,627.19Z" transform="translate(1625.52 -395.78)"/><path class="cls-14" d="M-1244.4,544.19c-7.8-1.32-15.87-1.2-23.36-4.25C-1259.43,538.36-1251.38,538.32-1244.4,544.19Z" transform="translate(1625.52 -395.78)"/><path class="cls-14" d="M-1023.31,543.53c-7.18,1.87-14.53,2.69-21.87,3.53C-1038.55,541.82-1031.24,540.79-1023.31,543.53Z" transform="translate(1625.52 -395.78)"/><path class="cls-3" d="M-1318.65,630.89a18.32,18.32,0,0,1-13.54.38v-3.72h8.86C-1321.11,627.67-1319.19,628.32-1318.65,630.89Z" transform="translate(1625.52 -395.78)"/><path class="cls-14" d="M-1063.72,549.67c-6.42,4.14-13.36,3.37-20.34,2.14,2.11-2.48,5.17-1.91,7.83-2.11C-1072.08,549.38-1067.89,549.65-1063.72,549.67Z" transform="translate(1625.52 -395.78)"/><path class="cls-14" d="M-1222.73,545.62c-1.41,1.11-3.07.92-4.62.67-4.47-.71-9-.72-13.41-2,.72-1.56,2.17-1.54,3.51-1.49C-1232.27,543-1227,542-1222.73,545.62Z" transform="translate(1625.52 -395.78)"/><path class="cls-4" d="M-1619.56,591.54c-1.34-5.36.47-9.45,5.32-12C-1615.65,583.69-1615.91,588.37-1619.56,591.54Z" transform="translate(1625.52 -395.78)"/><path class="cls-14" d="M-1362.95,536.49c-.61-.29-1.3-.49-1.54-1.24,3.25-3.15,7.74-3.1,11.28.11-.8,1.85-2.39,1.59-3.83,1.25A14,14,0,0,0-1362.95,536.49Z" transform="translate(1625.52 -395.78)"/><path class="cls-14" d="M-1048.81,547.24c-3.76,3.49-8.35,2.25-12.73,2.25C-1057.81,545.87-1053.41,546-1048.81,547.24Z" transform="translate(1625.52 -395.78)"/><path class="cls-14" d="M-1298.48,535.32c-3.36,1.08-6.68,1.67-9.82-.65C-1303.37,532.25-1301.32,532.39-1298.48,535.32Z" transform="translate(1625.52 -395.78)"/><path class="cls-4" d="M-1449.22,626a3.92,3.92,0,0,1-.84,2.46c-2-.14-4.14.7-5.9-.94C-1454.65,624-1453.33,623.66-1449.22,626Z" transform="translate(1625.52 -395.78)"/><path class="cls-4" d="M-1340.6,509.52c2.68-3.29,6-1.46,9.14-1.13C-1334.11,511.93-1337.36,510.74-1340.6,509.52Z" transform="translate(1625.52 -395.78)"/><path class="cls-14" d="M-1271.44,539.74c-2.72.26-5.2-.21-7.15-2.32C-1274.93,535.65-1273.65,536.08-1271.44,539.74Z" transform="translate(1625.52 -395.78)"/><path class="cls-14" d="M-1311.2,534.92a5.46,5.46,0,0,1-6.8.16C-1315.8,532.36-1313.53,532.42-1311.2,534.92Z" transform="translate(1625.52 -395.78)"/><path class="cls-14" d="M-1282.75,536.76c-2.07.84-4.12,1.38-6-.39C-1286.19,533.49-1285.46,533.53-1282.75,536.76Z" transform="translate(1625.52 -395.78)"/><path class="cls-11" d="M-1329.48,536.48c-2,1.21-4,1.34-5.78-.35C-1333.22,534.42-1331.23,533.44-1329.48,536.48Z" transform="translate(1625.52 -395.78)"/><path class="cls-4" d="M-1611.89,573.61h4.49c-.2,3.17-2.35,3.1-4.64,2.79Z" transform="translate(1625.52 -395.78)"/><path class="cls-4" d="M-1332.21,627.55v3.72h-3v-3.79Z" transform="translate(1625.52 -395.78)"/><path class="cls-14" d="M-1416.15,566.19c-1.3,1.73-2.84,1.84-4.56.65C-1419.47,564.64-1417.91,564.72-1416.15,566.19Z" transform="translate(1625.52 -395.78)"/><path class="cls-2" d="M-656.65,637.32q3-6.44,6.07-12.88a13.33,13.33,0,0,0,.72-10.18c-.76-2.36-1-4.89-1.59-7.31-1-3.91-3.78-5.26-7.63-3.83-5.66-1.54-11.35-1-17-.23-1.82-1.4-3.93-.78-5.94-.87-1.1-2.11.37-3.93.57-5.88a20.05,20.05,0,0,0-2.19-10.51c.06-2.5-1.11-3.82-3.66-3.83a20.59,20.59,0,0,0-8.29-2.32c-3.35-3.49-5.22-3.72-7.63-.92l-7.3,1.83c-2.12.17-4.57-.92-6.1,1.57a76,76,0,0,1-16.37.39c-1.8-2.8-3.59-2.94-5.35,0l-14.19.46c-2-2.41-3.68-1.42-5.29.46h-3c-2-2.67-4.34-2.39-6.81-.7-5.8,0-11.75-.85-17.37.16a46,46,0,0,1-16.13.33,32,32,0,0,0-14.31.73c-3.32.93-5-2.28-7.77-2.68a5.41,5.41,0,0,0-2.38-3.52c-4.33-3.12-7.56-7.55-12.21-10.32a1.72,1.72,0,0,1-.86-2.28,2,2,0,0,1,.19-.31c4.2-4.58,4.72-10.88,7.64-16,15.37,2.3,30.45-.9,45.62-2.38,7.17-.69,14.38-.92,21.56-1.36,16.76,12.83,35.76,18.29,56.74,17.41,6.75-.28,12.79-3.21,19.19-4.8a25.35,25.35,0,0,1,7.42-.69c4.77.24,7.9,2.56,9.4,7.19,2.66,8.17,5.27,16.38,8.89,24.2,2.09,4.54,4,9.22,9.13,11.33a2.07,2.07,0,0,1,1.41,1.61c1,6.37,4.5,11.89,6.17,18a26.39,26.39,0,0,1,.89,5.51c.23,5.61-1.69,8.51-6.94,10.67C-653.11,636.19-654.89,636.69-656.65,637.32Z" transform="translate(1625.52 -395.78)"/><path class="cls-6" d="M-1206,645.13c-.55.28-1.22.93-1.62.79-4-1.4-8.17-1.32-12.36-1-1.22.1-1.77-1.16-2.06-2.3,3.83-.23,7.52-1.73,11.54-.28C-1208.72,643-1207.11,643.5-1206,645.13Z" transform="translate(1625.52 -395.78)"/><path class="cls-4" d="M-1231,642.54V641c.11-1.41-.31-3.15,1.73-3.55a3.62,3.62,0,0,1,4.22,2.19,21.87,21.87,0,0,1,.87,2.78Z" transform="translate(1625.52 -395.78)"/><path class="cls-4" d="M-1287.1,634.87l-7-.06C-1291.44,631-1289.65,631.05-1287.1,634.87Z" transform="translate(1625.52 -395.78)"/><path class="cls-14" d="M-980.48,536.42c-.89,1.52-2,2.45-3.85,1.48a2.83,2.83,0,0,1,3.69-1.55Z" transform="translate(1625.52 -395.78)"/><path class="cls-1" d="M-817.54,433.36c.74-8.27,2.2-16.23,9-22,1.59-1.36.69-4.28,3.06-5.27a30.25,30.25,0,0,1,2.35,2.32c.91,1.13,1.88,2.09,3.41,1.38a3.25,3.25,0,0,0,1.79-3.69c-.13-1-.4-1.92-.6-2.88,2.12-4.84,2.6-4.87,7-2.16s5.58,6.29,4.84,11.4c-1.74,12.12-9.26,20.74-16.78,29.43a5.78,5.78,0,0,1-4.72,1.91c-1.24-1.66-3.13-2.42-4.81-3.48-.88-.55-1.9-1.25-1.23-2.35C-811.51,433.55-814.5,433.47-817.54,433.36Z" transform="translate(1625.52 -395.78)"/><path class="cls-8" d="M-768.07,425.7c-.23,1.12-.55,2.42,1,2.72,2,.38,1.26-1,1.34-2.11a2.7,2.7,0,0,1,2.06-2.41c1.11-.32,1.55.55,2,1.32.72,1.35,2.74,2.82,1.24,4.26-6.49,6.23-11.31,14.49-20.56,17.44a6.33,6.33,0,0,1-8.09-3.83,6.25,6.25,0,0,1-.3-3.06c.21-2.15,1.1-3.36,3.38-2.66,3.69,1.14,5-.77,5.55-4,.79-4.89,4.09-7.89,8.2-10C-769.41,421.92-767.84,423-768.07,425.7Z" transform="translate(1625.52 -395.78)"/><path class="cls-8" d="M-817.54,433.36c3,.11,6,.19,3.34,4.57-.67,1.1.35,1.8,1.23,2.35,1.68,1.06,3.57,1.82,4.81,3.48-3.71,3.63-7.18,3-9.1-1.59C-818.46,439.28-819.41,436.36-817.54,433.36Z" transform="translate(1625.52 -395.78)"/><path class="cls-8" d="M-798.5,403.19c.2,1,.47,1.92.6,2.88a3.25,3.25,0,0,1-1.79,3.69c-1.53.71-2.5-.25-3.41-1.38a30.25,30.25,0,0,0-2.35-2.32C-804.09,402.77-800.95,403.82-798.5,403.19Z" transform="translate(1625.52 -395.78)"/><path class="cls-9" d="M-788.18,428.5a2.07,2.07,0,0,1,.15.34c.39,1.67.56,3.3-1.59,3.87a1.11,1.11,0,0,1-1.41-.66,1.11,1.11,0,0,1-.05-.54c0-1.9.76-3.11,2.87-3Z" transform="translate(1625.52 -395.78)"/><path class="cls-4" d="M-1369.65,632.38V629c3.76-.43,7.86-2.56,10.58,2.15-1.44.12-2.91.15-3.83,1.56A21,21,0,0,0-1369.65,632.38Z" transform="translate(1625.52 -395.78)"/><path class="cls-11" d="M-1140.26,617.49c-6,3.45-12.6,3.08-19,2.38-24.29-2.69-48.66-4.35-73-6.38-11.55-1-23.16-1.22-34.62-3.1a5.61,5.61,0,0,1-3.15-1c2-2.68,5-2.37,7.51-1.89,12.59,2.32,25.4,1.42,38,2.81,14.76,1.62,29.62,1.83,44.41,3.09a23.9,23.9,0,0,1,5.07,1.23c3.33,1,6.52,1.36,9.78-.42,2.83-1.55,5.88-.9,8.77,0,3.87,1.22,7.72,1.91,11.77.81C-1142.52,614.44-1141,615.42-1140.26,617.49Z" transform="translate(1625.52 -395.78)"/><path class="cls-11" d="M-1346.26,606c-1.55,3-3.81,3.59-7.15,3.13-8-1.1-16.21-.46-24.23-1.79a27.53,27.53,0,0,1-6.51-1.65,28.22,28.22,0,0,0-12.41-2.18c-2.21.06-4.53.19-6.3-1.61,4-3.56,8.93-2.85,13.09-1.4,9.15,3.18,18.45,4,28,3.79C-1356.54,604.19-1351.31,604.31-1346.26,606Z" transform="translate(1625.52 -395.78)"/><path class="cls-13" d="M-1080,622.75c-5.24.21-10.25-2.31-15.57-1.29-1.28.25-1.9-1-2.74-1.61,2.34-3,4.79-4.63,8.23-1.27,1.2,1.17,3.12.92,4.66.56a42.7,42.7,0,0,1,11.75-1.37,3.49,3.49,0,0,0,3.17-1.59,5.35,5.35,0,0,0,4.13.42c.36,1.86.73,3.72,1.09,5.59a40,40,0,0,1-5.58-.24C-1074,621.4-1077,621.19-1080,622.75Z" transform="translate(1625.52 -395.78)"/><path class="cls-11" d="M-1408.72,601.27c-3.35,1.34-6.62.15-9.85-.48-7.81-1.5-14.93-5.47-22.92-6.41a3.29,3.29,0,0,1-3-3.57.28.28,0,0,1,0-.09c10.17.81,19.58,4.7,29.3,7.33C-1412.86,598.68-1410.17,598.77-1408.72,601.27Z" transform="translate(1625.52 -395.78)"/><path class="cls-11" d="M-1080,622.75c2.94-1.53,6-1.35,9.14-.8a40,40,0,0,0,5.58.24h1.4l7.6-.78,2.17.79c.79,1.14.71,2.48.8,3.77-8.09.94-16-1.58-24-1.39C-1078.55,624.6-1079.26,623.64-1080,622.75Z" transform="translate(1625.52 -395.78)"/><path class="cls-11" d="M-1275.24,608.9c-3.61,1.43-7.27.85-10.87.07s-7.54-1.26-10.89-3.28c1.12-2.12,3.06-1.56,4.62-1.08a43.51,43.51,0,0,0,12.14,2A7.12,7.12,0,0,1-1275.24,608.9Z" transform="translate(1625.52 -395.78)"/><path class="cls-13" d="M-1056.24,621.4l-7.6.78c.58-2.66,2.81-4.35,4-6.69a1.69,1.69,0,0,1,2.17-1,2.06,2.06,0,0,1,1.32,2.06C-1056.29,618.19-1056.28,619.78-1056.24,621.4Z" transform="translate(1625.52 -395.78)"/><path class="cls-11" d="M-1328.93,605.58c-4.24,2.46-8.64,2.3-13.12.78C-1338.33,602.86-1333.59,602.57-1328.93,605.58Z" transform="translate(1625.52 -395.78)"/><path class="cls-14" d="M-1066.33,616.6a5.35,5.35,0,0,1-4.13-.42c-.54-2-2-4.44,1.61-5,1.23-.2,2.72-.48,3.63,1.11C-1064.14,614.19-1065.54,615.27-1066.33,616.6Z" transform="translate(1625.52 -395.78)"/><path class="cls-11" d="M-1108.65,619.76c-4.52,1.75-9,3.31-13.06-1,3.43-.23,6.87-.44,10.3-.69C-1110.06,617.94-1108.95,618.19-1108.65,619.76Z" transform="translate(1625.52 -395.78)"/><path class="cls-11" d="M-1130.41,618.3c-3.56,2.71-5.33,2.5-7.92-1C-1135.65,617.25-1132.83,616.12-1130.41,618.3Z" transform="translate(1625.52 -395.78)"/><path class="cls-11" d="M-657.94,625.52c-2.65,7.22-8.61,9.79-15.52,10.21a194.24,194.24,0,0,1-20.19-.09c-13.61-.6-27.16,1.09-40.75.9-1.79,0-3.87.48-4.81-1.85,1.85-2.83,4.78-2.53,7.58-2.61.46.4,1,1.19,1.39,1.13,4.45-.62,8.88.35,13.31.15.62,0,1.21-.78,1.82-1.2l21.6,0c2.58,0,5.2.36,7.16-2.1a1.83,1.83,0,0,1,2.56-.38,1.79,1.79,0,0,1,.59.74c1.36,3.6,4.17,3.26,7,3.08,1.35-.2,2.69-.48,4.05-.6,2.2-.18,4.27-.48,5-3C-664.45,627.54-661.84,625.19-657.94,625.52Z" transform="translate(1625.52 -395.78)"/><path class="cls-11" d="M-745.86,634.27c-6.31,2.65-12.75,1.22-19.12.46a87.43,87.43,0,0,0-19-.71c-11,1-21.84-1.24-32.78-1.54a2.66,2.66,0,0,1-2.73-1.59c1.76-1.71,4-.87,6-1.17l7.61-.86a5.35,5.35,0,0,0,3.61,1.72c7.44-.17,14.94.94,22.29-.8s14,0,20.84,2.12c2.69.87,5.23,1.23,7.94,0C-748.6,630.69-746.77,631.63-745.86,634.27Z" transform="translate(1625.52 -395.78)"/><path class="cls-11" d="M-829,630.35c-5.88,1.9-12,1.7-18.06,2.18a113.66,113.66,0,0,1-26.77-.92c-3.73-.59-7.45-.08-11.17-.19-2-.06-4-.13-5.56-1.65,0-.77,0-1.54,0-2.32h2.25c3.68,1.45,7.49,1,11.29.85,9,.27,18,.41,26.92.88,5.66.3,11.19-1,16.81-.83C-831.65,628.36-829.75,628.19-829,630.35Z" transform="translate(1625.52 -395.78)"/><path class="cls-11" d="M-902.51,628.91c-10.73.76-21.37-.6-32-1.35a5.15,5.15,0,0,1-4-1.66c2-2,4.43-2.21,7-1.76a67.15,67.15,0,0,0,16.74,1.18c3.81-.26,7.3,1.61,11.1,1.31C-902.36,626.52-902.65,628-902.51,628.91Z" transform="translate(1625.52 -395.78)"/><path class="cls-13" d="M-715.11,632.19c-.61.42-1.2,1.17-1.82,1.2-4.43.2-8.86-.77-13.31-.15-.41.06-.93-.73-1.39-1.13,2.2-3.28,5-5.31,9.22-5.3C-718.56,626.79-715.92,628.19-715.11,632.19Z" transform="translate(1625.52 -395.78)"/><path class="cls-13" d="M-805.78,628.86l-7.61.86a5.31,5.31,0,0,1,1.06-3.48,4.29,4.29,0,0,1,4.33-1.53C-805.65,625.19-805.94,627.19-805.78,628.86Z" transform="translate(1625.52 -395.78)"/><path class="cls-13" d="M-877.09,628.27c-3.8.17-7.61.6-11.29-.85.07-1.72.54-2.86,2.68-2.41C-882.65,625.66-879.16,625.05-877.09,628.27Z" transform="translate(1625.52 -395.78)"/><path class="cls-13" d="M-667.11,629.83c-.74,2.54-2.81,2.84-5,3-1.36.12-2.7.4-4,.6,1-4.14,2.07-4.85,6.16-4.16Z" transform="translate(1625.52 -395.78)"/><path class="cls-11" d="M-946.08,626c-2.49,2.73-5,1.83-7.48,0C-951.08,624.35-948.59,623.66-946.08,626Z" transform="translate(1625.52 -395.78)"/><path class="cls-13" d="M-890.65,627.45c0,.78,0,1.55,0,2.32-1.71-.82-3.86,2-5.35-.64C-894,629-893.31,625.12-890.65,627.45Z" transform="translate(1625.52 -395.78)"/><path class="cls-14" d="M-767.65,582.65c2.47-1.69,4.79-2,6.81.7C-763.28,584.54-765.6,584.79-767.65,582.65Z" transform="translate(1625.52 -395.78)"/><path class="cls-14" d="M-738.38,582.39c1.76-3,3.55-2.84,5.35,0C-734.8,583.44-736.59,583.7-738.38,582.39Z" transform="translate(1625.52 -395.78)"/><path class="cls-14" d="M-757.86,583.31c1.61-1.88,3.3-2.87,5.29-.46C-754.19,584.65-756,584.53-757.86,583.31Z" transform="translate(1625.52 -395.78)"/><path class="cls-14" d="M-703.26,578.56c2.41-2.8,4.28-2.57,7.63.92C-698.42,581.19-700.76,579.19-703.26,578.56Z" transform="translate(1625.52 -395.78)"/><path class="cls-14" d="M-682.06,602c2,.09,4.12-.53,5.94.87C-679.28,605.19-680.75,605-682.06,602Z" transform="translate(1625.52 -395.78)"/><path class="cls-14" d="M-687.34,581.8c2.55,0,3.72,1.33,3.66,3.83C-686,585.37-687.44,584.33-687.34,581.8Z" transform="translate(1625.52 -395.78)"/></svg>